<svg xmlns="http://www.w3.org/2000/svg" width="24" height="24" viewBox="0 0 24 24" fill="none"><path d="M9.87381 11.2799C10.3719 11.0294 10.7484 10.7504 11.0064 10.4489C11.4654 9.90583 11.692 9.18577 11.692 8.2932C11.692 7.42463 11.4654 6.68207 11.0124 6.05952C10.2563 5.04543 8.97674 4.52639 7.16759 4.49939H0V19.1301H6.68305C7.43611 19.1301 8.13367 19.0656 8.77872 18.9336C9.42377 18.8001 9.98182 18.5555 10.4544 18.1985C10.8744 17.888 11.2254 17.5025 11.5044 17.0479C11.9455 16.3609 12.166 15.5823 12.166 14.7152C12.166 13.8752 11.9725 13.1596 11.5885 12.5716C11.1999 11.9835 10.6299 11.553 9.87381 11.2799ZM2.95674 7.0406H6.18501C6.89457 7.0406 7.47961 7.1171 7.93865 7.26862C8.46969 7.48913 8.73522 7.93767 8.73522 8.62173C8.73522 9.23528 8.5327 9.66431 8.13217 9.90583C7.72863 10.1474 7.20509 10.2689 6.56304 10.2689H2.95674V7.0406ZM8.06166 16.3339C7.70463 16.5064 7.20209 16.5919 6.55854 16.5919H2.95674V12.6901H6.60804C7.24409 12.6946 7.73913 12.7786 8.09316 12.9361C8.72322 13.2211 9.03674 13.7431 9.03674 14.5067C9.03674 15.4068 8.71271 16.0128 8.06166 16.3339Z" fill="#0F0F0F"></path><path d="M21.692 5.18201H15.3359V7.00316H21.692V5.18201Z" fill="#0F0F0F"></path><path d="M23.9005 12.3691C23.7685 11.5216 23.4775 10.776 23.0245 10.1325C22.5279 9.4034 21.8979 8.86936 21.1313 8.53183C20.3677 8.1928 19.5082 8.02329 18.5511 8.02479C16.9445 8.02479 15.6393 8.52733 14.6298 9.52491C13.6232 10.5255 13.1191 11.9641 13.1191 13.8393C13.1191 15.8389 13.6757 17.2835 14.7948 18.1701C15.9094 19.0582 17.1965 19.5007 18.6576 19.5007C20.4262 19.5007 21.8019 18.9742 22.7844 17.9241C23.413 17.261 23.7685 16.6085 23.8465 15.9679H20.9183C20.7488 16.2845 20.5522 16.532 20.3272 16.712C19.9192 17.042 19.3882 17.207 18.7371 17.207C18.1176 17.207 17.5925 17.0705 17.1545 16.799C16.4314 16.364 16.0534 15.6019 16.0054 14.5173H23.9965C24.0085 13.5827 23.9785 12.8642 23.9005 12.3691ZM16.0774 12.6497C16.1824 11.9461 16.4374 11.3881 16.8424 10.9755C17.2475 10.5645 17.8205 10.3575 18.5541 10.356C19.2306 10.356 19.7962 10.5495 20.2567 10.938C20.7113 11.3296 20.9678 11.8981 21.0203 12.6497H16.0774Z" fill="#0F0F0F"></path></svg>