<svg xmlns="http://www.w3.org/2000/svg" width="48" height="48" viewBox="0 0 48 48" fill="none"><rect x="0.5" y="0.5" width="47" height="47" rx="11.5" stroke="#0F0F0F" stroke-opacity="0.16"></rect><g clip-path="url(#clip0_1526_494)"><path d="M23.9126 24.9319C23.9375 24.9319 23.9623 24.9319 23.9921 24.9319C24.0021 24.9319 24.012 24.9319 24.0219 24.9319C24.0369 24.9319 24.0567 24.9319 24.0716 24.9319C25.5278 24.907 26.7057 24.3951 27.5755 23.416C29.4889 21.2591 29.1708 17.5614 29.136 17.2085C29.0118 14.5595 27.7594 13.2922 26.7256 12.7008C25.9553 12.2584 25.0557 12.0199 24.0518 12H24.017C24.012 12 24.0021 12 23.9971 12H23.9673C23.4156 12 22.3322 12.0895 21.2934 12.6809C20.2497 13.2723 18.9774 14.5397 18.8532 17.2085C18.8184 17.5614 18.5003 21.2591 20.4137 23.416C21.2785 24.3951 22.4564 24.907 23.9126 24.9319ZM20.1802 17.3328C20.1802 17.3179 20.1851 17.303 20.1851 17.293C20.3491 13.7296 22.8789 13.3469 23.9623 13.3469H23.9822C23.9921 13.3469 24.007 13.3469 24.0219 13.3469C25.3638 13.3767 27.6451 13.9234 27.7991 17.293C27.7991 17.3079 27.7991 17.3228 27.8041 17.3328C27.8091 17.3676 28.157 20.7472 26.5765 22.5264C25.9503 23.2321 25.1153 23.58 24.017 23.59C24.007 23.59 24.0021 23.59 23.9921 23.59C23.9822 23.59 23.9772 23.59 23.9673 23.59C22.8739 23.58 22.034 23.2321 21.4127 22.5264C19.8372 20.7571 20.1752 17.3626 20.1802 17.3328Z" fill="#0F0F0F"></path><path d="M34.206 31.0652C34.206 31.0602 34.206 31.0553 34.206 31.0503C34.206 31.0105 34.201 30.9708 34.201 30.9261C34.1712 29.942 34.1066 27.6409 31.9496 26.9054C31.9347 26.9004 31.9148 26.8954 31.8999 26.8904C29.6585 26.3189 27.7947 25.0267 27.7749 25.0118C27.4717 24.7981 27.0542 24.8726 26.8405 25.1758C26.6268 25.479 26.7013 25.8964 27.0045 26.1102C27.089 26.1698 29.0671 27.5465 31.5421 28.1826C32.7001 28.5951 32.8293 29.8327 32.8641 30.9658C32.8641 31.0105 32.8641 31.0503 32.8691 31.0901C32.8741 31.5374 32.8442 32.2282 32.7647 32.6258C31.9596 33.083 28.8036 34.6635 24.0026 34.6635C19.2215 34.6635 16.0457 33.0781 15.2356 32.6208C15.1561 32.2232 15.1213 31.5324 15.1312 31.0851C15.1312 31.0453 15.1362 31.0056 15.1362 30.9608C15.171 29.8277 15.3002 28.5902 16.4582 28.1777C18.9333 27.5415 20.9113 26.1599 20.9958 26.1052C21.299 25.8915 21.3735 25.474 21.1598 25.1708C20.9461 24.8677 20.5286 24.7931 20.2255 25.0068C20.2056 25.0217 18.3518 26.3139 16.1004 26.8855C16.0805 26.8904 16.0656 26.8954 16.0507 26.9004C13.8937 27.6409 13.8291 29.942 13.7993 30.9211C13.7993 30.9658 13.7993 31.0056 13.7943 31.0453C13.7943 31.0503 13.7943 31.0553 13.7943 31.0602C13.7894 31.3187 13.7844 32.6457 14.0478 33.3116C14.0975 33.4409 14.1869 33.5502 14.3062 33.6248C14.4553 33.7242 18.0287 36.0004 24.0076 36.0004C29.9865 36.0004 33.5599 33.7192 33.709 33.6248C33.8233 33.5502 33.9177 33.4409 33.9674 33.3116C34.2159 32.6506 34.211 31.3237 34.206 31.0652Z" fill="#0F0F0F"></path></g><defs><clipPath id="clip0_1526_494"><rect width="24" height="24" fill="white" transform="translate(12 12)"></rect></clipPath></defs></svg>