<svg xmlns="http://www.w3.org/2000/svg" width="20" height="20" viewBox="0 0 20 20" fill="none"><path d="M9.99935 1.04102C5.05935 1.04102 1.04102 5.05935 1.04102 9.99935C1.04102 14.9393 5.05935 18.9577 9.99935 18.9577C14.9393 18.9577 18.9577 14.9393 18.9577 9.99935C18.9577 5.05935 14.9393 1.04102 9.99935 1.04102ZM9.99935 17.7077C5.74852 17.7077 2.29102 14.2502 2.29102 9.99935C2.29102 5.74852 5.74852 2.29102 9.99935 2.29102C14.2502 2.29102 17.7077 5.74852 17.7077 9.99935C17.7077 14.2502 14.2502 17.7077 9.99935 17.7077ZM12.941 12.0577C13.1852 12.3018 13.1852 12.6977 12.941 12.9419C12.8194 13.0635 12.6593 13.1252 12.4993 13.1252C12.3393 13.1252 12.1793 13.0644 12.0577 12.9419L9.55766 10.4419C9.44016 10.3244 9.37435 10.1652 9.37435 10.0002V5.8335C9.37435 5.4885 9.65435 5.2085 9.99935 5.2085C10.3443 5.2085 10.6243 5.4885 10.6243 5.8335V9.74097L12.941 12.0577Z" fill="black"></path></svg>