<svg xmlns="http://www.w3.org/2000/svg" width="48" height="48" viewBox="0 0 48 48" fill="none"><rect x="0.5" y="0.5" width="47" height="47" rx="11.5" stroke="#0F0F0F" stroke-opacity="0.16"></rect><g clip-path="url(#clip0_1526_522)"><path d="M30.9677 26.8676C30.4763 26.356 29.8837 26.0825 29.2556 26.0825C28.6326 26.0825 28.0348 26.3509 27.5232 26.8625L25.9226 28.4581C25.7909 28.3872 25.6592 28.3214 25.5326 28.2555C25.3502 28.1643 25.178 28.0782 25.0311 27.9871C23.5317 27.0348 22.1691 25.7937 20.8623 24.188C20.2291 23.3877 19.8036 22.714 19.4946 22.0302C19.91 21.6503 20.295 21.2552 20.6698 20.8753C20.8116 20.7334 20.9535 20.5866 21.0953 20.4447C22.159 19.381 22.159 18.0032 21.0953 16.9395L19.7124 15.5566C19.5554 15.3996 19.3933 15.2375 19.2414 15.0754C18.9374 14.7614 18.6183 14.4372 18.2891 14.1333C17.7977 13.647 17.2102 13.3887 16.5922 13.3887C15.9742 13.3887 15.3765 13.647 14.87 14.1333C14.8649 14.1383 14.8649 14.1383 14.8598 14.1434L13.1376 15.8808C12.4892 16.5292 12.1195 17.3194 12.0384 18.2362C11.9169 19.7153 12.3525 21.0931 12.6868 21.9947C13.5074 24.2083 14.7332 26.2598 16.5618 28.4581C18.7804 31.1073 21.4499 33.1993 24.4992 34.6733C25.6643 35.2255 27.2193 35.8789 28.9567 35.9903C29.0631 35.9954 29.1745 36.0005 29.2759 36.0005C30.446 36.0005 31.4286 35.58 32.1986 34.7442C32.2036 34.7341 32.2138 34.7291 32.2188 34.7189C32.4822 34.3998 32.7862 34.1111 33.1053 33.8021C33.3231 33.5944 33.546 33.3766 33.7638 33.1487C34.2652 32.6269 34.5286 32.0191 34.5286 31.396C34.5286 30.7679 34.2602 30.1652 33.7486 29.6586L30.9677 26.8676ZM32.7811 32.2014C32.776 32.2014 32.776 32.2065 32.7811 32.2014C32.5835 32.4142 32.3809 32.6067 32.1631 32.8194C31.8339 33.1335 31.4995 33.4627 31.1855 33.8325C30.6739 34.3795 30.0711 34.6379 29.2809 34.6379C29.2049 34.6379 29.1239 34.6379 29.0479 34.6328C27.5435 34.5366 26.1455 33.949 25.0969 33.4475C22.2299 32.0596 19.7124 30.0892 17.6205 27.592C15.8932 25.5101 14.7383 23.5852 13.9734 21.5186C13.5023 20.2573 13.3301 19.2746 13.4061 18.3477C13.4567 17.755 13.6847 17.2637 14.1051 16.8433L15.8324 15.116C16.0806 14.883 16.344 14.7563 16.6023 14.7563C16.9214 14.7563 17.1798 14.9488 17.3419 15.1109C17.3469 15.116 17.352 15.121 17.3571 15.1261C17.666 15.4148 17.9598 15.7137 18.2688 16.0328C18.4258 16.1949 18.5879 16.357 18.75 16.5241L20.1329 17.907C20.6698 18.4439 20.6698 18.9403 20.1329 19.4772C19.986 19.6241 19.8441 19.771 19.6973 19.9129C19.2718 20.3485 18.8665 20.7537 18.4258 21.1488C18.4157 21.1589 18.4056 21.164 18.4005 21.1741C17.9649 21.6098 18.0459 22.0352 18.1371 22.324C18.1422 22.3392 18.1473 22.3544 18.1523 22.3696C18.512 23.2408 19.0185 24.0614 19.7884 25.039L19.7935 25.0441C21.1915 26.7663 22.6656 28.1086 24.2915 29.1369C24.4992 29.2686 24.712 29.375 24.9146 29.4763C25.0969 29.5674 25.2692 29.6536 25.416 29.7447C25.4363 29.7549 25.4566 29.7701 25.4768 29.7802C25.6491 29.8663 25.8111 29.9068 25.9783 29.9068C26.3987 29.9068 26.6621 29.6434 26.7482 29.5573L28.4806 27.825C28.6528 27.6527 28.9263 27.4451 29.2455 27.4451C29.5595 27.4451 29.8178 27.6426 29.9749 27.8148C29.9799 27.8199 29.9799 27.8199 29.985 27.825L32.776 30.616C33.2978 31.1326 33.2978 31.6645 32.7811 32.2014Z" fill="#0F0F0F"></path><path d="M24.9691 17.7081C26.2963 17.931 27.5018 18.5591 28.4642 19.5215C29.4266 20.4839 30.0497 21.6895 30.2776 23.0166C30.3333 23.3509 30.6221 23.5839 30.9513 23.5839C30.9918 23.5839 31.0273 23.5789 31.0678 23.5738C31.4427 23.513 31.6909 23.1584 31.6301 22.7836C31.3565 21.1779 30.5967 19.714 29.4368 18.554C28.2768 17.3941 26.8129 16.6342 25.2072 16.3607C24.8324 16.2999 24.4828 16.5481 24.417 16.9179C24.3512 17.2877 24.5943 17.6473 24.9691 17.7081Z" fill="#0F0F0F"></path><path d="M35.9723 22.5869C35.5215 19.9428 34.2754 17.5367 32.3607 15.622C30.446 13.7073 28.04 12.4612 25.3958 12.0104C25.0261 11.9446 24.6766 12.1978 24.6107 12.5676C24.5499 12.9425 24.7981 13.292 25.173 13.3578C27.5334 13.758 29.6862 14.8774 31.3983 16.5844C33.1104 18.2965 34.2248 20.4493 34.6249 22.8098C34.6807 23.1441 34.9694 23.3771 35.2986 23.3771C35.3392 23.3771 35.3746 23.372 35.4151 23.367C35.7849 23.3113 36.0382 22.9567 35.9723 22.5869Z" fill="#0F0F0F"></path></g><defs><clipPath id="clip0_1526_522"><rect width="24" height="24" fill="white" transform="translate(12 12)"></rect></clipPath></defs></svg>