<svg xmlns="http://www.w3.org/2000/svg" width="100" height="100" viewBox="0 0 100 100" fill="none"><g clip-path="url(#clip0_625_576)"><path d="M49.5003 14.8398C48.331 14.8398 47.188 15.1867 46.2159 15.8366C45.2438 16.4864 44.4863 17.41 44.0392 18.4905C43.5922 19.571 43.4758 20.7598 43.7046 21.9065C43.9335 23.0532 44.4973 24.1063 45.3249 24.9324C46.1524 25.7585 47.2064 26.3206 48.3535 26.5475C49.5006 26.7744 50.6892 26.6559 51.7689 26.2071C52.8487 25.7582 53.771 24.9992 54.4192 24.026C55.0674 23.0528 55.4123 21.9092 55.4103 20.7398C55.4077 19.1741 54.7838 17.6735 53.6758 16.5673C52.5677 15.4611 51.066 14.8398 49.5003 14.8398ZM49.5003 24.7198C48.7092 24.7198 47.9358 24.4852 47.278 24.0457C46.6202 23.6062 46.1076 22.9815 45.8048 22.2506C45.5021 21.5197 45.4228 20.7154 45.5772 19.9395C45.7315 19.1636 46.1125 18.4508 46.6719 17.8914C47.2313 17.332 47.944 16.951 48.72 16.7967C49.4959 16.6424 50.3002 16.7216 51.0311 17.0243C51.762 17.3271 52.3867 17.8398 52.8262 18.4976C53.2657 19.1554 53.5003 19.9287 53.5003 20.7198C53.5003 21.7807 53.0789 22.7981 52.3288 23.5483C51.5786 24.2984 50.5612 24.7198 49.5003 24.7198Z" fill="#0F0F0F"></path><path d="M95.8302 15.27C94.872 14.3025 93.734 13.5314 92.4802 13C91.2373 12.4858 89.9054 12.2208 88.5602 12.22C86.7246 12.2219 84.9214 12.7046 83.3302 13.62C82.589 14.0549 81.974 14.6758 81.5461 15.4211C81.1182 16.1665 80.8921 17.0106 80.8902 17.87V33.15H66.1502L66.2402 32.57C66.2997 32.2036 66.2852 31.8291 66.1976 31.4684C66.11 31.1077 65.9511 30.7683 65.7302 30.47L64.0002 28.11C63.9117 27.9851 63.8562 27.8399 63.8387 27.6878C63.8212 27.5357 63.8424 27.3817 63.9002 27.24C64.0302 26.95 64.1602 26.64 64.2802 26.33C64.3364 26.1883 64.4287 26.0639 64.548 25.9691C64.6674 25.8743 64.8095 25.8126 64.9602 25.79L67.8602 25.34C68.5245 25.2392 69.1303 24.903 69.5673 24.3926C70.0042 23.8823 70.243 23.2318 70.2402 22.56V18.93C70.2451 18.2576 70.007 17.6061 69.5697 17.0953C69.1324 16.5845 68.5254 16.2488 67.8602 16.15L65.0002 15.7C64.8495 15.6774 64.7074 15.6157 64.5881 15.5209C64.4687 15.4261 64.3764 15.3017 64.3202 15.16C64.2002 14.85 64.0702 14.54 63.9402 14.25C63.8824 14.1083 63.8612 13.9543 63.8787 13.8022C63.8962 13.6501 63.9517 13.5049 64.0402 13.38L65.7302 11C66.1262 10.4562 66.3154 9.78915 66.2641 9.11845C66.2128 8.44775 65.9243 7.81725 65.4502 7.34L62.8802 4.8C62.408 4.32154 61.7794 4.02896 61.1092 3.97571C60.439 3.92247 59.7721 4.11211 59.2302 4.51L56.8602 6.24C56.7395 6.33318 56.5956 6.39172 56.4441 6.40934C56.2926 6.42695 56.1392 6.40299 56.0002 6.34C55.7002 6.21 55.3902 6.08 55.0902 5.97C54.9466 5.91394 54.8208 5.82031 54.7258 5.69893C54.6308 5.57754 54.5701 5.43285 54.5502 5.28L54.1002 2.39C53.9975 1.72398 53.6596 1.11677 53.1478 0.678355C52.636 0.239935 51.9841 -0.000709672 51.3102 1.57209e-06H47.6902C47.0163 -0.000709672 46.3645 0.239935 45.8527 0.678355C45.3409 1.11677 45.003 1.72398 44.9002 2.39L44.4502 5.28C44.4283 5.43216 44.367 5.57593 44.2722 5.69699C44.1775 5.81805 44.0527 5.91218 43.9102 5.97C43.6102 6.08 43.3002 6.21 43.0002 6.34C42.8613 6.40299 42.7079 6.42695 42.5564 6.40934C42.4049 6.39172 42.261 6.33318 42.1402 6.24L39.7702 4.51C39.2284 4.11211 38.5614 3.92247 37.8913 3.97571C37.2211 4.02896 36.5925 4.32154 36.1202 4.8L33.5502 7.36C33.074 7.83187 32.7837 8.45943 32.7322 9.12785C32.6808 9.79627 32.8718 10.4609 33.2702 11L35.0002 13.38C35.0887 13.5049 35.1443 13.6501 35.1618 13.8022C35.1792 13.9543 35.1581 14.1083 35.1002 14.25C34.9702 14.54 34.8402 14.85 34.7202 15.16C34.6636 15.3004 34.5708 15.4233 34.4514 15.5164C34.332 15.6094 34.1902 15.6693 34.0402 15.69L31.1402 16.15C30.4751 16.2488 29.8681 16.5845 29.4308 17.0953C28.9935 17.6061 28.7553 18.2576 28.7602 18.93V22.56C28.7574 23.2318 28.9963 23.8823 29.4332 24.3926C29.8701 24.903 30.476 25.2392 31.1402 25.34L34.0402 25.79C34.1909 25.8126 34.3331 25.8743 34.4524 25.9691C34.5718 26.0639 34.6641 26.1883 34.7202 26.33C34.8402 26.64 34.9702 26.95 35.1002 27.24C35.1581 27.3817 35.1792 27.5357 35.1618 27.6878C35.1443 27.8399 35.0887 27.9851 35.0002 28.11L33.2702 30.47C33.0493 30.7683 32.8904 31.1077 32.8028 31.4684C32.7152 31.8291 32.7008 32.2036 32.7602 32.57L32.8502 33.15H18.1102V17.89C18.1084 17.0306 17.8823 16.1865 17.4544 15.4411C17.0265 14.6958 16.4115 14.0749 15.6702 13.64C13.6999 12.4906 11.404 12.0271 9.1421 12.3221C6.88017 12.617 4.77993 13.6538 3.17023 15.27C1.15589 17.2761 0.0163942 19.9972 0.000234021 22.84V30.7C0.0578047 30.9118 0.183484 31.0989 0.357883 31.2322C0.532282 31.3655 0.745708 31.4378 0.965234 31.4378C1.18476 31.4378 1.39819 31.3655 1.57258 31.2322C1.74698 31.0989 1.87266 30.9118 1.93023 30.7V22.84C1.94327 20.5109 2.87808 18.2817 4.53023 16.64C5.30209 15.8594 6.22079 15.2393 7.23339 14.8154C8.246 14.3915 9.33248 14.1721 10.4302 14.17H10.5102C11.9824 14.1785 13.4267 14.5715 14.7002 15.31C15.1499 15.5743 15.5229 15.9512 15.7825 16.4037C16.042 16.8561 16.1791 17.3684 16.1802 17.89V78.15C16.1806 78.3199 16.1376 78.4872 16.0554 78.6359C15.9731 78.7846 15.8543 78.9099 15.7102 79C15.574 79.0944 15.415 79.1506 15.2498 79.1629C15.0845 79.1752 14.9189 79.1431 14.7702 79.07C12.7725 78.1533 10.5361 77.8917 8.38079 78.3228C6.22548 78.7539 4.26168 79.8554 2.77023 81.47L1.90023 82.4V37.53C1.84266 37.3182 1.71698 37.1311 1.54258 36.9978C1.36819 36.8645 1.15476 36.7923 0.935234 36.7923C0.715708 36.7923 0.502282 36.8645 0.327883 36.9978C0.153484 37.1311 0.0278047 37.3182 -0.029766 37.53V88.53C-0.0324014 89.9057 0.236614 91.2683 0.761848 92.5398C1.28708 93.8113 2.05819 94.9665 3.03095 95.9393C4.0037 96.912 5.15895 97.6832 6.43042 98.2084C7.70189 98.7336 9.06455 99.0026 10.4402 99H27.4402C27.6521 98.9424 27.8391 98.8167 27.9724 98.6423C28.1057 98.4679 28.178 98.2545 28.178 98.035C28.178 97.8155 28.1057 97.6021 27.9724 97.4277C27.8391 97.2533 27.6521 97.1276 27.4402 97.07H10.4402C9.28931 97.1258 8.13904 96.9474 7.05915 96.5454C5.97925 96.1434 4.99224 95.5264 4.15795 94.7316C3.32366 93.9368 2.65946 92.9808 2.20564 91.9217C1.75181 90.8625 1.5178 89.7223 1.5178 88.57C1.5178 87.4177 1.75181 86.2775 2.20564 85.2183C2.65946 84.1592 3.32366 83.2032 4.15795 82.4084C4.99224 81.6136 5.97925 80.9966 7.05915 80.5946C8.13904 80.1926 9.28931 80.0142 10.4402 80.07C11.6556 80.0677 12.8568 80.3305 13.9602 80.84C14.4081 81.0422 14.8994 81.129 15.3894 81.0924C15.8794 81.0557 16.3524 80.8969 16.7652 80.6303C17.1779 80.3637 17.5173 79.998 17.7523 79.5664C17.9873 79.1349 18.1103 78.6514 18.1102 78.16V35.08H34.5002L36.1202 36.69C36.5925 37.1685 37.2211 37.461 37.8913 37.5143C38.5614 37.5675 39.2284 37.3779 39.7702 36.98L42.1402 35.25C42.261 35.1568 42.4049 35.0983 42.5564 35.0807C42.7079 35.063 42.8613 35.087 43.0002 35.15C43.3002 35.28 43.6102 35.41 43.9102 35.52C44.0514 35.577 44.1753 35.6696 44.2699 35.7888C44.3646 35.9079 44.4267 36.0496 44.4502 36.2L44.9002 39.1C45.0032 39.7651 45.3415 40.3711 45.8535 40.8079C46.3655 41.2446 47.0172 41.4831 47.6902 41.48H48.5402V45.87H42.3002C41.6522 45.87 41.0305 46.1267 40.5713 46.584C40.1122 47.0414 39.8529 47.662 39.8502 48.31V54.82C39.8502 55.4698 40.1084 56.0929 40.5678 56.5524C41.0273 57.0119 41.6505 57.27 42.3002 57.27H48.5402V61.27H31.7402C31.475 61.27 31.2207 61.3754 31.0331 61.5629C30.8456 61.7504 30.7402 62.0048 30.7402 62.27V67.27H24.5402C23.8931 67.27 23.2725 67.5271 22.8149 67.9847C22.3573 68.4422 22.1002 69.0629 22.1002 69.71V76.22C22.1002 76.868 22.357 77.4897 22.8143 77.9489C23.2716 78.4081 23.8922 78.6674 24.5402 78.67H38.9402C39.262 78.67 39.5806 78.6066 39.8778 78.4835C40.1751 78.3604 40.4451 78.1799 40.6726 77.9524C40.9002 77.7249 41.0806 77.4548 41.2037 77.1576C41.3269 76.8603 41.3902 76.5417 41.3902 76.22V69.62C41.3876 68.972 41.1283 68.3514 40.6691 67.8941C40.2099 67.4367 39.5883 67.18 38.9402 67.18H32.7102V63.18H66.2902V67.18H60.0602C59.4122 67.18 58.7905 67.4367 58.3313 67.8941C57.8722 68.3514 57.6129 68.972 57.6102 69.62V76.13C57.6102 76.7798 57.8684 77.4029 58.3278 77.8624C58.7873 78.3219 59.4105 78.58 60.0602 78.58H74.4602C75.1083 78.5774 75.7289 78.3181 76.1862 77.8589C76.6435 77.3997 76.9002 76.778 76.9002 76.13V69.62C76.9002 68.9729 76.6432 68.3522 76.1856 67.8947C75.728 67.4371 75.1074 67.18 74.4602 67.18H68.2202V62.18C68.2202 61.9148 68.1149 61.6604 67.9273 61.4729C67.7398 61.2854 67.4855 61.18 67.2202 61.18H50.4602V57.18H56.7002C57.35 57.18 57.9732 56.9219 58.4326 56.4624C58.8921 56.0029 59.1502 55.3798 59.1502 54.73V48.31C59.1476 47.662 58.8883 47.0414 58.4291 46.584C57.9699 46.1267 57.3483 45.87 56.7002 45.87H50.4602V41.48H51.3102C51.9832 41.4831 52.635 41.2446 53.147 40.8079C53.659 40.3711 53.9973 39.7651 54.1002 39.1L54.5502 36.21C54.5701 36.0571 54.6308 35.9125 54.7258 35.7911C54.8208 35.6697 54.9466 35.5761 55.0902 35.52C55.3902 35.41 55.7002 35.28 56.0002 35.15C56.1392 35.087 56.2926 35.063 56.4441 35.0807C56.5956 35.0983 56.7395 35.1568 56.8602 35.25L59.2302 37C59.7721 37.3979 60.439 37.5875 61.1092 37.5343C61.7794 37.481 62.408 37.1885 62.8802 36.71L64.5002 35.1H80.8902V44.71C80.9478 44.9218 81.0735 45.1089 81.2479 45.2422C81.4223 45.3755 81.6357 45.4478 81.8552 45.4478C82.0748 45.4478 82.2882 45.3755 82.4626 45.2422C82.637 45.1089 82.7627 44.9218 82.8202 44.71V17.89C82.8214 17.3684 82.9585 16.8561 83.218 16.4037C83.4775 15.9512 83.8505 15.5743 84.3002 15.31C85.5738 14.5715 87.0181 14.1785 88.4902 14.17C89.6043 14.1622 90.7088 14.3766 91.739 14.8007C92.7692 15.2248 93.7045 15.8501 94.4902 16.64C96.1424 18.2817 97.0772 20.5109 97.0902 22.84V82.4L96.2202 81.47C94.7288 79.8554 92.765 78.7539 90.6097 78.3228C88.4544 77.8917 86.2179 78.1533 84.2202 79.07C84.0699 79.1365 83.9054 79.1649 83.7415 79.1527C83.5775 79.1405 83.4191 79.088 83.2802 79C83.1361 78.9099 83.0173 78.7846 82.9351 78.6359C82.8529 78.4872 82.8099 78.3199 82.8102 78.15V51.52C82.7527 51.3082 82.627 51.1211 82.4526 50.9878C82.2782 50.8545 82.0648 50.7822 81.8452 50.7822C81.6257 50.7822 81.4123 50.8545 81.2379 50.9878C81.0635 51.1211 80.9378 51.3082 80.8802 51.52V78.15C80.8824 78.6375 81.0057 79.1167 81.239 79.5447C81.4724 79.9727 81.8085 80.3359 82.2171 80.6017C82.6257 80.8675 83.094 81.0275 83.5798 81.0674C84.0657 81.1072 84.5538 81.0257 85.0002 80.83C86.1037 80.3205 87.3049 80.0577 88.5202 80.06C89.6712 80.0042 90.8214 80.1826 91.9013 80.5846C92.9812 80.9865 93.9682 81.6036 94.8025 82.3984C95.6368 83.1932 96.301 84.1492 96.7548 85.2083C97.2087 86.2674 97.4427 87.4077 97.4427 88.56C97.4427 89.7123 97.2087 90.8525 96.7548 91.9117C96.301 92.9708 95.6368 93.9268 94.8025 94.7216C93.9682 95.5164 92.9812 96.1334 91.9013 96.5354C90.8214 96.9374 89.6712 97.1158 88.5202 97.06H34.2502C34.0384 97.1176 33.8514 97.2432 33.718 97.4176C33.5847 97.592 33.5125 97.8055 33.5125 98.025C33.5125 98.2445 33.5847 98.4579 33.718 98.6323C33.8514 98.8067 34.0384 98.9324 34.2502 98.99H88.5602C91.3248 98.9874 93.9757 97.8893 95.9325 95.9364C97.8892 93.9834 98.9923 91.3346 99.0002 88.57V22.84C98.9841 19.9972 97.8446 17.2761 95.8302 15.27ZM39.4402 69.11V69.62V76.62H38.9202H24.0002V69.12H39.4402V69.11ZM74.9602 69.11V76.63H74.4502H59.5602V76.11V69.11H75.0002H74.9602ZM57.2002 47.8V48.31V55.31H56.6802H41.8002V54.79V47.79H57.2002V47.8ZM64.0802 32.8L61.5202 35.37C61.3715 35.521 61.1733 35.6132 60.962 35.6297C60.7508 35.6462 60.5406 35.586 60.3702 35.46L58.0002 33.69C57.6016 33.3971 57.1325 33.2151 56.6407 33.1624C56.1489 33.1097 55.6519 33.1882 55.2002 33.39L54.4102 33.72C53.9475 33.8953 53.5397 34.1905 53.2287 34.5753C52.9176 34.9602 52.7146 35.4208 52.6402 35.91L52.1902 38.8C52.1588 39.0102 52.0524 39.202 51.8907 39.3398C51.7289 39.4777 51.5228 39.5523 51.3102 39.55H47.6902C47.4777 39.5523 47.2715 39.4777 47.1098 39.3398C46.948 39.202 46.8416 39.0102 46.8102 38.8L46.3602 35.91C46.2839 35.4215 46.0801 34.9618 45.7693 34.5773C45.4586 34.1928 45.0518 33.8971 44.5902 33.72L43.8002 33.39C43.3482 33.1903 42.8515 33.1128 42.3601 33.1655C41.8687 33.2181 41.3997 33.399 41.0002 33.69L38.6302 35.42C38.4598 35.546 38.2497 35.6062 38.0384 35.5897C37.8272 35.5732 37.629 35.481 37.4802 35.33L34.9202 32.76C34.7693 32.6113 34.6771 32.4131 34.6605 32.2018C34.644 31.9905 34.7043 31.7804 34.8302 31.61L36.5602 29.24C36.8513 28.8425 37.0323 28.3752 37.085 27.8853C37.1376 27.3954 37.0601 26.9003 36.8602 26.45C36.7402 26.19 36.6302 25.92 36.5302 25.65C36.3544 25.1886 36.0588 24.7823 35.6739 24.473C35.289 24.1637 34.8287 23.9624 34.3402 23.89L31.4402 23.44C31.2309 23.4067 31.0404 23.2997 30.9029 23.1384C30.7654 22.9771 30.69 22.772 30.6902 22.56V18.93C30.69 18.718 30.7654 18.5129 30.9029 18.3516C31.0404 18.1903 31.2309 18.0833 31.4402 18.05L34.3402 17.6C34.8287 17.5276 35.289 17.3263 35.6739 17.017C36.0588 16.7077 36.3544 16.3014 36.5302 15.84C36.6302 15.57 36.7402 15.3 36.8602 15.04C37.06 14.5879 37.1374 14.0913 37.0848 13.5999C37.0321 13.1085 36.8512 12.6395 36.5602 12.24L34.8302 9.88C34.7022 9.7104 34.6407 9.4998 34.6572 9.28794C34.6738 9.07609 34.7674 8.87762 34.9202 8.73L37.4802 6.16C37.629 6.00905 37.8272 5.91683 38.0384 5.9003C38.2497 5.88377 38.4598 5.94402 38.6302 6.07L41.0002 7.8C41.3989 8.09287 41.8679 8.27492 42.3598 8.32761C42.8516 8.38031 43.3486 8.30178 43.8002 8.1L44.5902 7.77C45.0518 7.59294 45.4586 7.29722 45.7693 6.91271C46.0801 6.52819 46.2839 6.06848 46.3602 5.58L46.8102 2.69C46.8414 2.47885 46.9474 2.28594 47.109 2.14643C47.2705 2.00692 47.4768 1.93011 47.6902 1.93H51.3102C51.5237 1.93011 51.73 2.00692 51.8915 2.14643C52.053 2.28594 52.1591 2.47885 52.1902 2.69L52.6402 5.58C52.7165 6.06848 52.9203 6.52819 53.2311 6.91271C53.5419 7.29722 53.9486 7.59294 54.4102 7.77C54.6702 7.87 54.9402 7.98 55.2002 8.1C55.6519 8.30178 56.1489 8.38031 56.6407 8.32761C57.1325 8.27492 57.6016 8.09287 58.0002 7.8L60.3702 6.07C60.5406 5.94402 60.7508 5.88377 60.962 5.9003C61.1733 5.91683 61.3715 6.00905 61.5202 6.16L64.0802 8.73C64.2312 8.87873 64.3234 9.07693 64.3399 9.2882C64.3565 9.49946 64.2962 9.7096 64.1702 9.88L62.4402 12.25C62.1492 12.6475 61.9682 13.1148 61.9155 13.6047C61.8628 14.0946 61.9403 14.5897 62.1402 15.04C62.2602 15.3 62.3702 15.57 62.4702 15.84C62.6461 16.3014 62.9416 16.7077 63.3265 17.017C63.7114 17.3263 64.1718 17.5276 64.6602 17.6L67.5602 18.05C67.7696 18.0833 67.9601 18.1903 68.0976 18.3516C68.2351 18.5129 68.3105 18.718 68.3102 18.93V22.56C68.3105 22.772 68.2351 22.9771 68.0976 23.1384C67.9601 23.2997 67.7696 23.4067 67.5602 23.44L64.6602 23.89C64.1718 23.9624 63.7114 24.1637 63.3265 24.473C62.9416 24.7823 62.6461 25.1886 62.4702 25.65C62.3702 25.92 62.2602 26.19 62.1402 26.45C61.9403 26.9003 61.8628 27.3954 61.9155 27.8853C61.9682 28.3752 62.1492 28.8425 62.4402 29.24L64.1702 31.61C64.2983 31.7796 64.3598 31.9902 64.3432 32.2021C64.3266 32.4139 64.2331 32.6124 64.0802 32.76V32.8Z" fill="#0F0F0F"></path><path d="M75.9403 84.5898C76.2436 84.6174 76.5255 84.7573 76.7308 84.9821C76.9362 85.2069 77.05 85.5004 77.05 85.8048C77.05 86.1093 76.9362 86.4028 76.7308 86.6276C76.5255 86.8524 76.2436 86.9923 75.9403 87.0198H23.0603C22.7571 86.9923 22.4752 86.8524 22.2698 86.6276C22.0645 86.4028 21.9507 86.1093 21.9507 85.8048C21.9507 85.5004 22.0645 85.2069 22.2698 84.9821C22.4752 84.7573 22.7571 84.6174 23.0603 84.5898H75.9403Z" fill="#0F0F0F" stroke="white" stroke-width="0.5"></path></g><defs><clipPath id="clip0_625_576"><rect width="100" height="100" fill="white"></rect></clipPath></defs></svg>