<svg xmlns="http://www.w3.org/2000/svg" width="48" height="48" viewBox="0 0 48 48" fill="none"><rect x="0.5" y="0.5" width="47" height="47" rx="11.5" stroke="#0F0F0F" stroke-opacity="0.16"></rect><g clip-path="url(#clip0_1526_504)"><path d="M14.7676 30.719C13.9657 30.719 13.1822 30.5144 12.4721 30.1156C12.1068 29.9275 11.9653 29.4568 12.1835 29.1027C12.9087 27.9439 13.1705 26.5275 12.8385 25.1954C12.4944 23.8144 11.9965 22.6513 12 21.1894C12.0124 16.0603 16.2815 11.9022 21.4053 12.0017C26.3543 12.1014 30.433 16.2617 30.433 21.212C30.4331 27.6771 23.6575 32.2162 17.6759 29.7197C16.8514 30.3668 15.8151 30.719 14.7676 30.719ZM13.7931 29.1405C14.9199 29.4905 16.1872 29.2109 17.0561 28.3709C17.2702 28.1638 17.5905 28.1117 17.8591 28.2402C22.9802 30.6887 29.0073 26.8509 29.0073 21.212C29.0073 17.0041 25.5841 13.5119 21.3766 13.4272C17.0406 13.341 13.4362 16.8528 13.4257 21.1928C13.4223 22.5814 13.9641 23.6912 14.2602 25.0065C14.5721 26.3928 14.4078 27.8586 13.7931 29.1405Z" fill="#0F0F0F"></path><path d="M33.2323 35.9998C32.1849 35.9998 31.1486 35.6475 30.3242 35.0004C27.1431 36.3281 23.3591 35.7235 20.7508 33.471C20.4529 33.2136 20.42 32.7635 20.6772 32.4655C20.9346 32.1676 21.3847 32.1345 21.6827 32.3919C23.996 34.3897 27.3839 34.8391 30.1409 33.521C30.4095 33.3925 30.7297 33.4446 30.9439 33.6517C31.8128 34.4916 33.0801 34.7714 34.2069 34.4213C33.4818 32.9089 33.3813 31.1762 33.9432 29.5722C33.9483 29.5577 33.9538 29.5435 33.9598 29.5294C34.3701 28.562 34.5769 27.5338 34.5744 26.4736C34.5698 24.6042 33.948 22.875 32.7759 21.4728C32.5235 21.1706 32.5637 20.7211 32.8658 20.4687C33.1678 20.2161 33.6174 20.2564 33.8699 20.5585C35.2383 22.1957 35.9948 24.2951 36.0001 26.4701C36.0031 27.7159 35.7614 28.9249 35.2817 30.064C34.7778 31.5226 35.0096 33.0843 35.8164 34.3833C36.0349 34.7375 35.8933 35.2082 35.5278 35.3965C34.8179 35.795 34.0342 35.9997 33.2323 35.9998Z" fill="#0F0F0F"></path><path d="M21.2178 22.3739C21.8408 22.3739 22.3458 21.8692 22.3458 21.2465C22.3458 20.6239 21.8408 20.1191 21.2178 20.1191C20.5949 20.1191 20.0898 20.6239 20.0898 21.2465C20.0898 21.8692 20.5949 22.3739 21.2178 22.3739Z" fill="#0F0F0F"></path><path d="M17.0616 22.3739C17.6845 22.3739 18.1895 21.8692 18.1895 21.2465C18.1895 20.6239 17.6845 20.1191 17.0616 20.1191C16.4386 20.1191 15.9336 20.6239 15.9336 21.2465C15.9336 21.8692 16.4386 22.3739 17.0616 22.3739Z" fill="#0F0F0F"></path><path d="M25.3721 22.3739C25.9951 22.3739 26.5001 21.8692 26.5001 21.2465C26.5001 20.6239 25.9951 20.1191 25.3721 20.1191C24.7492 20.1191 24.2441 20.6239 24.2441 21.2465C24.2441 21.8692 24.7492 22.3739 25.3721 22.3739Z" fill="#0F0F0F"></path></g><defs><clipPath id="clip0_1526_504"><rect width="24" height="24" fill="white" transform="translate(12 12)"></rect></clipPath></defs></svg>