<svg xmlns="http://www.w3.org/2000/svg" width="48" height="48" viewBox="0 0 48 48" fill="none"><rect x="0.5" y="0.5" width="47" height="47" rx="11.5" stroke="#0F0F0F" stroke-opacity="0.16"></rect><path d="M31.1781 14.9731C29.2609 13.0559 26.7118 12 24.0004 12C21.2891 12 18.7399 13.0559 16.8227 14.9731C14.9055 16.8904 13.8496 19.4395 13.8496 22.1508C13.8496 27.6357 19.0358 32.1978 21.822 34.6487C22.2092 34.9893 22.5435 35.2835 22.8099 35.5323C23.1437 35.844 23.5721 36 24.0004 36C24.4288 36 24.8571 35.844 25.1909 35.5323C25.4572 35.2834 25.7916 34.9893 26.1788 34.6487C28.965 32.1978 34.1512 27.6357 34.1512 22.1508C34.1511 19.4395 33.0953 16.8904 31.1781 14.9731ZM25.2502 33.5932C24.8545 33.9412 24.5128 34.2419 24.2311 34.505C24.1017 34.6258 23.899 34.6258 23.7696 34.505C23.4879 34.2418 23.1462 33.9412 22.7505 33.5932C20.1311 31.289 15.2554 27 15.2554 22.1508C15.2554 17.3289 19.1783 13.4059 24.0003 13.4059C28.8223 13.4059 32.7452 17.3289 32.7452 22.1508C32.7452 27 27.8696 31.289 25.2502 33.5932Z" fill="#0F0F0F"></path><path d="M24.0007 17.2949C21.5341 17.2949 19.5273 19.3016 19.5273 21.7682C19.5273 24.2348 21.5341 26.2415 24.0007 26.2415C26.4673 26.2415 28.474 24.2348 28.474 21.7682C28.474 19.3016 26.4673 17.2949 24.0007 17.2949ZM24.0007 24.8356C22.3093 24.8356 20.9332 23.4595 20.9332 21.7682C20.9332 20.0768 22.3093 18.7008 24.0007 18.7008C25.6921 18.7008 27.0681 20.0768 27.0681 21.7682C27.0681 23.4595 25.6921 24.8356 24.0007 24.8356Z" fill="#0F0F0F"></path></svg>