<svg xmlns="http://www.w3.org/2000/svg" viewBox="0 0 86 86" fill="none">
                            <g opacity="0.2">
                              <path fill-rule="evenodd" clip-rule="evenodd" d="M82.7996 15.8936C83.7864 13.6923 83.2587 10.4375 81.0222 10.1172C79.9854 10.1172 78.9486 10.1172 77.9118 10.1172C74.5848 10.7207 69.2139 12.2019 66.8034 12.3389C63.3412 15.2715 58.9793 16.4157 56.1374 19.4483C55.4079 20.2277 55.5301 21.5274 54.8044 22.5587C54.934 22.3735 53.749 22.6531 53.4713 23.003C45.9898 32.4545 48.2152 46.4049 48.5836 60.3275C48.704 64.9542 47.2913 69.8456 49.0261 74.1002C60.5234 74.6556 71.0357 75.4295 81.4647 74.1002C82.2016 64.3136 82.2016 51.4518 81.4647 41.6634C72.1502 40.497 62.2415 39.8324 55.693 40.3304C56.3299 39.0381 56.0337 39.8305 54.8044 39.8861C54.3026 38.1087 55.0358 37.0738 53.9175 35.4427C54.3322 35.713 55.556 36.4757 55.2505 34.9983C56.641 30.2994 59.9642 26.1078 62.8043 21.6682C62.8247 22.2791 62.5951 22.6438 62.36 23.0012C67.8068 18.6707 75.1366 17.0211 82.7996 15.8936ZM78.3562 45.6662C77.4064 54.7029 79.2097 62.7584 77.9137 70.9935C73.1796 70.8787 71.8336 69.3513 68.1382 70.1067C68.1382 69.6623 68.1382 69.218 68.1382 68.7718C68.0308 69.9993 65.9443 69.2458 65.4722 70.1067C64.6909 69.9974 64.4595 69.342 64.5854 68.3293C63.3894 68.022 63.7263 69.2476 63.2524 69.6623C62.6432 67.6776 61.0732 70.0622 61.475 70.1067C60.7122 70.0196 61.4491 68.9995 61.0307 68.7718C59.4051 67.8924 56.4021 69.2569 53.9212 69.2161C54.0082 60.8514 53.1325 53.8457 53.4769 46.1124C61.4657 46.2568 69.2491 43.911 78.3562 45.6662Z" fill="black"/>
                              <path fill-rule="evenodd" clip-rule="evenodd" d="M37.9211 42.5534C37.3972 41.8924 36.8047 41.2981 36.1438 40.776C28.9085 41.4555 18.5776 40.6705 8.15043 40.776C9.58342 23.6949 20.6586 16.2559 37.4768 14.56C37.4768 13.6713 37.4768 12.7826 37.4768 11.894C33.2 9.88703 26.2128 12.5197 22.3693 12.3383C24.9224 13.5232 15.0025 14.473 19.2589 14.1157C18.6609 14.8507 18.1221 15.6449 17.0372 15.893C17.5463 14.0583 14.2601 16.13 13.0271 18.0425C12.9715 18.2887 12.8234 18.4406 12.7105 18.6294C12.7882 18.4387 12.8993 18.2425 13.0271 18.0425C13.0511 17.9388 13.0659 17.8259 13.0382 17.6704C11.9773 18.8312 10.4406 19.5144 10.8165 22.1138C10.2148 21.973 9.96852 21.4806 9.03911 21.6694C6.21941 26.7034 1.86118 32.8982 4.15138 38.11C3.45155 38.0692 3.80331 36.9769 2.81836 37.2213C2.65544 38.982 3.85886 39.9373 2.37402 40.776V52.3288C3.93106 59.2105 1.64086 69.4692 3.70704 74.9901C15.0599 76.1806 26.8367 76.0861 37.9211 74.9901C39.9447 63.5854 36.8603 54.058 37.9211 42.5534ZM33.4778 70.9911C28.7437 70.8763 27.3977 69.3488 23.7023 70.1042C23.7023 69.6599 23.7023 69.2155 23.7023 68.7694C23.5949 69.9968 21.5084 69.2433 21.0363 70.1042C20.255 69.995 20.0235 69.3396 20.1476 68.3269C18.9516 68.0195 19.2885 69.2452 18.8146 69.6599C18.2073 67.6752 16.6373 70.0598 17.0372 70.1042C16.2744 70.0172 17.0131 68.9971 16.5929 68.7694C14.9673 67.8899 11.9643 69.2544 9.48345 69.2137C9.57046 60.849 8.69475 53.8433 9.03911 46.1099C17.0613 46.2858 24.7632 43.8586 33.9221 45.6656C32.9723 54.7005 34.7737 62.7578 33.4778 70.9911Z" fill="black"/>
                            </g>
                          </svg>