<svg xmlns="http://www.w3.org/2000/svg" width="100" height="100" viewBox="0 0 100 100" fill="none"><path d="M100 13C99.7922 12.516 99.4909 12.0778 99.1134 11.7106C98.7358 11.3434 98.2895 11.0543 97.8 10.86L70.55 0.09C70.4023 0.0360805 70.247 0.00570975 70.0899 0C69.9355 0.00823949 69.7834 0.0420308 69.6399 0.1C69.4948 0.155929 69.3647 0.244955 69.26 0.36C69.152 0.474465 69.0641 0.606313 69 0.75L65.5 9.55L65.2399 9.3C64.2701 8.39798 63.0704 7.78055 61.7727 7.51547C60.475 7.2504 59.1294 7.34791 57.8834 7.79731C56.6375 8.24672 55.5394 9.03065 54.7097 10.0631C53.88 11.0955 53.3507 12.3365 53.18 13.65C53.0501 14.702 53.149 15.7697 53.47 16.78C53.7957 17.7847 54.338 18.7058 55.0585 19.4781C55.779 20.2505 56.6602 20.8553 57.6399 21.25C58.4833 21.5864 59.382 21.7628 60.29 21.77H60.65L57.16 30.55C57.0974 30.6949 57.0699 30.8525 57.08 31.01C57.08 31.1645 57.1105 31.3174 57.1699 31.46C57.2288 31.6062 57.3213 31.7364 57.4399 31.84C57.5509 31.9523 57.6836 32.0408 57.83 32.1L68.72 36.43C68.9454 36.4947 69.1845 36.4947 69.41 36.43C69.6388 36.3835 69.8481 36.2684 70.01 36.1C70.1775 35.9349 70.2894 35.7217 70.33 35.49C70.3722 35.258 70.3479 35.0188 70.26 34.8C70.0226 34.2348 69.9003 33.628 69.9003 33.015C69.9003 32.402 70.0226 31.7952 70.26 31.23C70.5566 30.4952 71.0292 29.8444 71.6361 29.3349C72.243 28.8254 72.9658 28.4727 73.7409 28.3078C74.516 28.1429 75.3198 28.1708 76.0816 28.3892C76.8433 28.6075 77.5399 29.0095 78.11 29.56C78.569 29.9979 78.9333 30.5255 79.18 31.11C79.4327 31.6912 79.5686 32.3164 79.58 32.95C79.5864 33.5828 79.471 34.2109 79.2399 34.8C78.7773 35.9493 77.894 36.8791 76.7699 37.4C76.5526 37.49 76.3702 37.6478 76.25 37.85C76.1255 38.0472 76.0629 38.277 76.07 38.51C76.0782 38.742 76.151 38.967 76.2799 39.16C76.4141 39.3507 76.6021 39.4969 76.82 39.58L87.66 44C87.839 44.0723 88.0331 44.0992 88.225 44.0783C88.417 44.0573 88.6007 43.9892 88.76 43.88C88.9567 43.7431 89.1095 43.552 89.1999 43.33L100 16.12C100.209 15.6265 100.317 15.096 100.317 14.56C100.317 14.024 100.209 13.4935 100 13ZM97.8399 15.2L87.43 41.3L79.8899 38.3L80 38C80.7941 37.1488 81.3735 36.1203 81.69 35C81.9979 33.8663 82.025 32.6747 81.7689 31.5282C81.5128 30.3817 80.9811 29.3148 80.22 28.42C79.453 27.5335 78.4817 26.847 77.3899 26.42C76.3194 25.9708 75.1576 25.7823 74 25.87C72.2297 26.0499 70.5882 26.8771 69.3904 28.193C68.1927 29.5088 67.523 31.2207 67.51 33V33.36L59.81 30.3L63.7 20.54C63.7797 20.3226 63.8004 20.088 63.7599 19.86C63.709 19.6328 63.5945 19.4247 63.43 19.26C63.2623 19.0979 63.0516 18.9872 62.823 18.9412C62.5944 18.8951 62.3573 18.9155 62.1399 19C61.2681 19.366 60.3076 19.4663 59.3789 19.2884C58.4502 19.1105 57.5948 18.6623 56.9199 18C56.2515 17.3336 55.793 16.4859 55.6011 15.5618C55.4091 14.6376 55.4922 13.6775 55.84 12.8C56.1828 11.9179 56.7818 11.1587 57.56 10.62C58.336 10.0795 59.2544 9.78033 60.2 9.76C61.1444 9.73485 62.0753 9.98779 62.8772 10.4874C63.679 10.987 64.3163 11.7112 64.7099 12.57C64.8028 12.7855 64.96 12.9671 65.16 13.09C65.3557 13.2185 65.5858 13.2847 65.82 13.28C66.0522 13.2733 66.2777 13.2005 66.47 13.07C66.6611 12.9339 66.8101 12.7468 66.9 12.53L70.7799 2.76L96.87 13.11C97.2695 13.2769 97.5886 13.5924 97.76 13.99C97.9294 14.3875 97.9401 14.8348 97.79 15.24L97.8399 15.2Z" fill="#0F0F0F"></path><path d="M40.52 97.12H4.82C4.1746 97.12 3.55549 96.8643 3.09819 96.4089C2.64088 95.9535 2.38265 95.3354 2.38 94.69V59H1.2C0.753602 58.998 0.324652 58.8264 1.79737e-10 58.52L1.79738e-10 94.69C-5.47479e-06 95.3234 0.125069 95.9505 0.368043 96.5354C0.611018 97.1202 0.96711 97.6514 1.41588 98.0983C1.86465 98.5452 2.39726 98.8991 2.98315 99.1396C3.56904 99.3802 4.19666 99.5027 4.83 99.5H41C40.8425 99.3428 40.718 99.1556 40.6338 98.9495C40.5497 98.7434 40.5076 98.5226 40.51 98.3L40.52 97.12Z" fill="#0F0F0F"></path><path d="M43.12 41.7598C42.9929 41.5619 42.8078 41.4083 42.59 41.3198C42.3748 41.2316 42.1387 41.2072 41.91 41.2498C41.6783 41.2903 41.4651 41.4022 41.3 41.5698C40.5332 42.3064 39.5972 42.8434 38.5742 43.1335C37.5512 43.4236 36.4726 43.4578 35.4332 43.2333C34.3939 43.0088 33.4256 42.5323 32.6136 41.8458C31.8016 41.1593 31.1707 40.2838 30.7764 39.2963C30.3821 38.3087 30.2365 37.2395 30.3523 36.1825C30.4682 35.1255 30.842 34.1132 31.4409 33.2345C32.0397 32.3559 32.8453 31.6378 33.7868 31.1435C34.7282 30.6492 35.7767 30.3938 36.84 30.3998C38.506 30.3976 40.1067 31.0473 41.3 32.2098C41.4651 32.3773 41.6783 32.4892 41.91 32.5298C42.0819 32.5621 42.2589 32.5561 42.4283 32.5123C42.5976 32.4684 42.7553 32.3878 42.8899 32.276C43.0245 32.1643 43.1329 32.0243 43.2072 31.8659C43.2816 31.7075 43.3201 31.5347 43.32 31.3598V16.4298C43.3174 16.115 43.1912 15.8138 42.9686 15.5912C42.746 15.3686 42.4448 15.2424 42.13 15.2398H4.82C3.55119 15.2371 2.33271 15.7358 1.42992 16.6273C0.52714 17.5189 0.0131864 18.731 0 19.9998L0 56.2198C0.326191 55.917 0.754964 55.7491 1.2 55.7498H2.38V19.9998C2.37999 19.6803 2.44324 19.3639 2.56611 19.069C2.68897 18.7741 2.86902 18.5064 3.09586 18.2814C3.3227 18.0565 3.59184 17.8786 3.88776 17.7582C4.18368 17.6378 4.50052 17.5771 4.82 17.5798H40.94V28.9998L40.59 28.8298C39.4103 28.2794 38.1238 27.9958 36.822 27.9991C35.5202 28.0024 34.2352 28.2924 33.0582 28.8487C31.8813 29.405 30.8414 30.2138 30.0125 31.2176C29.1836 32.2214 28.5861 33.3955 28.2625 34.6564C27.9389 35.9173 27.8971 37.234 28.14 38.5129C28.383 39.7918 28.9049 41.0014 29.6684 42.0558C30.4319 43.1101 31.4184 43.9832 32.5577 44.6131C33.697 45.2429 34.9611 45.6139 36.26 45.6998C37.7481 45.7926 39.236 45.5143 40.59 44.8898L40.94 44.7198V55.5598H42.06C42.5104 55.5609 42.942 55.7407 43.26 56.0598L43.32 56.1298V42.4198C43.3182 42.1851 43.2488 41.9559 43.12 41.7598Z" fill="#0F0F0F"></path><path d="M83.0801 56.15H70.4901L70.6501 55.79C71.6102 53.7477 71.7558 51.4163 71.0573 49.2704C70.3587 47.1245 68.8685 45.3256 66.8901 44.24C65.575 43.5362 64.1066 43.168 62.6151 43.168C61.1236 43.168 59.6551 43.5362 58.3401 44.24C56.3634 45.3274 54.8748 47.1264 54.1764 49.2716C53.4781 51.4168 53.6224 53.7473 54.5801 55.79L54.7501 56.15H43.3301C43.6003 56.4606 43.7495 56.8583 43.7501 57.27C43.7365 57.3225 43.7365 57.3775 43.7501 57.43V58.51H57.0901C57.3247 58.5082 57.5539 58.4387 57.7501 58.31C57.9425 58.1795 58.0921 57.9951 58.1801 57.78C58.2764 57.567 58.3044 57.3295 58.2601 57.1C58.2107 56.8714 58.1001 56.6606 57.9401 56.49C57.3549 55.9001 56.8941 55.1987 56.5849 54.4275C56.2757 53.6562 56.1245 52.8307 56.1401 52C56.1421 50.9449 56.4021 49.9063 56.8975 48.9747C57.3929 48.0431 58.1085 47.2468 58.9822 46.6552C59.8558 46.0636 60.8609 45.6946 61.9098 45.5804C62.9587 45.4662 64.0196 45.6102 65.0001 46C65.9821 46.3911 66.854 47.0158 67.5401 47.82C68.2509 48.6336 68.7521 49.6085 69.0001 50.66C69.2256 51.6917 69.1947 52.763 68.9101 53.78C68.7105 54.527 68.3712 55.2293 67.9101 55.85C67.8501 55.93 67.7901 56.02 67.7201 56.1C67.6829 56.1611 67.6394 56.2181 67.5901 56.27L67.3901 56.49C67.2642 56.6308 67.1719 56.7983 67.1201 56.98C67.1201 56.98 67.1201 57.04 67.1201 57.07V57.22C67.1139 57.2361 67.1139 57.2539 67.1201 57.27V57.37C67.1146 57.4332 67.1146 57.4968 67.1201 57.56C67.1389 57.6347 67.1622 57.7082 67.1901 57.78C67.2349 57.8738 67.2921 57.9613 67.3601 58.04C67.3893 58.0895 67.4306 58.1308 67.4801 58.16C67.5216 58.2086 67.5686 58.2522 67.6201 58.29C67.8155 58.4203 68.0452 58.4899 68.2801 58.49H81.8901V94.69C81.8916 95.0094 81.8297 95.326 81.7078 95.6213C81.5859 95.9165 81.4065 96.1847 81.1801 96.41C80.7249 96.8612 80.111 97.1161 79.4701 97.12H43.9401V98.3C43.9425 98.5226 43.9004 98.7434 43.8162 98.9495C43.7321 99.1555 43.6076 99.3427 43.4501 99.5H79.4501C80.0813 99.5 80.7063 99.3755 81.2893 99.1336C81.8723 98.8918 82.4019 98.5373 82.8477 98.0906C83.2936 97.6438 83.6469 97.1135 83.8876 96.5299C84.1282 95.9464 84.2514 95.3212 84.2501 94.69V57.27C84.2331 56.9778 84.1126 56.7013 83.9101 56.49C83.6872 56.2745 83.3901 56.1528 83.0801 56.15Z" fill="#0F0F0F"></path><path d="M42.89 58.76C42.6392 58.9102 42.3524 58.9897 42.06 58.99H41V71.11C41.6537 70.4877 42.3907 69.9593 43.19 69.54V58.54C43.101 58.6273 43 58.7013 42.89 58.76Z" fill="#0F0F0F"></path><path d="M41.0001 84.4302V98.3002C40.998 98.4582 41.028 98.6149 41.0881 98.761C41.1483 98.9071 41.2374 99.0395 41.3501 99.1502C41.5834 99.3681 41.8908 99.4893 42.2101 99.4893C42.5294 99.4893 42.8368 99.3681 43.0701 99.1502C43.1828 99.0395 43.2719 98.9071 43.3321 98.761C43.3922 98.6149 43.4222 98.4582 43.4201 98.3002V86.1602C42.5417 85.7316 41.7381 85.1644 41.0401 84.4802C41.0216 84.4683 41.0076 84.4508 41.0001 84.4302Z" fill="#0F0F0F"></path><path d="M42.8999 56.4101C42.6773 56.1867 42.3752 56.0608 42.0599 56.0601H28.3599C28.3878 56.074 28.4118 56.0946 28.4299 56.1201C29.1086 56.8166 29.6722 57.6166 30.0999 58.4901H42.0999C42.257 58.4901 42.4124 58.4581 42.5568 58.3963C42.7012 58.3344 42.8315 58.2438 42.9399 58.1301C43.1496 57.9237 43.2714 57.6442 43.2799 57.3501C43.2848 57.3236 43.2848 57.2965 43.2799 57.2701C43.2699 56.9449 43.1336 56.6363 42.8999 56.4101Z" fill="#0F0F0F"></path><path d="M2.63003 56.25H1.20003C0.883892 56.2518 0.58017 56.3733 0.350026 56.59C0.241205 56.689 0.15396 56.8093 0.0937393 56.9435C0.033519 57.0777 0.00161694 57.2229 2.57505e-05 57.37C-0.00101754 57.519 0.0296522 57.6665 0.0899974 57.8027C0.150343 57.9389 0.238982 58.0607 0.350026 58.16C0.581165 58.374 0.885064 58.4919 1.20003 58.49H13.36C13.7597 57.6713 14.2787 56.9164 14.9 56.25H2.63003Z" fill="#0F0F0F"></path><path d="M16.3901 59.0001L16.6001 58.7201C16.6954 58.5871 16.799 58.4602 16.9101 58.3401L17.0701 58.1601C17.1792 58.0477 17.2646 57.9146 17.3213 57.7686C17.378 57.6226 17.4048 57.4667 17.4001 57.3101C17.4001 57.1589 17.3695 57.0092 17.3101 56.8701C17.3008 56.8395 17.2836 56.8118 17.2601 56.7901C17.2153 56.6664 17.1396 56.5562 17.0401 56.4701C16.8156 56.2583 16.5187 56.1402 16.2101 56.1401C16.0213 56.1413 15.8357 56.1894 15.6701 56.2801C15.5628 56.3341 15.4649 56.405 15.3801 56.4901C14.8046 57.0871 14.3134 57.76 13.9201 58.4901L13.9247 58.4963C13.8048 58.7462 13.8048 58.7462 13.6848 58.9961L13.6801 58.9901C13.3696 59.6287 13.1411 60.3041 13.0001 61.0001C12.6809 62.7239 12.872 64.5034 13.5501 66.1201C14.2176 67.7268 15.3459 69.1 16.7928 70.0663C18.2396 71.0326 19.9402 71.549 21.6801 71.5501C22.8509 71.5717 24.014 71.357 25.0998 70.9189C26.1857 70.4807 27.1722 69.8281 28.0001 69.0001C28.8261 68.1728 29.4802 67.1902 29.9247 66.1089C30.3692 65.0277 30.5954 63.8692 30.5901 62.7001C30.5964 61.4221 30.3198 60.1586 29.7801 59.0001L29.6601 58.7501C29.6227 58.6638 29.5793 58.5803 29.5301 58.5001C29.1376 57.767 28.6426 57.0935 28.0601 56.5001C27.9547 56.3783 27.8254 56.2796 27.6801 56.2101C27.5337 56.1384 27.3731 56.1008 27.2101 56.1001H26.9801C26.901 56.1094 26.8236 56.1295 26.7501 56.1601L26.5401 56.2701C26.4703 56.3113 26.4064 56.3618 26.3501 56.4201C26.2397 56.5364 26.1515 56.672 26.0901 56.8201C26.0858 56.86 26.0858 56.9002 26.0901 56.9401C26.0639 57.0212 26.0471 57.1051 26.0401 57.1901C26.0401 57.1901 26.0401 57.2501 26.0401 57.2901C26.0312 57.3531 26.0312 57.4171 26.0401 57.4801C26.036 57.5033 26.036 57.5269 26.0401 57.5501C26.0589 57.6215 26.0823 57.6917 26.1101 57.7601C26.1692 57.909 26.2615 58.0424 26.3801 58.1501L26.4901 58.2701C26.6142 58.401 26.7279 58.5415 26.8301 58.6901C26.9088 58.7742 26.976 58.8684 27.0301 58.9701C27.7846 60.0473 28.18 61.3351 28.1601 62.6501C28.1641 63.506 27.9982 64.3542 27.672 65.1455C27.3459 65.9368 26.866 66.6556 26.2601 67.2601C25.213 68.323 23.8275 68.9867 22.343 69.1364C20.8585 69.2862 19.3683 68.9125 18.1301 68.0801C16.698 67.1046 15.7108 65.6013 15.3847 63.8995C15.0586 62.1977 15.4201 60.4359 16.3901 59.0001Z" fill="#0F0F0F"></path><path d="M43.9401 85.8401C45.0643 86.3508 46.2853 86.6134 47.5201 86.6101C48.9627 86.6105 50.3832 86.2559 51.6563 85.5775C52.9294 84.8991 54.0159 83.9178 54.8201 82.7201C55.6197 81.5228 56.1204 80.151 56.2801 78.7201C56.4277 77.2823 56.2217 75.8302 55.6801 74.4901C55.1523 73.1383 54.2967 71.939 53.1901 71.0001C52.0885 70.0676 50.7736 69.4218 49.3622 69.1199C47.9508 68.8181 46.4867 68.8697 45.1001 69.2701C44.6356 69.4032 44.1838 69.5773 43.7501 69.7901C43.6622 69.8199 43.5783 69.8602 43.5001 69.9101L43.2501 70.0401C42.5784 70.4134 41.9568 70.8704 41.4001 71.4001C41.2878 71.5111 41.1993 71.6438 41.1401 71.7901C41.0727 71.934 41.0385 72.0912 41.0401 72.2501C41.0421 72.4924 41.1151 72.7288 41.2501 72.9301C41.3845 73.1228 41.5722 73.2723 41.7901 73.3601C42.0086 73.4513 42.2508 73.4688 42.4801 73.4101L42.7101 73.3401C42.8355 73.2787 42.9503 73.1977 43.0501 73.1001L43.3901 72.8001L43.6901 72.5701C44.4783 71.9793 45.3978 71.5882 46.3701 71.4301C47.6115 71.2155 48.8886 71.3691 50.0438 71.872C51.1989 72.3749 52.1814 73.2051 52.8701 74.2601C53.5631 75.3168 53.9299 76.554 53.9249 77.8177C53.9198 79.0814 53.5431 80.3156 52.8417 81.3667C52.1402 82.4178 51.145 83.2393 49.9801 83.7289C48.8151 84.2185 47.5318 84.3546 46.2901 84.1201C45.4294 83.9567 44.6121 83.6162 43.8901 83.1201L43.6601 83.0001C43.5301 82.9101 43.4001 82.8001 43.2701 82.6901L43.0001 82.4201C42.8924 82.3015 42.759 82.2092 42.6101 82.1501C42.4673 82.0915 42.3145 82.0609 42.1601 82.0601C42.003 82.0732 41.8484 82.1068 41.7001 82.1601H41.5901L41.4901 82.2201L41.3901 82.2901H41.3301C41.2718 82.3464 41.2213 82.4103 41.1801 82.4801C41.1442 82.5335 41.114 82.5904 41.0901 82.6501V82.7601C41.0695 82.8759 41.0695 82.9944 41.0901 83.1101C41.0935 83.2685 41.1275 83.4247 41.1901 83.5701C41.2593 83.7129 41.3542 83.8418 41.4701 83.9501C42.0616 84.5405 42.7352 85.0423 43.4701 85.4401L43.7201 85.5601C43.7808 85.6627 43.8548 85.7568 43.9401 85.8401Z" fill="#0F0F0F"></path></svg>