<svg xmlns="http://www.w3.org/2000/svg" width="24" height="24" viewBox="0 0 24 24" fill="none"><path d="M12.0013 0C5.93505 0 1 4.81642 1 10.7368C1 17.0312 6.99118 20.8939 10.9555 23.4492L11.6415 23.8939C11.7502 23.9647 11.8757 24 12 24C12.1242 24 12.2498 23.9647 12.3585 23.8939L13.0445 23.4492C17.0088 20.8939 23 17.0312 23 10.7368C23.0026 4.81642 18.0675 0 12.0013 0ZM12.3326 22.3958L12.0013 22.6104L11.67 22.3958C7.936 19.9882 2.29427 16.3516 2.29427 10.7368C2.29427 5.51242 6.64819 1.26316 12.0013 1.26316C17.3544 1.26316 21.7083 5.51242 21.7083 10.7368C21.7083 16.3516 16.0666 19.9894 12.3326 22.3958ZM12.0013 6.94737C9.86057 6.94737 8.11848 8.64758 8.11848 10.7368C8.11848 12.8261 9.86057 14.5263 12.0013 14.5263C14.142 14.5263 15.8841 12.8261 15.8841 10.7368C15.8841 8.64758 14.142 6.94737 12.0013 6.94737ZM12.0013 13.2632C10.5737 13.2632 9.41275 12.1301 9.41275 10.7368C9.41275 9.34358 10.5737 8.21053 12.0013 8.21053C13.4289 8.21053 14.5898 9.34358 14.5898 10.7368C14.5898 12.1301 13.4289 13.2632 12.0013 13.2632Z" fill="#0F0F0F"></path></svg>