<svg xmlns="http://www.w3.org/2000/svg" width="20" height="20" viewBox="0 0 20 20" fill="none"><path d="M10.0007 1.875C5.97982 1.875 2.70898 5.14583 2.70898 9.16667C2.70898 13.4317 6.62314 16.0166 9.21314 17.7275L9.65398 18.02C9.75898 18.09 9.87982 18.125 10.0007 18.125C10.1215 18.125 10.2423 18.09 10.3473 18.02L10.7882 17.7275C13.3782 16.0166 17.2923 13.4317 17.2923 9.16667C17.2923 5.14583 14.0215 1.875 10.0007 1.875ZM10.0998 16.6842L10.0007 16.7501L9.90148 16.6842C7.39315 15.0275 3.95898 12.7592 3.95898 9.16667C3.95898 5.835 6.66898 3.125 10.0007 3.125C13.3323 3.125 16.0423 5.835 16.0423 9.16667C16.0423 12.7592 12.6073 15.0283 10.0998 16.6842ZM10.0007 6.45833C8.50732 6.45833 7.29232 7.67333 7.29232 9.16667C7.29232 10.66 8.50732 11.875 10.0007 11.875C11.494 11.875 12.709 10.66 12.709 9.16667C12.709 7.67333 11.494 6.45833 10.0007 6.45833ZM10.0007 10.625C9.19648 10.625 8.54232 9.97083 8.54232 9.16667C8.54232 8.3625 9.19648 7.70833 10.0007 7.70833C10.8048 7.70833 11.459 8.3625 11.459 9.16667C11.459 9.97083 10.8048 10.625 10.0007 10.625Z" fill="black"></path></svg>