<svg xmlns="http://www.w3.org/2000/svg" width="24" height="24" viewBox="0 0 24 24" fill="none"><path d="M24.0002 23.9998V15.2098C24.0002 10.8898 23.0702 7.58984 18.0302 7.58984C15.6002 7.58984 13.9802 8.90984 13.3202 10.1698H13.2602V7.97984H8.49023V23.9998H13.4702V16.0498C13.4702 13.9498 13.8602 11.9398 16.4402 11.9398C18.9902 11.9398 19.0202 14.3098 19.0202 16.1698V23.9698H24.0002V23.9998Z" fill="#0F0F0F"></path><path d="M0.390625 7.98047H5.37062V24.0005H0.390625V7.98047Z" fill="#0F0F0F"></path><path d="M2.88 0C1.29 0 0 1.29 0 2.88C0 4.47 1.29 5.79 2.88 5.79C4.47 5.79 5.76 4.47 5.76 2.88C5.76 1.29 4.47 0 2.88 0Z" fill="#0F0F0F"></path></svg>