<svg width="24" height="24" viewBox="0 0 24 24" fill="none" xmlns="http://www.w3.org/2000/svg">
<g id="plus">
<path id="plus_2" d="M24 12C24 12.641 23.4797 13.1613 22.8387 13.1613H13.1613V22.8387C13.1613 23.4797 12.641 24 12 24C11.359 24 10.8387 23.4797 10.8387 22.8387V13.1613H1.16129C0.520258 13.1613 0 12.641 0 12C0 11.359 0.520258 10.8387 1.16129 10.8387H10.8387V1.16129C10.8387 0.520258 11.359 0 12 0C12.641 0 13.1613 0.520258 13.1613 1.16129V10.8387H22.8387C23.4797 10.8387 24 11.359 24 12Z" fill="#0F0F0F"/>
</g>
</svg>
