<svg width="144" height="60" viewBox="0 0 144 60" fill="none" xmlns="http://www.w3.org/2000/svg">
<g id="Logo">
<path id="Union" fill-rule="evenodd" clip-rule="evenodd" d="M53.549 6.96664L56.4508 4.43906L59.3583 1.5V6.96664H53.549ZM95.3024 36.1191C97.0125 36.8069 98.8735 37.1507 100.885 37.1507C102.897 37.1507 104.746 36.8069 106.431 36.1191C108.141 35.4314 109.612 34.4635 110.844 33.2153C112.102 31.9417 113.07 30.4389 113.749 28.7068C114.453 26.9493 114.805 25.0261 114.805 22.9375C114.805 20.1356 114.202 17.6775 112.994 15.5634C111.812 13.4492 110.178 11.8063 108.09 10.6346C106.003 9.46286 103.589 8.87701 100.848 8.87701C98.1567 8.87701 95.7551 9.46286 93.6426 10.6346C91.5552 11.8063 89.9206 13.4492 88.7386 15.5634C87.5566 17.6521 86.9656 20.0973 86.9656 22.8992C86.9656 25.0134 87.3051 26.9493 87.9841 28.7068C88.6883 30.4389 89.6565 31.9417 90.8888 33.2153C92.1462 34.4635 93.6174 35.4314 95.3024 36.1191ZM105.035 31.2667C103.828 32.0818 102.432 32.4894 100.848 32.4894C99.2884 32.4894 97.9052 32.0946 96.6981 31.3049C95.491 30.4898 94.5479 29.3691 93.8689 27.9427C93.1899 26.4908 92.8504 24.7969 92.8504 22.861C92.8504 20.9507 93.1773 19.3077 93.8312 17.9322C94.5102 16.5313 95.4533 15.4487 96.6604 14.6846C97.8675 13.9204 99.2633 13.5384 100.848 13.5384C102.457 13.5384 103.865 13.9204 105.073 14.6846C106.28 15.4487 107.223 16.5313 107.902 17.9322C108.581 19.3332 108.92 20.9761 108.92 22.861C108.92 24.7714 108.568 26.4526 107.864 27.9045C107.185 29.3309 106.242 30.4516 105.035 31.2667ZM117.817 9.2591V36.7687H123.476V16.1895L133.699 36.7687H141.205V9.2591H135.547V29.8383L125.324 9.2591H117.817ZM63.4433 36.7687V9.2591H69.2526V20.4797L79.6264 9.2591H87.3596L74.4584 22.479L88.1141 36.7687H80.23L69.2526 24.6099V36.7687H63.4433ZM53.8653 9.2591V36.7687H59.6746V9.2591H53.8653ZM26.7151 9.2591V36.7687H32.3736V16.1895L42.5965 36.7687H50.1033V9.2591H44.4449V29.8383L34.222 9.2591H26.7151ZM11.5809 37.1507C7.70803 37.1507 4.80337 36.0809 2.86694 33.9413C0.955645 31.7762 0 28.6304 0 24.504V9.2591H5.80932V25.5356C5.80932 27.9299 6.32486 29.6875 7.35595 30.8083C8.38704 31.929 9.80793 32.4894 11.6186 32.4894C13.4293 32.4894 14.8502 31.929 15.8813 30.8083C16.9124 29.6875 17.4279 27.9427 17.4279 25.5738V9.2591H23.2373V24.5804C23.2373 28.6559 22.269 31.7762 20.3326 33.9413C18.3962 36.0809 15.4789 37.1507 11.5809 37.1507ZM31.2799 57.8441C32.0569 58.2814 32.9732 58.5 34.0285 58.5C34.8632 58.5 35.6211 58.3591 36.3022 58.0773C36.993 57.7955 37.6022 57.3728 38.1299 56.8092V52.8155H34.1148V53.8649H36.9498V56.3719C36.5757 56.7315 36.1583 56.9987 35.6978 57.1736C35.2373 57.3388 34.7144 57.4214 34.1292 57.4214C33.2754 57.4214 32.5414 57.2513 31.9274 56.9112C31.323 56.5711 30.8577 56.0853 30.5315 55.4537C30.2149 54.8123 30.0566 54.0495 30.0566 53.1653C30.0566 52.281 30.2101 51.5134 30.5171 50.8623C30.8337 50.2113 31.2751 49.706 31.8411 49.3464C32.4071 48.9772 33.0691 48.7925 33.827 48.7925C34.6713 48.7925 35.3716 49.0063 35.9281 49.4339C36.4941 49.8614 36.8251 50.4347 36.921 51.1538H38.1011C38.0147 50.4736 37.7701 49.876 37.3671 49.361C36.9738 48.846 36.4653 48.4427 35.8417 48.1512C35.2277 47.8597 34.5418 47.7139 33.7838 47.7139C32.8149 47.7139 31.9562 47.9472 31.2079 48.4136C30.4692 48.88 29.8887 49.5262 29.4666 50.3522C29.0541 51.1684 28.8478 52.1158 28.8478 53.1944C28.8478 54.273 29.0589 55.2107 29.481 56.0075C29.9031 56.7946 30.5027 57.4068 31.2799 57.8441ZM113.317 58.5C112.607 58.5 111.95 58.3688 111.345 58.1065C110.751 57.8344 110.233 57.4603 109.791 56.9841C109.35 56.4983 109.009 55.9298 108.769 55.2788C108.53 54.618 108.41 53.8941 108.41 53.107C108.41 52.3199 108.53 51.6008 108.769 50.9498C109.009 50.289 109.345 49.7205 109.777 49.2444C110.218 48.7585 110.736 48.3844 111.331 48.1221C111.935 47.85 112.593 47.7139 113.303 47.7139C114.08 47.7139 114.775 47.8743 115.389 48.1949C116.013 48.5156 116.521 48.9675 116.915 49.5505C117.318 50.1335 117.567 50.8137 117.663 51.5911H116.483C116.368 50.7263 116.027 50.0461 115.461 49.5505C114.905 49.0452 114.19 48.7925 113.317 48.7925C112.578 48.7925 111.931 48.9772 111.374 49.3464C110.818 49.706 110.386 50.2113 110.079 50.8623C109.772 51.5036 109.618 52.2519 109.618 53.107C109.618 53.9621 109.772 54.7152 110.079 55.3662C110.386 56.0075 110.818 56.5128 111.374 56.8821C111.931 57.2416 112.573 57.4214 113.303 57.4214C114.195 57.4214 114.924 57.1687 115.49 56.6635C116.066 56.1582 116.406 55.478 116.512 54.6228H117.692C117.596 55.4002 117.346 56.0804 116.943 56.6635C116.55 57.2465 116.042 57.6983 115.418 58.019C114.804 58.3397 114.104 58.5 113.317 58.5ZM138.162 58.3543V53.6026L134.233 47.8597H135.672L138.809 52.4986L141.946 47.8597H143.27L139.342 53.6026V58.3543H138.162ZM82.0698 47.8597V58.3543H83.1923V49.778L88.963 58.3543H90.1862V47.8597H89.0638V56.436L83.2931 47.8597H82.0698ZM56.6313 58.3543V47.8597H57.2357H57.8114H63.4525V48.9092H57.8114V52.3636H63.0496V53.4131H57.8114V57.3048H63.5677V58.3543H57.8114H57.2357H56.6313ZM2.47703 58.3543L6.47766 47.8597H6.80865H7.5138H7.91674L11.9174 58.3543H10.7085L9.52233 55.1622H4.80012L3.6139 58.3543H2.47703ZM5.19011 54.1127L7.16123 48.8085L9.13234 54.1127H5.19011Z" fill="white"/>
</g>
</svg>
