<svg width="96" height="40" viewBox="0 0 96 40" fill="none" xmlns="http://www.w3.org/2000/svg">
<g id="Logo">
<path id="Union" fill-rule="evenodd" clip-rule="evenodd" d="M35.6994 4.64443L37.6339 2.95937L39.5722 1V4.64443H35.6994ZM63.5349 24.0794C64.675 24.5379 65.9156 24.7672 67.2569 24.7672C68.5982 24.7672 69.8304 24.5379 70.9537 24.0794C72.0938 23.6209 73.0746 22.9756 73.8961 22.1436C74.7344 21.2945 75.3799 20.2926 75.8326 19.1379C76.302 17.9662 76.5367 16.6841 76.5367 15.2916C76.5367 13.4237 76.1343 11.785 75.3296 10.3756C74.5416 8.96614 73.4518 7.87085 72.0603 7.08971C70.6687 6.30858 69.0592 5.91801 67.2318 5.91801C65.4378 5.91801 63.8367 6.30858 62.4284 7.08971C61.0368 7.87085 59.9471 8.96614 59.1591 10.3756C58.3711 11.768 57.9771 13.3982 57.9771 15.2662C57.9771 16.6756 58.2034 17.9662 58.6561 19.1379C59.1255 20.2926 59.771 21.2945 60.5925 22.1436C61.4308 22.9756 62.4116 23.6209 63.5349 24.0794ZM70.0232 20.8445C69.2185 21.3879 68.288 21.6596 67.2318 21.6596C66.1923 21.6596 65.2702 21.3964 64.4654 20.87C63.6607 20.3266 63.0319 19.5794 62.5793 18.6284C62.1266 17.6605 61.9003 16.5313 61.9003 15.2407C61.9003 13.9671 62.1182 12.8718 62.5541 11.9548C63.0068 11.0209 63.6355 10.2992 64.4403 9.78972C65.245 9.28029 66.1755 9.02557 67.2318 9.02557C68.3048 9.02557 69.2436 9.28029 70.0484 9.78972C70.8531 10.2992 71.4819 11.0209 71.9345 11.9548C72.3872 12.8888 72.6135 13.9841 72.6135 15.2407C72.6135 16.5143 72.3788 17.635 71.9094 18.603C71.4567 19.5539 70.828 20.3011 70.0232 20.8445ZM78.5448 6.17274V24.5124H82.3171V10.793L89.1324 24.5124H94.1369V6.17274H90.3647V19.8922L83.5494 6.17274H78.5448ZM42.2956 24.5124V6.17274H46.1684V13.6531L53.0843 6.17274H58.2397L49.6389 14.986L58.7427 24.5124H53.4867L46.1684 16.4066V24.5124H42.2956ZM35.9102 6.17274V24.5124H39.7831V6.17274H35.9102ZM17.8101 6.17274V24.5124H21.5824V10.793L28.3976 24.5124H33.4022V6.17274H29.6299V19.8922L22.8147 6.17274H17.8101ZM7.72061 24.7672C5.13869 24.7672 3.20225 24.0539 1.91129 22.6275C0.637097 21.1841 0 19.0869 0 16.336V6.17274H3.87288V17.0237C3.87288 18.62 4.21657 19.7917 4.90397 20.5388C5.59136 21.286 6.53862 21.6596 7.74576 21.6596C8.95289 21.6596 9.90015 21.286 10.5875 20.5388C11.2749 19.7917 11.6186 18.6285 11.6186 17.0492V6.17274H15.4915V16.3869C15.4915 19.1039 14.846 21.1841 13.5551 22.6275C12.2641 24.0539 10.3193 24.7672 7.72061 24.7672ZM20.8532 38.5627C21.3713 38.8542 21.9821 39 22.6857 39C23.2421 39 23.7474 38.9061 24.2015 38.7182C24.662 38.5303 25.0681 38.2485 25.4199 37.8728V35.2103H22.7432V35.9099H24.6332V37.5813C24.3838 37.821 24.1055 37.9991 23.7985 38.1157C23.4915 38.2259 23.143 38.2809 22.7528 38.2809C22.1836 38.2809 21.6943 38.1676 21.285 37.9408C20.882 37.7141 20.5718 37.3902 20.3544 36.9691C20.1433 36.5416 20.0378 36.033 20.0378 35.4435C20.0378 34.854 20.1401 34.3422 20.3448 33.9082C20.5558 33.4742 20.85 33.1373 21.2274 32.8976C21.6048 32.6514 22.0461 32.5284 22.5513 32.5284C23.1142 32.5284 23.5811 32.6709 23.952 32.9559C24.3294 33.241 24.5501 33.6232 24.614 34.1025H25.4007C25.3432 33.6491 25.1801 33.2507 24.9114 32.9073C24.6492 32.564 24.3102 32.2952 23.8945 32.1008C23.4851 31.9065 23.0278 31.8093 22.5226 31.8093C21.8766 31.8093 21.3041 31.9648 20.8053 32.2757C20.3128 32.5867 19.9258 33.0175 19.6444 33.5681C19.3694 34.1123 19.2319 34.7439 19.2319 35.4629C19.2319 36.182 19.3726 36.8072 19.654 37.3384C19.9354 37.8631 20.3352 38.2712 20.8532 38.5627ZM75.5446 39C75.0713 39 74.6332 38.9125 74.2303 38.7376C73.8337 38.5562 73.4883 38.3068 73.1941 37.9894C72.8999 37.6655 72.6729 37.2865 72.513 36.8525C72.3531 36.412 72.2731 35.9294 72.2731 35.4046C72.2731 34.8799 72.3531 34.4005 72.513 33.9665C72.6729 33.526 72.8967 33.147 73.1845 32.8296C73.4788 32.5057 73.8241 32.2563 74.2207 32.0814C74.6236 31.9 75.0617 31.8093 75.535 31.8093C76.0531 31.8093 76.5168 31.9162 76.9261 32.13C77.3419 32.3437 77.6809 32.645 77.9431 33.0337C78.2117 33.4223 78.378 33.8758 78.442 34.3941H77.6553C77.5785 33.8175 77.3515 33.364 76.9741 33.0337C76.6031 32.6968 76.1267 32.5284 75.5446 32.5284C75.0521 32.5284 74.6204 32.6514 74.2495 32.8976C73.8785 33.1373 73.5907 33.4742 73.386 33.9082C73.1813 34.3358 73.079 34.8346 73.079 35.4046C73.079 35.9747 73.1813 36.4768 73.386 36.9108C73.5907 37.3384 73.8785 37.6752 74.2495 37.9214C74.6204 38.1611 75.049 38.2809 75.535 38.2809C76.1299 38.2809 76.6159 38.1125 76.9933 37.7756C77.3771 37.4388 77.6041 36.9853 77.6745 36.4152H78.4612C78.3972 36.9335 78.2309 37.3869 77.9623 37.7756C77.7 38.1643 77.3611 38.4656 76.9453 38.6793C76.536 38.8931 76.0691 39 75.5446 39ZM92.1077 38.9028V35.735L89.4886 31.9065H90.448L92.5394 34.9991L94.6309 31.9065H95.5135L92.8944 35.735V38.9028H92.1077ZM54.7132 31.9065V38.9028H55.4616V33.1853L59.3087 38.9028H60.1242V31.9065H59.3758V37.624L55.5287 31.9065H54.7132ZM37.7542 38.9028V31.9065H38.1572H38.5409H42.3017V32.6061H38.5409V34.9091H42.0331V35.6087H38.5409V38.2032H42.3784V38.9028H38.5409H38.1572H37.7542ZM1.65135 38.9028L4.31844 31.9065H4.5391H5.0092H5.27783L7.94492 38.9028H7.13903L6.34822 36.7748H3.20008L2.40927 38.9028H1.65135ZM3.46007 36.0751L4.77415 32.539L6.08823 36.0751H3.46007Z" fill="white"/>
</g>
</svg>
