<svg xmlns="http://www.w3.org/2000/svg" width="100" height="100" viewBox="0 0 100 100" fill="none"><g clip-path="url(#clip0_1777_1823)"><path d="M35.1167 39.0623V38.7373H34.7917H32.9167C30.8993 38.7373 29.2583 40.3782 29.2583 42.3956V46.9789C29.2583 48.9963 30.8993 50.6373 32.9167 50.6373H36.4583C37.1993 50.6373 37.8 51.238 37.8 51.9789C37.8 52.7198 37.1993 53.3206 36.4583 53.3206H32.9167C29.4201 53.3206 26.575 50.4755 26.575 46.9789V42.3956C26.575 38.899 29.4201 36.0539 32.9167 36.0539H34.7917H35.1167V35.7289C35.1167 26.246 42.2431 20.2206 50 20.2206C57.6807 20.2206 64.8833 26.1589 64.8833 35.7289V36.0539H65.2083H67.0833C70.5799 36.0539 73.425 38.899 73.425 42.3956V46.9789C73.425 48.6733 72.7657 50.2649 71.5677 51.4631C71.0437 51.987 70.1943 51.9872 69.6702 51.4631C69.1463 50.9391 69.1461 50.0897 69.6702 49.5656C70.3607 48.8751 70.7419 47.9551 70.7419 46.9787V42.3954C70.7419 40.378 69.1009 38.737 67.0835 38.737H65.2085H64.8835V39.062V54.8954C64.8835 59.3109 61.2907 62.9037 56.8752 62.9037H52.0835C51.3426 62.9037 50.7419 62.303 50.7419 61.562C50.7419 60.8211 51.3424 60.2206 52.0833 60.2206H56.875C59.8116 60.2206 62.2 57.8322 62.2 54.8956V54.8813V54.8668V54.852V54.8368V54.8214V54.8057V54.7898V54.7735V54.757V54.7402V54.7231V54.7057V54.688V54.6701V54.6519V54.6334V54.6146V54.5956V54.5763V54.5567V54.5369V54.5168V54.4964V54.4758V54.4549V54.4338V54.4123V54.3907V54.3687V54.3465V54.3241V54.3014V54.2784V54.2552V54.2317V54.208V54.184V54.1598V54.1353V54.1106V54.0857V54.0605V54.035V54.0093V53.9834V53.9572V53.9308V53.9042V53.8773V53.8502V53.8228V53.7953V53.7675V53.7394V53.7111V53.6826V53.6539V53.625V53.5958V53.5664V53.5368V53.5069V53.4768V53.4466V53.416V53.3853V53.3544V53.3232V53.2919V53.2603V53.2285V53.1965V53.1643V53.1319V53.0993V53.0665V53.0334V53.0002V52.9668V52.9331V52.8993V52.8653V52.831V52.7966V52.762V52.7272V52.6922V52.657V52.6216V52.586V52.5503V52.5143V52.4782V52.4418V52.4053V52.3686V52.3318V52.2947V52.2575V52.2201V52.1825V52.1447V52.1068V52.0687V52.0304V51.992V51.9533V51.9145V51.8756V51.8365V51.7972V51.7577V51.7181V51.6783V51.6384V51.5983V51.558V51.5176V51.4771V51.4363V51.3955V51.3544V51.3132V51.2719V51.2304V51.1888V51.147V51.1051V51.063V51.0208V50.9785V50.936V50.8933V50.8505V50.8076V50.7646V50.7214V50.6781V50.6346V50.591V50.5473V50.5035V50.4595V50.4154V50.3712V50.3268V50.2824V50.2378V50.193V50.1482V50.1032V50.0581V50.013V49.9676V49.9222V49.8767V49.831V49.7852V49.7394V49.6934V49.6473V49.6011V49.5548V49.5084V49.4618V49.4152V49.3685V49.3217V49.2748V49.2278V49.1806V49.1334V49.0861V49.0387V48.9913V48.9437V48.896V48.8483V48.8004V48.7525V48.7045V48.6564V48.6082V48.5599V48.5116V48.4631V48.4146V48.3661V48.3174V48.2687V48.2199V48.171V48.122V48.073V48.0239V47.9748V47.9255V47.8763V47.8269V47.7775V47.728V47.6785V47.6289V47.5792V47.5295V47.4797V47.4299V47.38V47.3301V47.2801V47.23V47.1799V47.1298V47.0796V47.0294V46.9791V46.9288V46.8784V46.828V46.7776V46.7271V46.6765V46.626V46.5754V46.5248V46.4741V46.4234V46.3727V46.3219V46.2711V46.2203V46.1694V46.1186V46.0677V46.0168V45.9658V45.9149V45.8639V45.8129V45.7618V45.7108V45.6598V45.6087V45.5576V45.5065V45.4554V45.4043V45.3532V45.3021V45.2509V45.1998V45.1486V45.0975V45.0464V44.9952V44.9441V44.8929V44.8418V44.7906V44.7395V44.6884V44.6372V44.5861V44.535V44.4839V44.4329V44.3818V44.3307V44.2797V44.2287V44.1777V44.1267V44.0757V44.0248V43.9739V43.923V43.8721V43.8213V43.7704V43.7196V43.6689V43.6182V43.5675V43.5168V43.4662V43.4156V43.365V43.3145V43.264V43.2135V43.1631V43.1128V43.0624V43.0121V42.9619V42.9117V42.8616V42.8115V42.7615V42.7115V42.6615V42.6116V42.5618V42.512V42.4623V42.4126V42.363V42.3135V42.264V42.2146V42.1652V42.116V42.0667V42.0176V41.9685V41.9195V41.8705V41.8216V41.7728V41.7241V41.6754V41.6268V41.5783V41.5299V41.4816V41.4333V41.3851V41.337V41.289V41.2411V41.1932V41.1455V41.0978V41.0502V41.0027V40.9553V40.908V40.8608V40.8137V40.7667V40.7197V40.6729V40.6262V40.5796V40.5331V40.4866V40.4403V40.3941V40.348V40.302V40.2562V40.2104V40.1647V40.1192V40.0738V40.0284V39.9832V39.9382V39.8932V39.8484V39.8036V39.759V39.7145V39.6702V39.626V39.5818V39.5379V39.494V39.4503V39.4067V39.3633V39.3199V39.2767V39.2337V39.1908V39.148V39.1054V39.0629V39.0205V38.9783V38.9362V38.8943V38.8525V38.8109V38.7694V38.7281V38.6869V38.6458V38.6049V38.5642V38.5236V38.4832V38.443V38.4029V38.3629V38.3231V38.2835V38.2441V38.2048V38.1656V38.1267V38.0879V38.0493V38.0108V37.9725V37.9344V37.8965V37.8587V37.8211V37.7837V37.7465V37.7094V37.6725V37.6358V37.5993V37.563V37.5268V37.4909V37.4551V37.4195V37.3841V37.3489V37.3139V37.2791V37.2445V37.21V37.1758V37.1418V37.1079V37.0743V37.0409V37.0076V36.9746V36.9418V36.9091V36.8767V36.8445V36.8125V36.7807V36.7491V36.7178V36.6866V36.6557V36.6249V36.5944V36.5641V36.5341V36.5042V36.4746V36.4452V36.416V36.387V36.3583V36.3298V36.3015V36.2735V36.2457V36.2181V36.1907V36.1636V36.1367V36.1101V36.0836V36.0575V36.0315V36.0058V35.9804V35.9552V35.9302V35.9055V35.881V35.8568V35.8328V35.8091V35.7856V35.7624V35.7394V35.7167V35.6942V35.672V35.6501V35.6284V35.607V35.5858V35.5649V35.5443V35.5239V35.5038V35.484V35.4644V35.4451V35.426V35.4073V35.3888V35.3706V35.3526V35.335V35.3176V35.3005V35.2836V35.2671V35.2508V35.2348V35.2191V35.2037V35.1886V35.1738V35.1592V35.145V35.131V35.1173V35.1039C62.2 28.3765 56.7274 22.9039 50 22.9039C43.2726 22.9039 37.8 28.3765 37.8 35.1039V43.8539C37.8 44.5948 37.1993 45.1956 36.4583 45.1956C35.7174 45.1956 35.1167 44.5948 35.1167 43.8539V39.0623ZM63.0236 90.9941L63.0803 91.1952L63.2868 91.2272C66.6286 91.7443 70.1685 92.5058 73.7318 93.6145L73.8283 93.3041L73.7318 93.6145C74.4393 93.8345 74.8345 94.5865 74.6144 95.2941L74.6144 95.2942C74.3946 96.0017 73.6422 96.397 72.9351 96.1766L72.9349 96.1765C58.7647 91.7682 40.9484 91.8573 27.0653 96.1765C26.3581 96.3966 25.6059 96.0019 25.3857 95.2941L25.0754 95.3906L25.3857 95.294C25.1656 94.5865 25.5606 93.8347 26.2682 93.6145C28.9253 92.7878 32.4936 91.8756 36.8577 91.2052L37.0666 91.1731L37.122 90.9691L39.0499 83.8661L38.7363 83.781L39.0499 83.8661C39.2439 83.1511 39.9814 82.7288 40.6961 82.9228C41.4112 83.1168 41.8335 83.8539 41.6395 84.569L40.0759 90.3292L39.951 90.7893L40.425 90.7374C46.7751 90.0421 53.3363 90.0498 59.7037 90.753L60.1829 90.8059L60.0522 90.3419L58.4295 84.5812C58.2286 83.8681 58.6438 83.127 59.3571 82.9261L59.3571 82.9261C60.069 82.7254 60.8113 83.1406 61.0122 83.8537L63.0236 90.9941ZM43.8667 41.9789V40.3123C43.8667 39.5712 44.4674 38.9706 45.2083 38.9706C45.9493 38.9706 46.55 39.5713 46.55 40.3123V41.9789C46.55 42.7198 45.9493 43.3206 45.2083 43.3206C44.4674 43.3206 43.8667 42.7198 43.8667 41.9789ZM56.1333 40.3123V41.9789C56.1333 42.7198 55.5326 43.3206 54.7917 43.3206C54.0507 43.3206 53.45 42.7198 53.45 41.9789V40.3123C53.45 39.5713 54.0507 38.9706 54.7917 38.9706C55.5326 38.9706 56.1333 39.5713 56.1333 40.3123ZM6.66667 3.76226H93.3333C96.8299 3.76226 99.675 6.60737 99.675 10.1039V72.8123C99.675 76.3088 96.8299 79.1539 93.3333 79.1539H69.375C68.6341 79.1539 68.0333 78.5532 68.0333 77.8123C68.0333 77.0713 68.6341 76.4706 69.375 76.4706H93.3333C95.3507 76.4706 96.9917 74.8297 96.9917 72.8123V10.1039C96.9917 8.08651 95.3507 6.44559 93.3333 6.44559H6.66667C4.64926 6.44559 3.00833 8.08651 3.00833 10.1039V72.8123C3.00833 74.8297 4.64926 76.4706 6.66667 76.4706H57.9167C58.6576 76.4706 59.2583 77.0713 59.2583 77.8123C59.2583 78.5532 58.6576 79.1539 57.9167 79.1539H6.66667C3.17012 79.1539 0.325 76.3088 0.325 72.8123V10.1039C0.325 6.60737 3.17012 3.76226 6.66667 3.76226Z" fill="#0F0F0F" stroke="#FFFDFC" stroke-width="0.65"></path></g><defs><clipPath id="clip0_1777_1823"><rect width="100" height="100" fill="white"></rect></clipPath></defs></svg>