<svg xmlns="http://www.w3.org/2000/svg" width="48" height="48" viewBox="0 0 48 48" fill="none"><rect x="0.5" y="0.5" width="47" height="47" rx="23.5" stroke="white" stroke-opacity="0.08"></rect><g clip-path="url(#clip0_1063_1089)"><path d="M30.654 17.8967C29.4303 17.3353 28.118 16.9216 26.7459 16.6846C26.721 16.68 26.696 16.6915 26.6831 16.7143C26.5143 17.0145 26.3274 17.4061 26.1965 17.7139C24.7208 17.4929 23.2526 17.4929 21.8071 17.7139C21.6761 17.3992 21.4824 17.0145 21.3129 16.7143C21.3 16.6922 21.275 16.6808 21.2501 16.6846C19.8788 16.9208 18.5665 17.3345 17.342 17.8967C17.3313 17.9013 17.3223 17.9089 17.3162 17.9188C14.8271 21.6375 14.1452 25.2648 14.4797 28.8471C14.4812 28.8646 14.4911 28.8814 14.5047 28.892C16.1469 30.0981 17.7378 30.8302 19.299 31.3156C19.324 31.3232 19.3505 31.3141 19.3664 31.2935C19.7357 30.7891 20.0649 30.2573 20.3471 29.6981C20.3638 29.6654 20.3479 29.6265 20.3138 29.6135C19.7916 29.4155 19.2944 29.1739 18.8161 28.8997C18.7783 28.8776 18.7752 28.8235 18.8101 28.7976C18.9107 28.7222 19.0114 28.6437 19.1075 28.5644C19.1249 28.55 19.1492 28.5469 19.1696 28.556C22.3118 29.9907 25.7136 29.9907 28.8187 28.556C28.8392 28.5461 28.8634 28.5492 28.8815 28.5637C28.9777 28.6429 29.0783 28.7221 29.1797 28.7975C29.2145 28.8235 29.2122 28.8776 29.1744 28.8997C28.6961 29.1793 28.1989 29.4154 27.676 29.6128C27.6419 29.6257 27.6268 29.6653 27.6435 29.6981C27.9318 30.2565 28.261 30.7883 28.6235 31.2927C28.6386 31.314 28.6659 31.3232 28.6908 31.3155C30.2597 30.8302 31.8505 30.098 33.4927 28.892C33.5071 28.8814 33.5162 28.8653 33.5177 28.8478C33.918 24.7063 32.8472 21.1087 30.6789 17.9195C30.6737 17.9089 30.6646 17.9013 30.654 17.8967ZM20.8164 26.6659C19.8704 26.6659 19.0909 25.7974 19.0909 24.7307C19.0909 23.6641 19.8553 22.7956 20.8164 22.7956C21.7851 22.7956 22.5571 23.6717 22.5419 24.7307C22.5419 25.7974 21.7775 26.6659 20.8164 26.6659ZM27.1962 26.6659C26.2502 26.6659 25.4707 25.7974 25.4707 24.7307C25.4707 23.6641 26.2351 22.7956 27.1962 22.7956C28.1649 22.7956 28.9368 23.6717 28.9217 24.7307C28.9217 25.7974 28.1649 26.6659 27.1962 26.6659Z" fill="white"></path></g><defs><clipPath id="clip0_1063_1089"><rect width="19.2" height="19.2" fill="white" transform="translate(14.4004 14.4004)"></rect></clipPath></defs></svg>