<svg xmlns="http://www.w3.org/2000/svg" width="20" height="20" viewBox="0 0 20 20" fill="none"><path d="M16.9309 3.6426C15.6562 3.05772 14.2892 2.62678 12.86 2.37994C12.8339 2.37518 12.8079 2.38709 12.7945 2.41088C12.6187 2.72357 12.424 3.13147 12.2876 3.45209C10.7504 3.22193 9.22101 3.22193 7.7153 3.45209C7.5789 3.12436 7.3771 2.72357 7.2005 2.41088C7.1871 2.38787 7.16108 2.37596 7.13507 2.37994C5.70663 2.62596 4.33968 3.0569 3.06413 3.6426C3.05308 3.64736 3.04362 3.65529 3.03733 3.66561C0.444522 7.53924 -0.265791 11.3177 0.0826466 15.0492C0.0842091 15.0675 0.0944826 15.0849 0.108662 15.096C1.81933 16.3523 3.47644 17.115 5.10273 17.6205C5.12874 17.6285 5.15632 17.619 5.17288 17.5975C5.55757 17.0722 5.9005 16.5182 6.19452 15.9357C6.21187 15.9016 6.1953 15.8611 6.15983 15.8476C5.61589 15.6413 5.09796 15.3897 4.59972 15.104C4.5603 15.081 4.55714 15.0246 4.59343 14.9976C4.69827 14.9191 4.80315 14.8373 4.90327 14.7548C4.9214 14.7397 4.94663 14.7365 4.96792 14.746C8.24105 16.2404 11.7846 16.2404 15.0191 14.746C15.0404 14.7357 15.0656 14.7389 15.0845 14.754C15.1847 14.8365 15.2895 14.919 15.3951 14.9976C15.4314 15.0246 15.429 15.081 15.3896 15.104C14.8914 15.3952 14.3735 15.6412 13.8287 15.8468C13.7933 15.8603 13.7775 15.9015 13.7949 15.9356C14.0952 16.5174 14.4382 17.0713 14.8157 17.5967C14.8315 17.6189 14.8599 17.6285 14.8859 17.6205C16.5201 17.115 18.1772 16.3523 19.8878 15.096C19.9028 15.0849 19.9123 15.0682 19.9139 15.05C20.3309 10.7359 19.2154 6.98842 16.9568 3.66635C16.9514 3.65529 16.9419 3.64736 16.9309 3.6426ZM6.68339 12.7771C5.69796 12.7771 4.88597 11.8724 4.88597 10.7613C4.88597 9.65022 5.68218 8.74553 6.68339 8.74553C7.69241 8.74553 8.49655 9.65818 8.48077 10.7613C8.48077 11.8724 7.68452 12.7771 6.68339 12.7771ZM13.329 12.7771C12.3436 12.7771 11.5316 11.8724 11.5316 10.7613C11.5316 9.65022 12.3278 8.74553 13.329 8.74553C14.338 8.74553 15.1421 9.65818 15.1264 10.7613C15.1264 11.8724 14.3381 12.7771 13.329 12.7771Z" fill="#0F0F0F"></path></svg>