<svg xmlns="http://www.w3.org/2000/svg" width="100" height="100" viewBox="0 0 100 100" fill="none"><g clip-path="url(#clip0_1777_1786)"><path d="M95.8488 81.7181V81.9681H96.0988H98.5774C99.2236 81.9681 99.7506 82.4881 99.7494 83.1585V83.1589C99.7494 83.8259 99.2216 84.3497 98.576 84.3497H76.3072H76.0572V84.5997V92.7779C76.0572 93.4467 75.5318 93.9687 74.8664 93.9687H7.20032C6.55523 93.9687 6.03125 93.4497 6.03125 92.7779V1.40218C6.03125 0.777861 6.55125 0.250505 7.20032 0.250505H57.107V0.250889L57.1192 0.250202L57.1196 0.250183L57.1201 0.250159L57.1204 0.250142L57.1206 0.250133L57.1206 0.250154L57.1208 0.250122L57.1318 0.250001C57.1429 0.249981 57.1607 0.250271 57.184 0.251709C57.231 0.254598 57.299 0.262046 57.3784 0.280357C57.5378 0.317086 57.7345 0.395342 57.9042 0.559862C57.9045 0.560222 57.9049 0.560581 57.9053 0.560942L75.7101 18.36L75.7208 18.3707L75.73 18.3779L75.7303 18.3781L75.7304 18.3782L75.7312 18.3788L75.7319 18.3794L75.735 18.3823C75.7407 18.3874 75.7507 18.397 75.7639 18.4112C75.7903 18.4396 75.8289 18.4862 75.8697 18.5528C75.95 18.6838 76.0415 18.8962 76.0615 19.2071V33.0175V33.1623L76.1871 33.2343C76.4533 33.387 76.7265 33.622 76.9692 33.9017L77.0978 34.0499L77.2724 33.9602L85.2621 29.8508L85.4394 29.7596L85.3899 29.5664C85.3089 29.2503 85.2673 28.8888 85.2673 28.5254C85.2673 25.739 87.5725 23.4325 90.3819 23.4325C93.1911 23.4325 95.4922 25.7388 95.4922 28.5254C95.4922 31.3524 93.1899 33.6575 90.3819 33.6575C88.9068 33.6575 87.5747 33.0132 86.6419 32.0015L86.5129 31.8616L86.3437 31.9486L78.3583 36.058L78.1832 36.1481L78.2298 36.3395C78.3073 36.6574 78.3489 37.0201 78.3489 37.3834C78.3489 40.1696 76.0438 42.4719 73.2386 42.4719C72.4534 42.4719 71.7266 42.2718 71.0561 41.9462L70.8833 41.8623L70.7577 42.0077L60.3546 54.0473L60.2294 54.1922L60.3367 54.3508C60.8827 55.1581 61.2055 56.1244 61.2055 57.175C61.2055 60.0068 58.9201 62.3114 56.0909 62.3114C54.4434 62.3114 52.9679 61.4615 52.0319 60.2435L51.9177 60.0949L51.743 60.1628L45.3028 62.6676L45.1435 62.7296V62.9006V81.7181V81.9681H45.3935H50.3928H50.6428V81.7181V69.8481C50.6428 69.1902 51.1572 68.7007 51.8119 68.7007H60.3959C61.0468 68.7007 61.565 69.1906 61.565 69.8481V81.7181V81.9681H61.815H67.5347H67.7847V81.7181V49.6752C67.7847 49.0524 68.3076 48.5279 68.9538 48.5279H77.5161C78.1711 48.5279 78.7069 49.0568 78.7069 49.6752V81.7196V81.9696H78.9569H84.6549H84.9049V81.7196V41.326C84.9049 40.6572 85.4303 40.1352 86.0957 40.1352H94.658C95.308 40.1352 95.8488 40.6592 95.8488 41.326V81.7181ZM70.3714 50.866H70.1214V51.116V81.7181V81.9681H70.3714H76.0955H76.3455V81.7181V51.116V50.866H76.0955H70.3714ZM53.2498 71.0389H52.9998V71.2889V81.7181V81.9681H53.2498H58.9522H59.2022V81.7181V71.2889V71.0389H58.9522H53.2498ZM58.8427 57.1753V57.175C58.8427 55.6841 57.6301 54.4246 56.088 54.4246C54.5917 54.4246 53.3593 55.686 53.3593 57.175C53.3593 58.715 54.5963 59.9254 56.088 59.9254C57.6274 59.9254 58.8411 58.7151 58.8427 57.1753ZM75.9861 37.3851V37.3848C75.9861 35.8434 74.7476 34.6344 73.2357 34.6344C71.7181 34.6344 70.4809 35.8432 70.4809 37.3848C70.4809 38.8772 71.7166 40.1352 73.2357 40.1352C74.751 40.1352 75.9845 38.8751 75.9861 37.3851ZM71.4339 18.0085H72.0391L71.6104 17.5814L58.6807 4.69955L58.2543 4.27468V4.87666V17.7585V18.0085H58.5043H71.4339ZM73.4429 91.6291H73.6929V91.3791V84.5997V84.3497H73.4429H43.9657C43.3007 84.3497 42.7749 83.8239 42.7749 83.1589V28.5269C42.7749 27.9055 43.2962 27.3752 43.9657 27.3752C44.6158 27.3752 45.1391 27.9035 45.1391 28.5269V59.8493V60.2161L45.4805 60.082L50.8843 57.96L51.0429 57.8977V57.7273C51.0429 57.6281 51.0307 57.5209 51.0204 57.4307L51.0195 57.4235C51.0083 57.3246 50.9994 57.2443 50.9994 57.1764C50.9994 54.3889 53.284 52.0879 56.088 52.0879C56.8739 52.0879 57.6039 52.2884 58.2822 52.5755L58.4495 52.6463L58.5685 52.509L68.9716 40.5129L69.0973 40.3679L68.9898 40.209C68.4438 39.4017 68.121 38.4355 68.121 37.3848C68.121 34.5539 70.4273 32.2528 73.2357 32.2528C73.2389 32.2528 73.2464 32.2533 73.2795 32.2627L73.2856 32.2645C73.2994 32.2685 73.3209 32.2747 73.3417 32.2795C73.3674 32.2854 73.4032 32.2919 73.4444 32.2919H73.6944V32.0419V20.6401V20.3901H73.4444H57.0867C56.4174 20.3901 55.8959 19.8686 55.8959 19.1993V2.84155V2.59155H55.6459H8.62084H8.37084V2.84155V91.3791V91.6291H8.62084H73.4429ZM87.2691 81.7181V81.9681H87.5191H93.2172H93.4672V81.7181V42.7234V42.4734H93.2172H87.5191H87.2691V42.7234V81.7181ZM93.1294 28.5269C93.1294 27.0302 91.8937 25.7765 90.379 25.7765C88.8596 25.7765 87.6286 27.032 87.6286 28.5269C87.6286 30.0634 88.8622 31.2773 90.379 31.2773C91.8928 31.2773 93.1294 30.0636 93.1294 28.5269Z" fill="#0F0F0F" stroke="#FFFDFC" stroke-width="0.5"></path><path d="M16.4679 27.375H35.1506C35.8047 27.375 36.3414 27.9073 36.3414 28.5267C36.3414 29.1897 35.8002 29.7175 35.1506 29.7175H16.4679C15.8272 29.7175 15.2988 29.1941 15.2988 28.5267C15.2988 27.9029 15.8227 27.375 16.4679 27.375Z" fill="#0F0F0F" stroke="#FFFDFC" stroke-width="0.5"></path><path d="M16.4679 37.335H26.4536C27.0982 37.335 27.6444 37.9014 27.6444 38.5258C27.6444 39.1926 27.1036 39.7166 26.4536 39.7166H16.4679C15.8267 39.7166 15.2988 39.1971 15.2988 38.5258C15.2988 37.8969 15.832 37.335 16.4679 37.335Z" fill="#0F0F0F" stroke="#FFFDFC" stroke-width="0.5"></path><path d="M32.3133 49.7215H16.589C15.9487 49.7215 15.4199 49.1639 15.4199 48.5307C15.4199 47.8974 15.9487 47.3398 16.589 47.3398H32.3133C32.9535 47.3398 33.4824 47.8974 33.4824 48.5307C33.4824 49.1639 32.9535 49.7215 32.3133 49.7215Z" fill="#0F0F0F" stroke="#FFFDFC" stroke-width="0.5"></path><path d="M16.589 57.3428H35.1514C35.8013 57.3428 36.3422 57.868 36.3422 58.5336C36.3422 59.1966 35.801 59.7244 35.1514 59.7244H16.589C15.9444 59.7244 15.4199 59.2015 15.4199 58.5336C15.4199 57.8618 15.9439 57.3428 16.589 57.3428Z" fill="#0F0F0F" stroke="#FFFDFC" stroke-width="0.5"></path><path d="M16.589 67.3425H29.4534C30.0941 67.3425 30.6225 67.8659 30.6225 68.5333C30.6225 69.1671 30.0888 69.7285 29.4534 69.7285H16.589C15.9497 69.7285 15.4199 69.1676 15.4199 68.5333C15.4199 67.8654 15.9444 67.3425 16.589 67.3425Z" fill="#0F0F0F" stroke="#FFFDFC" stroke-width="0.5"></path><path d="M66.676 99.7504H7.4012C3.45748 99.7504 0.25 96.5415 0.25 92.5992V7.23174C0.25 6.56968 0.787452 6.03223 1.44951 6.03223C2.11157 6.03223 2.64902 6.56968 2.64902 7.23174V92.5992C2.64902 95.2204 4.78162 97.3514 7.4012 97.3514H66.6775C67.3395 97.3514 67.877 97.8888 67.877 98.5509C67.877 99.2128 67.3397 99.7504 66.676 99.7504Z" fill="#0F0F0F" stroke="#FFFDFC" stroke-width="0.5"></path></g><defs><clipPath id="clip0_1777_1786"><rect width="100" height="100" fill="white"></rect></clipPath></defs></svg>