<svg xmlns="http://www.w3.org/2000/svg" width="32" height="32" viewBox="0 0 32 32" fill="none"><rect x="0.5" y="0.5" width="31" height="31" rx="15.5" stroke="white" stroke-opacity="0.12"></rect><g clip-path="url(#clip0_897_798)"><path d="M19.1994 9.60156H12.7995C11.0397 9.60156 9.59961 11.0417 9.59961 12.8015V19.2016C9.59961 20.961 11.0397 22.4016 12.7995 22.4016H19.1994C20.9592 22.4016 22.3993 20.961 22.3993 19.2016V12.8015C22.3993 11.0417 20.9592 9.60156 19.1994 9.60156ZM21.3326 19.2016C21.3326 20.3776 20.376 21.3349 19.1994 21.3349H12.7995C11.6234 21.3349 10.6663 20.3776 10.6663 19.2016V12.8015C10.6663 11.6252 11.6234 10.6683 12.7995 10.6683H19.1994C20.376 10.6683 21.3326 11.6252 21.3326 12.8015V19.2016Z" fill="white"></path><path d="M19.466 13.3343C19.9078 13.3343 20.266 12.9762 20.266 12.5344C20.266 12.0925 19.9078 11.7344 19.466 11.7344C19.0242 11.7344 18.666 12.0925 18.666 12.5344C18.666 12.9762 19.0242 13.3343 19.466 13.3343Z" fill="white"></path><path d="M15.9997 12.8008C14.2321 12.8008 12.7998 14.2332 12.7998 16.0007C12.7998 17.7675 14.2321 19.2009 15.9997 19.2009C17.7669 19.2009 19.1996 17.7675 19.1996 16.0007C19.1996 14.2332 17.7669 12.8008 15.9997 12.8008ZM15.9997 18.1342C14.8217 18.1342 13.8665 17.1791 13.8665 16.0007C13.8665 14.8223 14.8217 13.8675 15.9997 13.8675C17.1778 13.8675 18.133 14.8223 18.133 16.0007C18.133 17.1791 17.1778 18.1342 15.9997 18.1342Z" fill="white"></path></g><defs><clipPath id="clip0_897_798"><rect width="12.8" height="12.8" fill="white" transform="translate(9.59961 9.60156)"></rect></clipPath></defs></svg>