<svg xmlns="http://www.w3.org/2000/svg" width="48" height="48" viewBox="0 0 48 48" fill="none"><rect x="0.5" y="0.5" width="47" height="47" rx="23.5" stroke="white" stroke-opacity="0.08"></rect><g clip-path="url(#clip0_1063_1073)"><path d="M28.8 14.4004H19.2003C16.5606 14.4004 14.4004 16.5606 14.4004 19.2003V28.8005C14.4004 31.4395 16.5606 33.6004 19.2003 33.6004H28.8C31.4397 33.6004 33.5999 31.4395 33.5999 28.8005V19.2003C33.5999 16.5606 31.4397 14.4004 28.8 14.4004ZM31.9999 28.8005C31.9999 30.5645 30.565 32.0004 28.8 32.0004H19.2003C17.4361 32.0004 16.0004 30.5645 16.0004 28.8005V19.2003C16.0004 17.4358 17.4361 16.0004 19.2003 16.0004H28.8C30.565 16.0004 31.9999 17.4358 31.9999 19.2003V28.8005Z" fill="white"></path><path d="M29.2 19.9996C29.8627 19.9996 30.3999 19.4623 30.3999 18.7996C30.3999 18.1369 29.8627 17.5996 29.2 17.5996C28.5372 17.5996 28 18.1369 28 18.7996C28 19.4623 28.5372 19.9996 29.2 19.9996Z" fill="white"></path><path d="M24.0001 19.2012C21.3486 19.2012 19.2002 21.3498 19.2002 24.0011C19.2002 26.6513 21.3486 28.8014 24.0001 28.8014C26.6508 28.8014 28.8 26.6513 28.8 24.0011C28.8 21.3498 26.6508 19.2012 24.0001 19.2012ZM24.0001 27.2014C22.233 27.2014 20.8002 25.7686 20.8002 24.0011C20.8002 22.2335 22.233 20.8012 24.0001 20.8012C25.7672 20.8012 27.1999 22.2335 27.1999 24.0011C27.1999 25.7686 25.7672 27.2014 24.0001 27.2014Z" fill="white"></path></g><defs><clipPath id="clip0_1063_1073"><rect width="19.2" height="19.2" fill="white" transform="translate(14.4004 14.4004)"></rect></clipPath></defs></svg>