<svg xmlns="http://www.w3.org/2000/svg" width="99" height="99" viewBox="0 0 99 99" fill="none"><path d="M92.91 43.72C92.3673 34.658 89.1838 25.953 83.7522 18.6789C78.3206 11.4047 70.8786 5.87959 62.344 2.78501C53.8095 -0.309577 44.5557 -0.838257 35.7243 1.26418C26.8928 3.36662 18.8699 8.00821 12.6452 14.6164C6.42051 21.2246 2.2663 29.5104 0.695006 38.4516C-0.876293 47.3929 0.204046 56.5985 3.80276 64.9331C7.40148 73.2676 13.3612 80.3664 20.9467 85.3539C28.5322 90.3414 37.4117 92.9994 46.49 93H46.55C55.8245 93.0118 64.8864 90.2235 72.55 85L71 83.35C67.0841 85.9667 62.7722 87.9352 58.23 89.18H58.04L57.62 88.41L57.76 88.28C59.7117 86.5056 61.4289 84.4893 62.87 82.28C61.8347 82.5231 60.7863 82.7067 59.73 82.83C56.34 87.35 52.37 90.04 48.25 90.61L47.68 90.69V81.44C46.92 81.17 46.17 80.86 45.44 80.52V90.7L44.87 90.62C41.25 90.12 37.7 87.96 34.61 84.38C31.2826 80.275 28.7586 75.5797 27.17 70.54L26.93 70L27.52 69.92C29.27 69.66 31.2 69.43 33.41 69.22C33.02 68.52 32.67 67.81 32.35 67.08C30.14 67.3 28.35 67.52 26.7 67.77L26.26 67.84L26.14 67.41C24.4384 61.1213 23.5313 54.6442 23.44 48.13V47.62H31.84C32.1122 46.8582 32.4226 46.1106 32.77 45.38H23.43V44.88C23.5196 38.3584 24.4301 31.8741 26.14 25.58L26.26 25.15L26.7 25.22C32.7236 26.105 38.8019 26.5662 44.89 26.6H45.39V32.71C46.12 32.37 46.87 32.06 47.63 31.78V26.63H48.13C54.2184 26.5758 60.296 26.1047 66.32 25.22L66.76 25.15L66.87 25.58C67.5377 28.0231 68.0751 30.4999 68.48 33C69.3448 33.428 70.186 33.902 71 34.42C70.5791 31.3403 69.9612 28.2907 69.15 25.29L69 24.76L69.54 24.67C73.9231 23.9052 78.2299 22.7541 82.41 21.23L82.77 21.1L82.99 21.41C87.7573 28.3169 90.4498 36.443 90.75 44.83V45.35H80.56C80.89 46.08 81.2 46.83 81.47 47.59H90.76V48.11C90.4647 56.2479 87.9169 64.1442 83.4 70.92L85.07 72.46C90.7487 63.9918 93.502 53.8988 92.91 43.72ZM24.67 70.34L24.8 70.75C27.3 78.36 30.93 84.44 35.3 88.32L35.44 88.45L35.02 89.23H34.83C25.8555 86.7685 17.8891 81.5322 12.07 74.27L11.62 73.71L12.3 73.48C16.1908 72.1365 20.1838 71.1098 24.24 70.41L24.67 70.34ZM23.88 67.66L24.02 68.18L23.48 68.28C19.0969 69.0448 14.7901 70.196 10.61 71.72L10.25 71.85L10 71.53C5.24341 64.6199 2.56138 56.4939 2.27001 48.11V47.59H21.19V48.09C21.2739 54.6995 22.1775 61.273 23.88 67.66ZM23.88 25.27C22.18 31.6641 21.2798 38.2443 21.2 44.86V45.35H2.25001V44.83C2.54151 36.4399 5.23098 28.309 10 21.4L10.22 21.08L10.58 21.21C14.7616 22.7294 19.068 23.8805 23.45 24.65L23.98 24.75L23.88 25.27ZM24.8 22.18L24.67 22.59L24.24 22.51C20.1908 21.8078 16.2047 20.7811 12.32 19.44L11.64 19.21L12.09 18.66C17.9165 11.4298 25.8733 6.21969 34.83 3.77001H35.02L35.44 4.54001L35.29 4.68001C30.93 8.51001 27.3 14.58 24.8 22.18ZM45.39 24.37H44.88C39.0725 24.304 33.276 23.8463 27.53 23H26.94L27.13 22.43C28.7123 17.3785 31.2367 12.6723 34.57 8.56001C37.66 5.00001 41.2 2.82001 44.82 2.32001L45.39 2.25001V24.37ZM65.49 23.06C59.7423 23.8842 53.9462 24.3252 48.14 24.38H47.63V2.25001L48.2 2.32001C51.82 2.83001 55.37 4.98001 58.46 8.57001C61.7874 12.675 64.3114 17.3703 65.9 22.41L66.09 22.98L65.49 23.06ZM80.72 19.46C76.8321 20.8128 72.8383 21.8397 68.78 22.53L68.36 22.61L68.22 22.2C65.72 14.59 62.09 8.51001 57.72 4.63001L57.57 4.49001L58 3.72001H58.19C67.1821 6.17327 75.1669 11.4101 81 18.68L81.44 19.23L80.72 19.46Z" fill="#0F0F0F"></path><path d="M56.9902 66.9902H54.9902V69.9902H56.9902V66.9902Z" fill="#0F0F0F"></path><path d="M98.8498 92.3101C98.6009 91.2391 98.0366 90.2673 97.2298 89.5201L74.5798 68.5201L74.8098 68.1701C77.3145 64.2838 78.5421 59.7119 78.3209 55.0937C78.0998 50.4755 76.441 46.0418 73.5764 42.4126C70.7118 38.7834 66.7847 36.1401 62.3441 34.8523C57.9036 33.5645 53.1716 33.6966 48.8098 35.2301C43.8719 36.9695 39.7085 40.3995 37.0562 44.9132C34.4039 49.4269 33.4337 54.7333 34.3172 59.8935C35.2008 65.0537 37.8812 69.735 41.8842 73.1091C45.8871 76.4832 50.9545 78.3327 56.1898 78.3301H56.4198C60.6046 78.2924 64.6929 77.0684 68.2098 74.8001L68.5698 74.5701L68.8498 74.8801L89.5398 97.2601C90.031 97.8001 90.628 98.2333 91.2938 98.5327C91.9596 98.832 92.6799 98.9911 93.4098 99.0001H93.5298C94.6286 98.9999 95.7018 98.6687 96.6097 98.0498C97.5176 97.4308 98.2181 96.5528 98.6198 95.5301C99.0218 94.5051 99.102 93.3819 98.8498 92.3101ZM60.0698 75.7401C55.3287 76.6995 50.4007 75.9214 46.1858 73.5479C41.971 71.1743 38.7507 67.3637 37.1131 62.8121C35.4755 58.2606 35.5298 53.2718 37.2663 48.757C39.0028 44.2422 42.3054 40.5027 46.571 38.2216C50.8366 35.9405 55.7804 35.27 60.4995 36.3326C65.2185 37.3952 69.3979 40.1199 72.2741 44.0091C75.1504 47.8983 76.5315 52.6924 76.1654 57.5157C75.7992 62.339 73.7102 66.8697 70.2798 70.2801C67.4954 73.0753 63.9405 74.9763 60.0698 75.7401ZM96.5298 94.7401C96.3612 95.1399 96.1167 95.5033 95.8098 95.8101C95.5215 96.1198 95.1736 96.368 94.7869 96.5399C94.4003 96.7117 93.9829 96.8036 93.5598 96.8101H93.4498C93.0178 96.8079 92.5915 96.7124 92.1998 96.5301C91.8187 96.3467 91.4786 96.0882 91.1998 95.7701L70.3398 73.2301L70.8698 72.7701C71.2198 72.4601 71.5498 72.1801 71.8698 71.8601C72.1898 71.5401 72.4498 71.2501 72.7398 70.8601L73.2298 70.2901L73.6098 70.6401L95.7198 91.1701C96.2014 91.6125 96.5368 92.1911 96.6815 92.8288C96.8262 93.4665 96.7733 94.1332 96.5298 94.7401Z" fill="#0F0F0F"></path><path d="M62 55.0601C60.9188 56.5759 59.3039 57.6262 57.48 58.0001L57.06 58.1101V63.0001H54.86V57.0001C54.8639 56.8543 54.8965 56.7107 54.9559 56.5775C55.0153 56.4444 55.1003 56.3242 55.2062 56.2239C55.3121 56.1236 55.4367 56.0451 55.5729 55.993C55.7091 55.9409 55.8542 55.9161 56 55.9201C56.4041 55.9212 56.807 55.8742 57.2 55.7801C58.0242 55.5863 58.7896 55.1971 59.4318 54.6454C60.074 54.0937 60.5741 53.3956 60.89 52.6101C61.2917 51.6357 61.3995 50.565 61.2 49.5301C60.9857 48.498 60.4829 47.5478 59.75 46.7901C59.0017 46.0371 58.043 45.5281 57 45.3301C56.7428 45.2797 56.482 45.2496 56.22 45.2401C55.4374 45.2024 54.656 45.3355 53.93 45.6301C52.957 46.0435 52.1311 46.7404 51.56 47.6301C51.0702 48.3688 50.7713 49.2175 50.69 50.1001H48.5C48.6252 48.2732 49.4024 46.5521 50.69 45.2501C52.0328 43.8715 53.8587 43.0685 55.7823 43.0107C57.706 42.9528 59.5768 43.6447 61 44.9401C62.3816 46.209 63.2473 47.9424 63.4317 49.8092C63.6162 51.676 63.1065 53.5453 62 55.0601Z" fill="#0F0F0F"></path></svg>