<svg xmlns="http://www.w3.org/2000/svg" width="32" height="32" viewBox="0 0 32 32" fill="none"><rect x="0.5" y="0.5" width="31" height="31" rx="15.5" stroke="white" stroke-opacity="0.12"></rect><path d="M22.3999 22.3965V17.7085C22.3999 15.4045 21.9039 13.6445 19.2159 13.6445C17.9199 13.6445 17.0559 14.3485 16.7039 15.0205H16.6719V13.8525H14.1279V22.3965H16.7839V18.1565C16.7839 17.0365 16.9919 15.9645 18.3679 15.9645C19.7279 15.9645 19.7439 17.2285 19.7439 18.2205V22.3805H22.3999V22.3965Z" fill="white"></path><path d="M9.80762 13.8555H12.4636V22.3995H9.80762V13.8555Z" fill="white"></path><path d="M11.1356 9.59766C10.2876 9.59766 9.59961 10.2857 9.59961 11.1337C9.59961 11.9817 10.2876 12.6857 11.1356 12.6857C11.9836 12.6857 12.6716 11.9817 12.6716 11.1337C12.6716 10.2857 11.9836 9.59766 11.1356 9.59766Z" fill="white"></path></svg>