<svg xmlns="http://www.w3.org/2000/svg" width="20" height="20" viewBox="0 0 20 20" fill="none"><path d="M20.0031 19.9992V12.6742C20.0031 9.07422 19.2281 6.32422 15.0281 6.32422C13.0031 6.32422 11.6531 7.42422 11.1031 8.47422H11.0531V6.64922H7.07812V19.9992H11.2281V13.3742C11.2281 11.6242 11.5531 9.94922 13.7031 9.94922C15.8281 9.94922 15.8531 11.9242 15.8531 13.4742V19.9742H20.0031V19.9992Z" fill="#0F0F0F"></path><path d="M0.328125 6.64844H4.47812V19.9984H0.328125V6.64844Z" fill="#0F0F0F"></path><path d="M2.4 0C1.075 0 0 1.075 0 2.4C0 3.725 1.075 4.825 2.4 4.825C3.725 4.825 4.8 3.725 4.8 2.4C4.8 1.075 3.725 0 2.4 0Z" fill="#0F0F0F"></path></svg>