<svg xmlns="http://www.w3.org/2000/svg" width="48" height="48" viewBox="0 0 48 48" fill="none"><rect x="0.5" y="0.5" width="47" height="47" rx="23.5" stroke="white" stroke-opacity="0.08"></rect><path d="M33.6004 33.6007V26.5687C33.6004 23.1127 32.8564 20.4727 28.8244 20.4727C26.8804 20.4727 25.5844 21.5287 25.0564 22.5367H25.0084V20.7847H21.1924V33.6007H25.1764V27.2407C25.1764 25.5607 25.4884 23.9527 27.5524 23.9527C29.5924 23.9527 29.6164 25.8487 29.6164 27.3367V33.5767H33.6004V33.6007Z" fill="white"></path><path d="M14.7129 20.7852H18.6969V33.6012H14.7129V20.7852Z" fill="white"></path><path d="M16.7044 14.4004C15.4324 14.4004 14.4004 15.4324 14.4004 16.7044C14.4004 17.9764 15.4324 19.0324 16.7044 19.0324C17.9764 19.0324 19.0084 17.9764 19.0084 16.7044C19.0084 15.4324 17.9764 14.4004 16.7044 14.4004Z" fill="white"></path></svg>