<svg xmlns="http://www.w3.org/2000/svg" width="20" height="20" viewBox="0 0 20 20" fill="none"><path d="M14.63 3.55228C13.398 2.33717 11.7536 1.66797 9.99969 1.66797C8.24577 1.66797 6.60138 2.33717 5.36938 3.55228C3.07694 5.81335 2.71806 8.52855 4.30273 11.6224C5.60252 14.16 7.94335 16.4685 9.65259 18.154L9.71965 18.2202C9.79701 18.2965 9.89833 18.3346 9.99969 18.3346C10.101 18.3346 10.2024 18.2965 10.2797 18.2202L10.3469 18.1539C12.0561 16.4684 14.3969 14.1599 15.6966 11.6223C17.2813 8.52848 16.9224 5.81335 14.63 3.55228ZM14.9897 11.27C13.7991 13.5945 11.6479 15.7642 9.99969 17.3915C8.35154 15.7642 6.20026 13.5945 5.00971 11.2701C3.57672 8.47236 3.87755 6.12855 5.92949 4.10472C7.05165 2.99795 8.52567 2.44453 9.99965 2.44453C11.4737 2.44453 12.9477 2.99792 14.0698 4.10472C16.1218 6.12852 16.4227 8.47233 14.9897 11.27ZM9.99965 5.63275C8.39544 5.63275 7.09027 6.92005 7.09027 8.50234C7.09027 10.0846 8.39544 11.3719 9.99965 11.3719C11.6039 11.3719 12.9091 10.0846 12.9091 8.50234C12.9091 6.92005 11.6039 5.63275 9.99965 5.63275ZM9.99965 10.5907C8.83218 10.5907 7.88236 9.65387 7.88236 8.50234C7.88236 7.35081 8.83218 6.414 9.99965 6.414C11.1672 6.414 12.117 7.35081 12.117 8.50234C12.117 9.65387 11.1672 10.5907 9.99965 10.5907Z" fill="white" fill-opacity="0.7"></path></svg>