<svg xmlns="http://www.w3.org/2000/svg" width="36" height="36" viewBox="0 0 36 36" fill="none"><circle cx="18" cy="18" r="17.5" stroke="white" stroke-opacity="0.12"></circle><path d="M22.7847 11.9821C21.5066 10.7039 19.8072 10 17.9996 10C16.1921 10 14.4926 10.7039 13.2145 11.9821C11.9363 13.2603 11.2324 14.9596 11.2324 16.7672C11.2324 20.4238 14.6899 23.4652 16.5473 25.0992C16.8055 25.3262 17.0284 25.5223 17.206 25.6882C17.4285 25.896 17.7141 26 17.9996 26C18.2852 26 18.5707 25.896 18.7932 25.6882C18.9708 25.5223 19.1938 25.3262 19.4519 25.0992C21.3093 23.4652 24.7668 20.4238 24.7668 16.7672C24.7668 14.9596 24.0629 13.2603 22.7847 11.9821ZM18.8328 24.3955C18.569 24.6275 18.3412 24.8279 18.1534 25.0033C18.0672 25.0838 17.932 25.0839 17.8457 25.0033C17.6579 24.8278 17.4301 24.6275 17.1663 24.3954C15.4201 22.8593 12.1696 20 12.1696 16.7672C12.1696 13.5526 14.7849 10.9373 17.9996 10.9373C21.2142 10.9373 23.8295 13.5526 23.8295 16.7672C23.8295 20 20.5791 22.8593 18.8328 24.3955Z" fill="white"></path><path d="M17.9998 13.5312C16.3554 13.5312 15.0176 14.869 15.0176 16.5134C15.0176 18.1579 16.3554 19.4956 17.9998 19.4956C19.6442 19.4956 20.982 18.1579 20.982 16.5134C20.982 14.869 19.6442 13.5312 17.9998 13.5312ZM17.9998 18.5584C16.8722 18.5584 15.9548 17.641 15.9548 16.5134C15.9548 15.3858 16.8722 14.4685 17.9998 14.4685C19.1274 14.4685 20.0447 15.3858 20.0447 16.5134C20.0447 17.641 19.1274 18.5584 17.9998 18.5584Z" fill="white"></path></svg>