<svg xmlns="http://www.w3.org/2000/svg" width="20" height="20" viewBox="0 0 20 20" fill="none"><path d="M14.6329 3.55228C13.4009 2.33717 11.7565 1.66797 10.0026 1.66797C8.24869 1.66797 6.60431 2.33717 5.37231 3.55228C3.07987 5.81335 2.72099 8.52855 4.30566 11.6224C5.60545 14.16 7.94628 16.4685 9.65552 18.154L9.72258 18.2202C9.79994 18.2965 9.90126 18.3346 10.0026 18.3346C10.104 18.3346 10.2054 18.2965 10.2827 18.2202L10.3498 18.1539C12.059 16.4684 14.3998 14.1599 15.6996 11.6223C17.2842 8.52848 16.9253 5.81335 14.6329 3.55228ZM14.9926 11.27C13.802 13.5945 11.6508 15.7642 10.0026 17.3915C8.35447 15.7642 6.20318 13.5945 5.01264 11.2701C3.57965 8.47236 3.88048 6.12855 5.93242 4.10472C7.05458 2.99795 8.5286 2.44453 10.0026 2.44453C11.4766 2.44453 12.9506 2.99792 14.0728 4.10472C16.1247 6.12852 16.4256 8.47233 14.9926 11.27ZM10.0026 5.63275C8.39837 5.63275 7.0932 6.92005 7.0932 8.50234C7.0932 10.0846 8.39837 11.3719 10.0026 11.3719C11.6068 11.3719 12.912 10.0846 12.912 8.50234C12.912 6.92005 11.6069 5.63275 10.0026 5.63275ZM10.0026 10.5907C8.83511 10.5907 7.88529 9.65387 7.88529 8.50234C7.88529 7.35081 8.83511 6.414 10.0026 6.414C11.1701 6.414 12.1199 7.35081 12.1199 8.50234C12.1199 9.65387 11.1701 10.5907 10.0026 10.5907Z" fill="white"></path></svg>