<svg xmlns="http://www.w3.org/2000/svg" width="36" height="36" viewBox="0 0 36 36" fill="none"><circle cx="18" cy="18" r="17.5" stroke="white" stroke-opacity="0.12"></circle><g clip-path="url(#clip0_897_748)"><mask id="mask0_897_748" style="mask-type:luminance" maskUnits="userSpaceOnUse" x="10" y="9" width="17" height="17"><path d="M10 9.99872H26.0013V26H10V9.99872Z" fill="white"></path></mask><g mask="url(#mask0_897_748)"><path d="M10.8865 14.2606C10.6254 14.0866 10.4688 13.7939 10.4688 13.4803V13.4795C10.4688 12.9252 10.9182 12.4758 11.4725 12.4758H24.5287C25.083 12.4758 25.5324 12.9252 25.5324 13.4795V13.48V13.4803C25.5324 13.7939 25.3758 14.0866 25.1146 14.2606C23.8405 15.1102 20.0013 17.6695 18.5577 18.6321C18.2203 18.857 17.7809 18.857 17.4435 18.6321C15.9999 17.6695 12.1607 15.1102 10.8865 14.2606Z" stroke="white" stroke-width="0.937575" stroke-miterlimit="10" stroke-linecap="round" stroke-linejoin="round"></path><path d="M10.4688 13.481V22.5192C10.4688 22.7856 10.5744 23.0409 10.763 23.2292C10.9513 23.4177 11.2066 23.5234 11.473 23.5234H24.5282C24.7945 23.5234 25.0499 23.4177 25.2382 23.2292C25.4267 23.0409 25.5324 22.7856 25.5324 22.5192V13.481" stroke="white" stroke-width="0.937575" stroke-miterlimit="10" stroke-linecap="round" stroke-linejoin="round"></path></g></g><defs><clipPath id="clip0_897_748"><rect width="16.0013" height="16.0013" fill="white" transform="translate(10 10)"></rect></clipPath></defs></svg>