<svg xmlns="http://www.w3.org/2000/svg" width="24" height="24" viewBox="0 0 24 24" fill="none"><path d="M19.5789 2H4.42105C1.52842 2 0 3.58812 0 6.59375V18.4062C0 21.4119 1.52842 23 4.42105 23H19.5789C22.4716 23 24 21.4119 24 18.4062V6.59375C24 3.58812 22.4716 2 19.5789 2ZM22.7368 18.4062C22.7368 20.6756 21.7629 21.6875 19.5789 21.6875H4.42105C2.23705 21.6875 1.26316 20.6756 1.26316 18.4062V6.59375C1.26316 4.32444 2.23705 3.3125 4.42105 3.3125H19.5789C21.7629 3.3125 22.7368 4.32444 22.7368 6.59375V18.4062ZM19.4578 7.52037C19.6624 7.81305 19.6004 8.22388 19.3187 8.43651L13.1142 13.1247C12.7807 13.3767 12.3903 13.5028 12 13.5028C11.6084 13.5028 11.2193 13.3767 10.8858 13.1247L4.68133 8.43651C4.39838 8.22388 4.33762 7.81305 4.54225 7.52037C4.74688 7.22637 5.14351 7.16337 5.42393 7.37599L11.6287 12.0642C11.851 12.2309 12.149 12.2322 12.3713 12.0642L18.5761 7.37599C18.8578 7.16337 19.2531 7.22637 19.4578 7.52037Z" fill="white"></path></svg>