<svg xmlns="http://www.w3.org/2000/svg" width="100" height="100" viewBox="0 0 100 100" fill="none"><g clip-path="url(#clip0_1777_1808)"><mask id="path-1-inside-1_1777_1808" fill="white"><path d="M82.328 57.7972C83.1024 57.8024 83.8522 57.5255 84.4374 57.0183C85.0225 56.5111 85.403 55.8082 85.5078 55.041C85.9756 51.7023 85.9756 48.3147 85.5078 44.976C85.4048 44.2073 85.0251 43.5026 84.4398 42.9937C83.8544 42.4849 83.1036 42.2069 82.328 42.2118H78.8075C78.1397 39.7429 77.1549 37.3709 75.8778 35.155L78.368 32.6609C78.9198 32.1158 79.2541 31.3883 79.3083 30.6146C79.3625 29.8408 79.1328 29.0738 78.6623 28.4571C76.6341 25.7637 74.2382 23.3679 71.5446 21.3398C70.9283 20.8665 70.1603 20.6346 69.385 20.6877C68.6097 20.7408 67.8805 21.0752 67.3345 21.6282L64.8443 24.1182C62.6286 22.8409 60.2564 21.8568 57.7871 21.1907V17.6683C57.7924 16.8946 57.5161 16.1453 57.0097 15.5603C56.5033 14.9753 55.8013 14.5944 55.0348 14.4887C51.6958 14.023 48.3082 14.023 44.9692 14.4887C44.2005 14.5917 43.4957 14.9714 42.9868 15.5567C42.4779 16.142 42.1999 16.8928 42.2048 17.6683V21.1907C39.7357 21.8572 37.3635 22.8413 35.1476 24.1182L32.6534 21.6282C32.1082 21.0764 31.3807 20.7421 30.6069 20.6879C29.8331 20.6337 29.066 20.8633 28.4493 21.3338C25.7557 23.3619 23.3598 25.7576 21.3316 28.4511C20.8582 29.0673 20.6263 29.8353 20.6794 30.6105C20.7325 31.3858 21.067 32.115 21.6199 32.6609L24.1101 35.151C22.833 37.3669 21.8482 39.7389 21.1804 42.2078H17.6598C16.8861 42.2025 16.1368 42.4788 15.5517 42.9851C14.9667 43.4915 14.5858 44.1934 14.4801 44.9599C14.0123 48.2986 14.0123 51.6862 14.4801 55.0249C14.5831 55.7936 14.9628 56.4983 15.5481 57.0072C16.1335 57.516 16.8842 57.794 17.6598 57.7891H21.1804C21.8482 60.258 22.833 62.63 24.1101 64.8459L21.6199 67.34C21.0681 67.8851 20.7338 68.6126 20.6796 69.3864C20.6254 70.1601 20.8551 70.9271 21.3256 71.5438C23.3538 74.2372 25.7497 76.633 28.4433 78.6611C29.0597 79.134 29.8276 79.3656 30.6028 79.3125C31.378 79.2595 32.1071 78.9253 32.6534 78.3727L35.1415 75.8827C37.3577 77.1592 39.7298 78.1432 42.1988 78.8103V82.3326C42.1935 83.1066 42.4701 83.8561 42.977 84.4412C43.4838 85.0263 44.1862 85.4069 44.9531 85.5122C48.292 85.98 51.6798 85.98 55.0187 85.5122C55.7874 85.4092 56.4922 85.0295 57.0011 84.4442C57.51 83.8589 57.788 83.1081 57.7831 82.3326V78.8103C60.2523 78.1441 62.6246 77.16 64.8403 75.8827L67.3345 78.3727C67.8797 78.9246 68.6072 79.2588 69.381 79.313C70.1548 79.3672 70.9219 79.1376 71.5386 78.6671C74.2327 76.6396 76.6286 74.2438 78.6563 71.5498C79.1296 70.9336 79.3616 70.1656 79.3085 69.3904C79.2554 68.6151 78.9209 67.886 78.368 67.34L75.8778 64.8499C77.1543 62.6339 78.1384 60.262 78.8055 57.7932L82.328 57.7972ZM75.9685 55.8314C75.3016 58.8151 74.122 61.6606 72.4822 64.241C72.2858 64.5504 72.2005 64.9174 72.2404 65.2817C72.2804 65.6459 72.4432 65.9858 72.702 66.2452L76.0774 69.6203C74.2351 72.0657 72.0591 74.2409 69.613 76.0823L66.2396 72.7092C65.9805 72.45 65.6407 72.2868 65.2764 72.2465C64.9121 72.2062 64.545 72.2912 64.2354 72.4874C61.6551 74.1278 58.8094 75.3073 55.8252 75.9734C55.4675 76.0536 55.1477 76.2533 54.9186 76.5395C54.6896 76.8258 54.5648 77.1815 54.565 77.5481V82.3205C51.5323 82.7429 48.4556 82.7429 45.4229 82.3205V77.5481C45.4231 77.1815 45.2983 76.8258 45.0693 76.5395C44.8402 76.2533 44.5204 76.0536 44.1627 75.9734C41.1787 75.3066 38.3331 74.1271 35.7525 72.4874C35.4431 72.2909 35.0761 72.2056 34.7118 72.2456C34.3475 72.2855 34.0077 72.4483 33.7483 72.7072L30.3729 76.0823C27.9309 74.2394 25.7591 72.0636 23.9206 69.6183L27.2939 66.2452C27.5531 65.986 27.7163 65.6463 27.7566 65.282C27.7969 64.9177 27.712 64.5506 27.5157 64.241C25.8752 61.6609 24.6956 58.8154 24.0295 55.8314C23.9493 55.4736 23.7496 55.1539 23.4633 54.9248C23.1771 54.6958 22.8213 54.5711 22.4547 54.5712H17.6719C17.2485 51.5388 17.2485 48.4622 17.6719 45.4297H22.4426C22.8092 45.4299 23.165 45.3051 23.4512 45.0761C23.7375 44.847 23.9372 44.5273 24.0174 44.1695C24.6839 41.1857 25.8635 38.3402 27.5036 35.7599C27.6999 35.4503 27.7848 35.0832 27.7445 34.7189C27.7042 34.3546 27.541 34.0149 27.2818 33.7557L23.9085 30.3806C25.7515 27.9388 27.9275 25.767 30.3729 23.9287L33.7462 27.3038C34.0057 27.5627 34.3455 27.7255 34.7098 27.7654C35.0741 27.8054 35.4411 27.7201 35.7505 27.5236C38.3311 25.8839 41.1767 24.7044 44.1607 24.0376C44.5184 23.9574 44.8382 23.7577 45.0672 23.4715C45.2963 23.1852 45.4211 22.8295 45.4209 22.4629V17.6804C48.4536 17.258 51.5303 17.258 54.563 17.6804V22.4508C54.5628 22.8174 54.6875 23.1731 54.9166 23.4594C55.1457 23.7456 55.4655 23.9453 55.8232 24.0255C58.8071 24.6923 61.6527 25.8718 64.2334 27.5115C64.5427 27.708 64.9098 27.7933 65.2741 27.7533C65.6384 27.7134 65.9782 27.5506 66.2376 27.2917L69.613 23.9166C72.0585 25.7588 74.2338 27.9346 76.0754 30.3806L72.702 33.7537C72.4428 34.0129 72.2797 34.3526 72.2393 34.7169C72.199 35.0812 72.284 35.4483 72.4802 35.7579C74.1207 38.338 75.3003 41.1835 75.9665 44.1675C76.0467 44.5253 76.2464 44.845 76.5326 45.0741C76.8189 45.3031 77.1746 45.4278 77.5413 45.4277H82.316C82.7394 48.4601 82.7394 51.5367 82.316 54.5692H77.5433C77.1764 54.5691 76.8204 54.6942 76.5341 54.9236C76.2478 55.1531 76.0483 55.4733 75.9685 55.8314ZM49.9939 30.9451C46.2249 30.9451 42.5406 32.0627 39.4067 34.1565C36.2729 36.2504 33.8304 39.2264 32.3881 42.7083C30.9457 46.1902 30.5683 50.0216 31.3036 53.718C32.0389 57.4143 33.8539 60.8097 36.519 63.4746C39.1841 66.1395 42.5796 67.9544 46.2762 68.6896C49.9728 69.4249 53.8044 69.0475 57.2865 67.6053C60.7687 66.163 63.7449 63.7207 65.8388 60.587C67.9328 57.4534 69.0504 53.7692 69.0504 50.0005C69.0446 44.9485 67.0349 40.1051 63.4624 36.5328C59.8899 32.9605 55.0462 30.951 49.9939 30.9451ZM49.9939 65.8258C46.8628 65.8258 43.802 64.8973 41.1987 63.1578C38.5953 61.4182 36.5663 58.9458 35.3682 56.0531C34.1702 53.1605 33.8569 49.9775 34.4681 46.9068C35.0792 43.8361 36.5873 41.0156 38.8016 38.8019C41.016 36.5883 43.837 35.081 46.9081 34.4707C49.9791 33.8604 53.1622 34.1745 56.0547 35.3732C58.9473 36.5719 61.4194 38.6014 63.1583 41.205C64.8973 43.8087 65.8251 46.8695 65.8243 50.0005C65.8195 54.1972 64.1501 58.2207 61.1824 61.1882C58.2146 64.1557 54.1909 65.825 49.9939 65.8298V65.8258ZM15.5588 18.3296C13.9442 20.0828 12.4666 21.9574 11.139 23.9367C11.0209 24.1128 10.8693 24.2639 10.6928 24.3814C10.5163 24.4989 10.3184 24.5804 10.1104 24.6214C9.90234 24.6624 9.68828 24.6621 9.4804 24.6204C9.27253 24.5786 9.07491 24.4964 8.89882 24.3783C8.72273 24.2602 8.57163 24.1086 8.45415 23.9321C8.33666 23.7556 8.25508 23.5577 8.21408 23.3497C8.17307 23.1417 8.17344 22.9277 8.21517 22.7198C8.25689 22.512 8.33914 22.3143 8.45724 22.1383C9.87862 20.0223 11.46 18.0184 13.1876 16.144C13.4807 15.8432 13.8797 15.6686 14.2996 15.6573C14.7195 15.6461 15.1273 15.799 15.4362 16.0837C15.745 16.3684 15.9307 16.7624 15.9536 17.1818C15.9765 17.6012 15.8348 18.013 15.5588 18.3296ZM21.0735 11.172C20.8296 10.8209 20.7351 10.3873 20.8107 9.96655C20.8863 9.54577 21.1259 9.17222 21.4768 8.92799C30.1094 2.93603 40.4102 -0.184801 50.917 0.00846388C61.4238 0.201729 71.6028 3.69927 80.0093 10.0046L79.4669 8.50055C79.3251 8.09899 79.348 7.65768 79.5304 7.2729C79.7128 6.88811 80.04 6.59106 80.4406 6.44654C80.8411 6.30202 81.2826 6.32176 81.6687 6.50145C82.0548 6.68114 82.3541 7.00621 82.5015 7.40574L85.1046 14.6178C85.1927 14.8615 85.2208 15.1228 85.1865 15.3796C85.1522 15.6365 85.0565 15.8813 84.9076 16.0933C84.7586 16.3053 84.5608 16.4784 84.3308 16.5978C84.1008 16.7171 83.8454 16.7794 83.5863 16.7792C83.4909 16.7794 83.3957 16.7707 83.3019 16.7529L75.7548 15.4001C75.5462 15.3627 75.3471 15.2847 75.1688 15.1704C74.9904 15.0561 74.8363 14.9078 74.7152 14.734C74.5942 14.5602 74.5086 14.3642 74.4633 14.1573C74.418 13.9503 74.4139 13.7365 74.4512 13.528C74.4885 13.3195 74.5666 13.1204 74.6809 12.942C74.7952 12.7637 74.9435 12.6096 75.1173 12.4885C75.2912 12.3675 75.4872 12.2819 75.6941 12.2366C75.901 12.1913 76.1149 12.1872 76.3234 12.2245L77.9929 12.5249C70.1293 6.65433 60.6191 3.40419 50.8071 3.23414C40.9952 3.06408 31.378 5.98272 23.3157 11.5773C22.9644 11.8204 22.5311 11.9142 22.1108 11.8382C21.6905 11.7623 21.3174 11.5227 21.0735 11.172ZM4.59191 61.2913C4.69371 61.7057 4.62716 62.1435 4.40684 62.5089C4.18652 62.8743 3.83037 63.1376 3.41638 63.241C3.28868 63.2745 3.15722 63.2914 3.02521 63.2914C2.66523 63.2912 2.31565 63.1707 2.03211 62.9489C1.74857 62.7271 1.54737 62.4169 1.46052 62.0676C0.94462 59.9979 0.561406 57.8974 0.313223 55.7789C0.26972 55.3572 0.394006 54.9354 0.659194 54.6046C0.924381 54.2738 1.30915 54.0607 1.73025 54.0114C2.15135 53.9621 2.57493 54.0806 2.90934 54.3412C3.24376 54.6018 3.46212 54.9836 3.5172 55.4039C3.7492 57.3873 4.10817 59.3538 4.59191 61.2913ZM0.000689813 48.5609C0.059923 46.5531 0.240378 44.5507 0.54107 42.5646C0.572845 42.3552 0.645563 42.1541 0.755072 41.9727C0.86458 41.7914 1.00874 41.6334 1.17931 41.5078C1.34988 41.3821 1.54352 41.2913 1.74919 41.2406C1.95485 41.1898 2.16851 41.18 2.37796 41.2117C2.58741 41.2435 2.78855 41.3162 2.96989 41.4257C3.15124 41.5352 3.30924 41.6794 3.43488 41.8499C3.56051 42.0205 3.65132 42.2141 3.70212 42.4198C3.75291 42.6254 3.7627 42.8391 3.73093 43.0485C3.44965 44.9057 3.28065 46.7781 3.22483 48.6556C3.21224 49.075 3.03675 49.4729 2.73559 49.765C2.43444 50.0571 2.03131 50.2204 1.61175 50.2202H1.56336C1.13619 50.2071 0.731713 50.0249 0.438728 49.7138C0.145743 49.4027 -0.0118001 48.988 0.000689813 48.5609ZM7.38656 30.6871C6.56283 32.5078 5.85634 34.3793 5.27142 36.2901C5.1445 36.6971 4.86166 37.0372 4.48469 37.2363C4.10773 37.4353 3.6673 37.4771 3.25965 37.3524C2.852 37.2277 2.51029 36.9467 2.30918 36.5709C2.10808 36.195 2.06394 35.7548 2.18641 35.3466C2.81146 33.3031 3.56644 31.3016 4.44673 29.3543C4.53398 29.1613 4.65839 28.9874 4.81287 28.8424C4.96735 28.6975 5.14886 28.5844 5.34705 28.5096C5.54524 28.4348 5.75622 28.3998 5.96795 28.4065C6.17967 28.4132 6.388 28.4616 6.58103 28.5489C6.77406 28.6361 6.94802 28.7605 7.09297 28.915C7.23792 29.0694 7.35102 29.2509 7.42582 29.4491C7.50062 29.6473 7.53566 29.8583 7.52892 30.07C7.52218 30.2817 7.47381 30.49 7.38656 30.683V30.6871ZM95.396 38.7096C95.2925 38.2944 95.3582 37.8551 95.5787 37.4883C95.7991 37.1215 96.1563 36.8573 96.5715 36.7539C96.9868 36.6504 97.4261 36.7161 97.7929 36.9366C98.1597 37.157 98.4239 37.5141 98.5274 37.9293C99.0431 39.999 99.4263 42.0995 99.6747 44.2179C99.7241 44.6421 99.6033 45.0686 99.3387 45.4039C99.0741 45.7392 98.6873 45.9558 98.2632 46.0063C98.2004 46.0144 98.1371 46.0184 98.0737 46.0184C97.6789 46.0176 97.2981 45.8721 97.0034 45.6094C96.7087 45.3467 96.5206 44.985 96.4747 44.5929C96.242 42.6107 95.8817 40.6455 95.396 38.7096ZM99.9872 51.436C99.928 53.4438 99.7475 55.4462 99.4468 57.4323C99.389 57.8134 99.1965 58.1613 98.9043 58.4128C98.6121 58.6643 98.2395 58.8028 97.8539 58.8033C97.7722 58.8032 97.6907 58.7971 97.6099 58.7851C97.4005 58.7534 97.1993 58.6807 97.018 58.5712C96.8366 58.4617 96.6786 58.3175 96.553 58.147C96.4273 57.9764 96.3365 57.7828 96.2857 57.5771C96.235 57.3714 96.2252 57.1578 96.257 56.9484C96.5415 55.0927 96.7138 53.2216 96.7731 51.3453C96.7857 50.9175 96.9677 50.5122 97.2791 50.2186C97.5905 49.925 98.0058 49.7671 98.4336 49.7797C98.8614 49.7922 99.2667 49.9742 99.5603 50.2856C99.854 50.597 100.012 51.0123 99.9993 51.44L99.9872 51.436ZM91.5307 77.8626C90.1099 79.9785 88.5292 81.9825 86.8023 83.8569C86.6607 84.0194 86.4878 84.1518 86.2941 84.2464C86.1004 84.341 85.8896 84.3958 85.6743 84.4075C85.4591 84.4193 85.2436 84.3878 85.0407 84.3148C84.8379 84.2419 84.6516 84.1291 84.4931 83.9829C84.3346 83.8368 84.207 83.6604 84.1178 83.4641C84.0286 83.2679 83.9797 83.0557 83.9739 82.8402C83.9681 82.6247 84.0056 82.4102 84.0841 82.2094C84.1627 82.0087 84.2806 81.8257 84.4311 81.6713C86.0457 79.9181 87.5233 78.0435 88.8509 76.0642C88.969 75.8882 89.1206 75.7373 89.2971 75.6199C89.4735 75.5025 89.6713 75.4211 89.8793 75.3802C90.0872 75.3393 90.3011 75.3397 90.5089 75.3815C90.7166 75.4233 90.9141 75.5055 91.0901 75.6236C91.266 75.7417 91.417 75.8933 91.5344 76.0697C91.6517 76.2462 91.7332 76.444 91.7741 76.6519C91.815 76.8598 91.8146 77.0737 91.7728 77.2815C91.731 77.4892 91.6488 77.6867 91.5307 77.8626ZM97.8035 64.6503C97.1784 66.6938 96.4235 68.6953 95.5432 70.6425C95.367 71.0324 95.0431 71.3362 94.6429 71.4873C94.2426 71.6383 93.7987 71.6242 93.4089 71.448C93.019 71.2718 92.7151 70.948 92.5641 70.5478C92.413 70.1475 92.4271 69.7037 92.6033 69.3139C93.4264 67.4931 94.1322 65.6216 94.7165 63.7108C94.8434 63.3038 95.1262 62.9637 95.5032 62.7646C95.8802 62.5656 96.3206 62.5239 96.7282 62.6485C97.1359 62.7732 97.4776 63.0542 97.6787 63.43C97.8798 63.8059 97.924 64.2461 97.8015 64.6544L97.8035 64.6503ZM78.9144 88.8289C79.1583 89.18 79.2528 89.6136 79.1772 90.0344C79.1016 90.4551 78.862 90.8287 78.5111 91.0729C69.8782 97.064 59.5778 100.184 49.0712 99.9916C38.5647 99.7987 28.3858 96.3022 19.9786 89.9983L20.521 91.5004C20.6295 91.8919 20.5863 92.31 20.3999 92.671C20.2135 93.0321 19.8977 93.3095 19.5156 93.4478C19.1335 93.5861 18.7133 93.5751 18.339 93.417C17.9647 93.2589 17.6638 92.9655 17.4965 92.5952L14.8793 85.3831C14.7831 85.1167 14.7588 84.8297 14.8088 84.5509C14.8588 84.2722 14.9813 84.0114 15.164 83.795C15.3467 83.5786 15.5832 83.4141 15.8496 83.3181C16.1161 83.222 16.4031 83.1979 16.6819 83.248L24.2291 84.6009C24.4376 84.6382 24.6367 84.7162 24.8151 84.8305C24.9935 84.9448 25.1476 85.0931 25.2686 85.2669C25.3897 85.4408 25.4753 85.6367 25.5206 85.8437C25.5659 86.0506 25.57 86.2644 25.5327 86.4729C25.4953 86.6814 25.4173 86.8805 25.303 87.0589C25.1887 87.2372 25.0404 87.3913 24.8665 87.5124C24.6927 87.6334 24.4967 87.719 24.2898 87.7643C24.0828 87.8096 23.869 87.8137 23.6605 87.7764L21.9909 87.478C29.8551 93.3474 39.3653 96.5967 49.1771 96.7664C58.9888 96.9361 68.6057 94.0176 76.6682 88.4236C76.8422 88.3026 77.0384 88.2171 77.2456 88.172C77.4527 88.1269 77.6667 88.1231 77.8753 88.1607C78.0839 88.1983 78.283 88.2767 78.4613 88.3914C78.6396 88.506 78.7936 88.6547 78.9144 88.8289Z"></path></mask><path d="M82.328 57.7972C83.1024 57.8024 83.8522 57.5255 84.4374 57.0183C85.0225 56.5111 85.403 55.8082 85.5078 55.041C85.9756 51.7023 85.9756 48.3147 85.5078 44.976C85.4048 44.2073 85.0251 43.5026 84.4398 42.9937C83.8544 42.4849 83.1036 42.2069 82.328 42.2118H78.8075C78.1397 39.7429 77.1549 37.3709 75.8778 35.155L78.368 32.6609C78.9198 32.1158 79.2541 31.3883 79.3083 30.6146C79.3625 29.8408 79.1328 29.0738 78.6623 28.4571C76.6341 25.7637 74.2382 23.3679 71.5446 21.3398C70.9283 20.8665 70.1603 20.6346 69.385 20.6877C68.6097 20.7408 67.8805 21.0752 67.3345 21.6282L64.8443 24.1182C62.6286 22.8409 60.2564 21.8568 57.7871 21.1907V17.6683C57.7924 16.8946 57.5161 16.1453 57.0097 15.5603C56.5033 14.9753 55.8013 14.5944 55.0348 14.4887C51.6958 14.023 48.3082 14.023 44.9692 14.4887C44.2005 14.5917 43.4957 14.9714 42.9868 15.5567C42.4779 16.142 42.1999 16.8928 42.2048 17.6683V21.1907C39.7357 21.8572 37.3635 22.8413 35.1476 24.1182L32.6534 21.6282C32.1082 21.0764 31.3807 20.7421 30.6069 20.6879C29.8331 20.6337 29.066 20.8633 28.4493 21.3338C25.7557 23.3619 23.3598 25.7576 21.3316 28.4511C20.8582 29.0673 20.6263 29.8353 20.6794 30.6105C20.7325 31.3858 21.067 32.115 21.6199 32.6609L24.1101 35.151C22.833 37.3669 21.8482 39.7389 21.1804 42.2078H17.6598C16.8861 42.2025 16.1368 42.4788 15.5517 42.9851C14.9667 43.4915 14.5858 44.1934 14.4801 44.9599C14.0123 48.2986 14.0123 51.6862 14.4801 55.0249C14.5831 55.7936 14.9628 56.4983 15.5481 57.0072C16.1335 57.516 16.8842 57.794 17.6598 57.7891H21.1804C21.8482 60.258 22.833 62.63 24.1101 64.8459L21.6199 67.34C21.0681 67.8851 20.7338 68.6126 20.6796 69.3864C20.6254 70.1601 20.8551 70.9271 21.3256 71.5438C23.3538 74.2372 25.7497 76.633 28.4433 78.6611C29.0597 79.134 29.8276 79.3656 30.6028 79.3125C31.378 79.2595 32.1071 78.9253 32.6534 78.3727L35.1415 75.8827C37.3577 77.1592 39.7298 78.1432 42.1988 78.8103V82.3326C42.1935 83.1066 42.4701 83.8561 42.977 84.4412C43.4838 85.0263 44.1862 85.4069 44.9531 85.5122C48.292 85.98 51.6798 85.98 55.0187 85.5122C55.7874 85.4092 56.4922 85.0295 57.0011 84.4442C57.51 83.8589 57.788 83.1081 57.7831 82.3326V78.8103C60.2523 78.1441 62.6246 77.16 64.8403 75.8827L67.3345 78.3727C67.8797 78.9246 68.6072 79.2588 69.381 79.313C70.1548 79.3672 70.9219 79.1376 71.5386 78.6671C74.2327 76.6396 76.6286 74.2438 78.6563 71.5498C79.1296 70.9336 79.3616 70.1656 79.3085 69.3904C79.2554 68.6151 78.9209 67.886 78.368 67.34L75.8778 64.8499C77.1543 62.6339 78.1384 60.262 78.8055 57.7932L82.328 57.7972ZM75.9685 55.8314C75.3016 58.8151 74.122 61.6606 72.4822 64.241C72.2858 64.5504 72.2005 64.9174 72.2404 65.2817C72.2804 65.6459 72.4432 65.9858 72.702 66.2452L76.0774 69.6203C74.2351 72.0657 72.0591 74.2409 69.613 76.0823L66.2396 72.7092C65.9805 72.45 65.6407 72.2868 65.2764 72.2465C64.9121 72.2062 64.545 72.2912 64.2354 72.4874C61.6551 74.1278 58.8094 75.3073 55.8252 75.9734C55.4675 76.0536 55.1477 76.2533 54.9186 76.5395C54.6896 76.8258 54.5648 77.1815 54.565 77.5481V82.3205C51.5323 82.7429 48.4556 82.7429 45.4229 82.3205V77.5481C45.4231 77.1815 45.2983 76.8258 45.0693 76.5395C44.8402 76.2533 44.5204 76.0536 44.1627 75.9734C41.1787 75.3066 38.3331 74.1271 35.7525 72.4874C35.4431 72.2909 35.0761 72.2056 34.7118 72.2456C34.3475 72.2855 34.0077 72.4483 33.7483 72.7072L30.3729 76.0823C27.9309 74.2394 25.7591 72.0636 23.9206 69.6183L27.2939 66.2452C27.5531 65.986 27.7163 65.6463 27.7566 65.282C27.7969 64.9177 27.712 64.5506 27.5157 64.241C25.8752 61.6609 24.6956 58.8154 24.0295 55.8314C23.9493 55.4736 23.7496 55.1539 23.4633 54.9248C23.1771 54.6958 22.8213 54.5711 22.4547 54.5712H17.6719C17.2485 51.5388 17.2485 48.4622 17.6719 45.4297H22.4426C22.8092 45.4299 23.165 45.3051 23.4512 45.0761C23.7375 44.847 23.9372 44.5273 24.0174 44.1695C24.6839 41.1857 25.8635 38.3402 27.5036 35.7599C27.6999 35.4503 27.7848 35.0832 27.7445 34.7189C27.7042 34.3546 27.541 34.0149 27.2818 33.7557L23.9085 30.3806C25.7515 27.9388 27.9275 25.767 30.3729 23.9287L33.7462 27.3038C34.0057 27.5627 34.3455 27.7255 34.7098 27.7654C35.0741 27.8054 35.4411 27.7201 35.7505 27.5236C38.3311 25.8839 41.1767 24.7044 44.1607 24.0376C44.5184 23.9574 44.8382 23.7577 45.0672 23.4715C45.2963 23.1852 45.4211 22.8295 45.4209 22.4629V17.6804C48.4536 17.258 51.5303 17.258 54.563 17.6804V22.4508C54.5628 22.8174 54.6875 23.1731 54.9166 23.4594C55.1457 23.7456 55.4655 23.9453 55.8232 24.0255C58.8071 24.6923 61.6527 25.8718 64.2334 27.5115C64.5427 27.708 64.9098 27.7933 65.2741 27.7533C65.6384 27.7134 65.9782 27.5506 66.2376 27.2917L69.613 23.9166C72.0585 25.7588 74.2338 27.9346 76.0754 30.3806L72.702 33.7537C72.4428 34.0129 72.2797 34.3526 72.2393 34.7169C72.199 35.0812 72.284 35.4483 72.4802 35.7579C74.1207 38.338 75.3003 41.1835 75.9665 44.1675C76.0467 44.5253 76.2464 44.845 76.5326 45.0741C76.8189 45.3031 77.1746 45.4278 77.5413 45.4277H82.316C82.7394 48.4601 82.7394 51.5367 82.316 54.5692H77.5433C77.1764 54.5691 76.8204 54.6942 76.5341 54.9236C76.2478 55.1531 76.0483 55.4733 75.9685 55.8314ZM49.9939 30.9451C46.2249 30.9451 42.5406 32.0627 39.4067 34.1565C36.2729 36.2504 33.8304 39.2264 32.3881 42.7083C30.9457 46.1902 30.5683 50.0216 31.3036 53.718C32.0389 57.4143 33.8539 60.8097 36.519 63.4746C39.1841 66.1395 42.5796 67.9544 46.2762 68.6896C49.9728 69.4249 53.8044 69.0475 57.2865 67.6053C60.7687 66.163 63.7449 63.7207 65.8388 60.587C67.9328 57.4534 69.0504 53.7692 69.0504 50.0005C69.0446 44.9485 67.0349 40.1051 63.4624 36.5328C59.8899 32.9605 55.0462 30.951 49.9939 30.9451ZM49.9939 65.8258C46.8628 65.8258 43.802 64.8973 41.1987 63.1578C38.5953 61.4182 36.5663 58.9458 35.3682 56.0531C34.1702 53.1605 33.8569 49.9775 34.4681 46.9068C35.0792 43.8361 36.5873 41.0156 38.8016 38.8019C41.016 36.5883 43.837 35.081 46.9081 34.4707C49.9791 33.8604 53.1622 34.1745 56.0547 35.3732C58.9473 36.5719 61.4194 38.6014 63.1583 41.205C64.8973 43.8087 65.8251 46.8695 65.8243 50.0005C65.8195 54.1972 64.1501 58.2207 61.1824 61.1882C58.2146 64.1557 54.1909 65.825 49.9939 65.8298V65.8258ZM15.5588 18.3296C13.9442 20.0828 12.4666 21.9574 11.139 23.9367C11.0209 24.1128 10.8693 24.2639 10.6928 24.3814C10.5163 24.4989 10.3184 24.5804 10.1104 24.6214C9.90234 24.6624 9.68828 24.6621 9.4804 24.6204C9.27253 24.5786 9.07491 24.4964 8.89882 24.3783C8.72273 24.2602 8.57163 24.1086 8.45415 23.9321C8.33666 23.7556 8.25508 23.5577 8.21408 23.3497C8.17307 23.1417 8.17344 22.9277 8.21517 22.7198C8.25689 22.512 8.33914 22.3143 8.45724 22.1383C9.87862 20.0223 11.46 18.0184 13.1876 16.144C13.4807 15.8432 13.8797 15.6686 14.2996 15.6573C14.7195 15.6461 15.1273 15.799 15.4362 16.0837C15.745 16.3684 15.9307 16.7624 15.9536 17.1818C15.9765 17.6012 15.8348 18.013 15.5588 18.3296ZM21.0735 11.172C20.8296 10.8209 20.7351 10.3873 20.8107 9.96655C20.8863 9.54577 21.1259 9.17222 21.4768 8.92799C30.1094 2.93603 40.4102 -0.184801 50.917 0.00846388C61.4238 0.201729 71.6028 3.69927 80.0093 10.0046L79.4669 8.50055C79.3251 8.09899 79.348 7.65768 79.5304 7.2729C79.7128 6.88811 80.04 6.59106 80.4406 6.44654C80.8411 6.30202 81.2826 6.32176 81.6687 6.50145C82.0548 6.68114 82.3541 7.00621 82.5015 7.40574L85.1046 14.6178C85.1927 14.8615 85.2208 15.1228 85.1865 15.3796C85.1522 15.6365 85.0565 15.8813 84.9076 16.0933C84.7586 16.3053 84.5608 16.4784 84.3308 16.5978C84.1008 16.7171 83.8454 16.7794 83.5863 16.7792C83.4909 16.7794 83.3957 16.7707 83.3019 16.7529L75.7548 15.4001C75.5462 15.3627 75.3471 15.2847 75.1688 15.1704C74.9904 15.0561 74.8363 14.9078 74.7152 14.734C74.5942 14.5602 74.5086 14.3642 74.4633 14.1573C74.418 13.9503 74.4139 13.7365 74.4512 13.528C74.4885 13.3195 74.5666 13.1204 74.6809 12.942C74.7952 12.7637 74.9435 12.6096 75.1173 12.4885C75.2912 12.3675 75.4872 12.2819 75.6941 12.2366C75.901 12.1913 76.1149 12.1872 76.3234 12.2245L77.9929 12.5249C70.1293 6.65433 60.6191 3.40419 50.8071 3.23414C40.9952 3.06408 31.378 5.98272 23.3157 11.5773C22.9644 11.8204 22.5311 11.9142 22.1108 11.8382C21.6905 11.7623 21.3174 11.5227 21.0735 11.172ZM4.59191 61.2913C4.69371 61.7057 4.62716 62.1435 4.40684 62.5089C4.18652 62.8743 3.83037 63.1376 3.41638 63.241C3.28868 63.2745 3.15722 63.2914 3.02521 63.2914C2.66523 63.2912 2.31565 63.1707 2.03211 62.9489C1.74857 62.7271 1.54737 62.4169 1.46052 62.0676C0.94462 59.9979 0.561406 57.8974 0.313223 55.7789C0.26972 55.3572 0.394006 54.9354 0.659194 54.6046C0.924381 54.2738 1.30915 54.0607 1.73025 54.0114C2.15135 53.9621 2.57493 54.0806 2.90934 54.3412C3.24376 54.6018 3.46212 54.9836 3.5172 55.4039C3.7492 57.3873 4.10817 59.3538 4.59191 61.2913ZM0.000689813 48.5609C0.059923 46.5531 0.240378 44.5507 0.54107 42.5646C0.572845 42.3552 0.645563 42.1541 0.755072 41.9727C0.86458 41.7914 1.00874 41.6334 1.17931 41.5078C1.34988 41.3821 1.54352 41.2913 1.74919 41.2406C1.95485 41.1898 2.16851 41.18 2.37796 41.2117C2.58741 41.2435 2.78855 41.3162 2.96989 41.4257C3.15124 41.5352 3.30924 41.6794 3.43488 41.8499C3.56051 42.0205 3.65132 42.2141 3.70212 42.4198C3.75291 42.6254 3.7627 42.8391 3.73093 43.0485C3.44965 44.9057 3.28065 46.7781 3.22483 48.6556C3.21224 49.075 3.03675 49.4729 2.73559 49.765C2.43444 50.0571 2.03131 50.2204 1.61175 50.2202H1.56336C1.13619 50.2071 0.731713 50.0249 0.438728 49.7138C0.145743 49.4027 -0.0118001 48.988 0.000689813 48.5609ZM7.38656 30.6871C6.56283 32.5078 5.85634 34.3793 5.27142 36.2901C5.1445 36.6971 4.86166 37.0372 4.48469 37.2363C4.10773 37.4353 3.6673 37.4771 3.25965 37.3524C2.852 37.2277 2.51029 36.9467 2.30918 36.5709C2.10808 36.195 2.06394 35.7548 2.18641 35.3466C2.81146 33.3031 3.56644 31.3016 4.44673 29.3543C4.53398 29.1613 4.65839 28.9874 4.81287 28.8424C4.96735 28.6975 5.14886 28.5844 5.34705 28.5096C5.54524 28.4348 5.75622 28.3998 5.96795 28.4065C6.17967 28.4132 6.388 28.4616 6.58103 28.5489C6.77406 28.6361 6.94802 28.7605 7.09297 28.915C7.23792 29.0694 7.35102 29.2509 7.42582 29.4491C7.50062 29.6473 7.53566 29.8583 7.52892 30.07C7.52218 30.2817 7.47381 30.49 7.38656 30.683V30.6871ZM95.396 38.7096C95.2925 38.2944 95.3582 37.8551 95.5787 37.4883C95.7991 37.1215 96.1563 36.8573 96.5715 36.7539C96.9868 36.6504 97.4261 36.7161 97.7929 36.9366C98.1597 37.157 98.4239 37.5141 98.5274 37.9293C99.0431 39.999 99.4263 42.0995 99.6747 44.2179C99.7241 44.6421 99.6033 45.0686 99.3387 45.4039C99.0741 45.7392 98.6873 45.9558 98.2632 46.0063C98.2004 46.0144 98.1371 46.0184 98.0737 46.0184C97.6789 46.0176 97.2981 45.8721 97.0034 45.6094C96.7087 45.3467 96.5206 44.985 96.4747 44.5929C96.242 42.6107 95.8817 40.6455 95.396 38.7096ZM99.9872 51.436C99.928 53.4438 99.7475 55.4462 99.4468 57.4323C99.389 57.8134 99.1965 58.1613 98.9043 58.4128C98.6121 58.6643 98.2395 58.8028 97.8539 58.8033C97.7722 58.8032 97.6907 58.7971 97.6099 58.7851C97.4005 58.7534 97.1993 58.6807 97.018 58.5712C96.8366 58.4617 96.6786 58.3175 96.553 58.147C96.4273 57.9764 96.3365 57.7828 96.2857 57.5771C96.235 57.3714 96.2252 57.1578 96.257 56.9484C96.5415 55.0927 96.7138 53.2216 96.7731 51.3453C96.7857 50.9175 96.9677 50.5122 97.2791 50.2186C97.5905 49.925 98.0058 49.7671 98.4336 49.7797C98.8614 49.7922 99.2667 49.9742 99.5603 50.2856C99.854 50.597 100.012 51.0123 99.9993 51.44L99.9872 51.436ZM91.5307 77.8626C90.1099 79.9785 88.5292 81.9825 86.8023 83.8569C86.6607 84.0194 86.4878 84.1518 86.2941 84.2464C86.1004 84.341 85.8896 84.3958 85.6743 84.4075C85.4591 84.4193 85.2436 84.3878 85.0407 84.3148C84.8379 84.2419 84.6516 84.1291 84.4931 83.9829C84.3346 83.8368 84.207 83.6604 84.1178 83.4641C84.0286 83.2679 83.9797 83.0557 83.9739 82.8402C83.9681 82.6247 84.0056 82.4102 84.0841 82.2094C84.1627 82.0087 84.2806 81.8257 84.4311 81.6713C86.0457 79.9181 87.5233 78.0435 88.8509 76.0642C88.969 75.8882 89.1206 75.7373 89.2971 75.6199C89.4735 75.5025 89.6713 75.4211 89.8793 75.3802C90.0872 75.3393 90.3011 75.3397 90.5089 75.3815C90.7166 75.4233 90.9141 75.5055 91.0901 75.6236C91.266 75.7417 91.417 75.8933 91.5344 76.0697C91.6517 76.2462 91.7332 76.444 91.7741 76.6519C91.815 76.8598 91.8146 77.0737 91.7728 77.2815C91.731 77.4892 91.6488 77.6867 91.5307 77.8626ZM97.8035 64.6503C97.1784 66.6938 96.4235 68.6953 95.5432 70.6425C95.367 71.0324 95.0431 71.3362 94.6429 71.4873C94.2426 71.6383 93.7987 71.6242 93.4089 71.448C93.019 71.2718 92.7151 70.948 92.5641 70.5478C92.413 70.1475 92.4271 69.7037 92.6033 69.3139C93.4264 67.4931 94.1322 65.6216 94.7165 63.7108C94.8434 63.3038 95.1262 62.9637 95.5032 62.7646C95.8802 62.5656 96.3206 62.5239 96.7282 62.6485C97.1359 62.7732 97.4776 63.0542 97.6787 63.43C97.8798 63.8059 97.924 64.2461 97.8015 64.6544L97.8035 64.6503ZM78.9144 88.8289C79.1583 89.18 79.2528 89.6136 79.1772 90.0344C79.1016 90.4551 78.862 90.8287 78.5111 91.0729C69.8782 97.064 59.5778 100.184 49.0712 99.9916C38.5647 99.7987 28.3858 96.3022 19.9786 89.9983L20.521 91.5004C20.6295 91.8919 20.5863 92.31 20.3999 92.671C20.2135 93.0321 19.8977 93.3095 19.5156 93.4478C19.1335 93.5861 18.7133 93.5751 18.339 93.417C17.9647 93.2589 17.6638 92.9655 17.4965 92.5952L14.8793 85.3831C14.7831 85.1167 14.7588 84.8297 14.8088 84.5509C14.8588 84.2722 14.9813 84.0114 15.164 83.795C15.3467 83.5786 15.5832 83.4141 15.8496 83.3181C16.1161 83.222 16.4031 83.1979 16.6819 83.248L24.2291 84.6009C24.4376 84.6382 24.6367 84.7162 24.8151 84.8305C24.9935 84.9448 25.1476 85.0931 25.2686 85.2669C25.3897 85.4408 25.4753 85.6367 25.5206 85.8437C25.5659 86.0506 25.57 86.2644 25.5327 86.4729C25.4953 86.6814 25.4173 86.8805 25.303 87.0589C25.1887 87.2372 25.0404 87.3913 24.8665 87.5124C24.6927 87.6334 24.4967 87.719 24.2898 87.7643C24.0828 87.8096 23.869 87.8137 23.6605 87.7764L21.9909 87.478C29.8551 93.3474 39.3653 96.5967 49.1771 96.7664C58.9888 96.9361 68.6057 94.0176 76.6682 88.4236C76.8422 88.3026 77.0384 88.2171 77.2456 88.172C77.4527 88.1269 77.6667 88.1231 77.8753 88.1607C78.0839 88.1983 78.283 88.2767 78.4613 88.3914C78.6396 88.506 78.7936 88.6547 78.9144 88.8289Z" fill="#0F0F0F" stroke="#FFFDFC" mask="url(#path-1-inside-1_1777_1808)"></path></g><defs><clipPath id="clip0_1777_1808"><rect width="100" height="100" fill="white"></rect></clipPath></defs></svg>