<svg xmlns="http://www.w3.org/2000/svg" width="20" height="20" viewBox="0 0 20 20" fill="none"><path d="M17.1775 12.7941L14.9519 11.4669C13.9693 10.8808 12.702 11.1672 12.0663 12.1162L11.3238 13.2253C9.33151 12.3015 7.69873 10.6652 6.77502 8.6644L7.87977 7.9301C8.83127 7.29768 9.12091 6.03115 8.53823 5.04757L7.22132 2.8244C6.85756 2.20882 6.1443 1.89135 5.42604 2.03366C4.26825 2.26524 3.24855 2.97598 2.62797 3.98229C2.01161 4.98271 1.84161 6.15325 2.15063 7.27662C3.55682 12.3933 7.61035 16.4446 12.7291 17.8501C13.0953 17.9503 13.465 18 13.833 18C14.595 18 15.346 17.7869 16.0205 17.3709C17.0259 16.7503 17.7357 15.7305 17.9673 14.5726C18.1071 13.8745 17.7905 13.1596 17.1775 12.7941ZM17.1413 14.4067C16.9552 15.3364 16.386 16.1558 15.5785 16.6543C14.7778 17.1478 13.8432 17.2825 12.9531 17.0383C8.11903 15.7111 4.29031 11.8855 2.96327 7.05345C2.71655 6.15829 2.852 5.22442 3.34543 4.42442C3.84391 3.61684 4.66239 3.04587 5.60715 2.85724C5.66189 2.84629 5.7175 2.84041 5.77223 2.84041C6.0661 2.84041 6.34488 2.99451 6.49729 3.25388L7.81337 5.4762C8.16787 6.0741 7.99182 6.84377 7.4125 7.22862L6.01378 8.15915C5.84621 8.27115 5.78153 8.48587 5.85816 8.67198C6.88207 11.1259 8.87011 13.1192 11.3137 14.1415C11.5015 14.2198 11.7153 14.1549 11.8256 13.9874L12.7644 12.5852C13.1518 12.0076 13.9205 11.8332 14.52 12.1903L16.7456 13.5174C17.0529 13.7002 17.2112 14.0572 17.1413 14.4067Z" fill="white"></path></svg>