<svg xmlns="http://www.w3.org/2000/svg" width="24" height="24" viewBox="0 0 24 24" fill="none"><path d="M22.7662 16.1911L19.4279 14.2004C17.9539 13.3212 16.053 13.7507 15.0994 15.1743L13.9856 16.8379C10.9973 15.4522 8.54809 12.9979 7.16253 9.99659L8.81966 8.89515C10.2469 7.94651 10.6814 6.04672 9.80734 4.57135L7.83198 1.23659C7.28635 0.313226 6.21644 -0.162979 5.13906 0.0504946C3.40237 0.397863 1.87283 1.46396 0.941961 2.97344C0.0174111 4.47407 -0.237591 6.22988 0.225947 7.91493C2.33524 15.5899 8.41553 21.6669 16.0936 23.7751C16.643 23.9255 17.1975 24 17.7495 24C18.8925 24 20.0191 23.6804 21.0308 23.0564C22.5388 22.1255 23.6036 20.5958 23.9509 18.8589C24.1606 17.8118 23.6857 16.7394 22.7662 16.1911ZM22.7119 18.6101C22.4328 20.0046 21.579 21.2337 20.3678 21.9814C19.1666 22.7217 17.7647 22.9238 16.4297 22.5574C9.17855 20.5667 3.43546 14.8282 1.4449 7.58018C1.07483 6.23744 1.278 4.83663 2.01814 3.63663C2.76587 2.42526 3.99359 1.56881 5.41073 1.28586C5.49283 1.26944 5.57625 1.26061 5.65834 1.26061C6.09915 1.26061 6.51732 1.49176 6.74593 1.88082L8.72006 5.2143C9.2518 6.11114 8.98773 7.26566 8.11876 7.84293L6.02067 9.23873C5.76932 9.40673 5.6723 9.72881 5.78724 10.008C7.3231 13.6888 10.3052 16.6787 13.9705 18.2122C14.2522 18.3297 14.5729 18.2324 14.7383 17.981L16.1466 15.8779C16.7276 15.0113 17.8807 14.7499 18.78 15.2855L22.1183 17.2762C22.5794 17.5503 22.8168 18.0859 22.7119 18.6101Z" fill="white"></path></svg>