<svg xmlns="http://www.w3.org/2000/svg" width="36" height="36" viewBox="0 0 36 36" fill="none"><circle cx="18" cy="18" r="17.5" stroke="white" stroke-opacity="0.12"></circle><g clip-path="url(#clip0_897_738)"><path d="M22.6451 19.9117C22.3176 19.5707 21.9225 19.3883 21.5037 19.3883C21.0884 19.3883 20.6899 19.5673 20.3488 19.9084L19.2817 20.9721C19.1939 20.9248 19.1061 20.8809 19.0217 20.837C18.9001 20.7762 18.7853 20.7188 18.6874 20.658C17.6878 20.0232 16.7794 19.1958 15.9082 18.1254C15.4861 17.5918 15.2024 17.1427 14.9964 16.6868C15.2733 16.4335 15.53 16.1701 15.7799 15.9169C15.8744 15.8223 15.969 15.7244 16.0635 15.6298C16.7727 14.9207 16.7727 14.0021 16.0635 13.293L15.1416 12.3711C15.0369 12.2664 14.9289 12.1584 14.8276 12.0503C14.625 11.8409 14.4122 11.6248 14.1927 11.4222C13.8652 11.098 13.4734 10.9258 13.0615 10.9258C12.6495 10.9258 12.251 11.098 11.9133 11.4222C11.9099 11.4256 11.9099 11.4256 11.9066 11.4289L10.7584 12.5872C10.3262 13.0195 10.0796 13.5463 10.0256 14.1575C9.94457 15.1435 10.235 16.0621 10.4579 16.6631C11.0049 18.1389 11.8221 19.5065 13.0412 20.9721C14.5203 22.7382 16.2999 24.1329 18.3328 25.1156C19.1095 25.4836 20.1462 25.9193 21.3045 25.9936C21.3754 25.9969 21.4497 26.0003 21.5172 26.0003C22.2973 26.0003 22.9524 25.72 23.4657 25.1628C23.4691 25.1561 23.4758 25.1527 23.4792 25.1459C23.6548 24.9332 23.8574 24.7407 24.0702 24.5347C24.2154 24.3963 24.364 24.2511 24.5092 24.0991C24.8435 23.7513 25.0191 23.3461 25.0191 22.9307C25.0191 22.512 24.8401 22.1101 24.499 21.7724L22.6451 19.9117ZM23.8541 23.4676C23.8507 23.4676 23.8507 23.471 23.8541 23.4676C23.7224 23.6095 23.5873 23.7378 23.4421 23.8796C23.2226 24.089 22.9997 24.3085 22.7903 24.555C22.4493 24.9197 22.0474 25.0919 21.5206 25.0919C21.47 25.0919 21.4159 25.0919 21.3653 25.0885C20.3623 25.0244 19.4303 24.6327 18.7313 24.2983C16.82 23.3731 15.1416 22.0595 13.747 20.3946C12.5954 19.0067 11.8255 17.7235 11.3156 16.3457C11.0015 15.5049 10.8867 14.8498 10.9374 14.2318C10.9711 13.8367 11.1231 13.5091 11.4034 13.2288L12.5549 12.0773C12.7204 11.922 12.896 11.8375 13.0682 11.8375C13.281 11.8375 13.4532 11.9659 13.5612 12.0739C13.5646 12.0773 13.568 12.0807 13.5714 12.0841C13.7774 12.2765 13.9732 12.4758 14.1792 12.6885C14.2839 12.7966 14.392 12.9047 14.5 13.0161L15.4219 13.938C15.7799 14.2959 15.7799 14.6269 15.4219 14.9848C15.324 15.0828 15.2294 15.1807 15.1315 15.2752C14.8478 15.5657 14.5777 15.8358 14.2839 16.0992C14.2771 16.106 14.2704 16.1093 14.267 16.1161C13.9766 16.4065 14.0306 16.6902 14.0914 16.8826C14.0948 16.8928 14.0982 16.9029 14.1015 16.913C14.3413 17.4939 14.679 18.0409 15.1923 18.6927L15.1957 18.696C16.1277 19.8442 17.1104 20.7391 18.1944 21.4246C18.3328 21.5124 18.4746 21.5833 18.6097 21.6508C18.7313 21.7116 18.8461 21.769 18.944 21.8298C18.9575 21.8366 18.971 21.8467 18.9846 21.8535C19.0994 21.9109 19.2074 21.9379 19.3189 21.9379C19.5992 21.9379 19.7748 21.7623 19.8322 21.7049L20.9871 20.55C21.1019 20.4352 21.2842 20.2967 21.497 20.2967C21.7063 20.2967 21.8786 20.4284 21.9833 20.5432C21.9866 20.5466 21.9866 20.5466 21.99 20.55L23.8507 22.4107C24.1985 22.7551 24.1985 23.1097 23.8541 23.4676Z" fill="white"></path><path d="M18.6467 13.8067C19.5315 13.9553 20.3352 14.374 20.9768 15.0156C21.6184 15.6573 22.0338 16.461 22.1857 17.3457C22.2229 17.5686 22.4154 17.7239 22.6349 17.7239C22.6619 17.7239 22.6855 17.7205 22.7125 17.7172C22.9624 17.6766 23.1279 17.4403 23.0874 17.1904C22.905 16.1199 22.3985 15.144 21.6252 14.3706C20.8519 13.5973 19.8759 13.0908 18.8054 12.9084C18.5556 12.8679 18.3226 13.0334 18.2787 13.2799C18.2348 13.5264 18.3968 13.7662 18.6467 13.8067Z" fill="white"></path><path d="M25.9819 17.0579C25.6813 15.2952 24.8506 13.6912 23.5741 12.4147C22.2977 11.1382 20.6936 10.3075 18.9309 10.007C18.6844 9.96305 18.4514 10.1319 18.4075 10.3784C18.3669 10.6283 18.5324 10.8613 18.7823 10.9052C20.3559 11.172 21.7911 11.9183 22.9325 13.0563C24.0739 14.1977 24.8168 15.6329 25.0836 17.2065C25.1208 17.4294 25.3132 17.5847 25.5327 17.5847C25.5598 17.5847 25.5834 17.5814 25.6104 17.578C25.8569 17.5408 26.0258 17.3045 25.9819 17.0579Z" fill="white"></path></g><defs><clipPath id="clip0_897_738"><rect width="16" height="16" fill="white" transform="translate(10 10)"></rect></clipPath></defs></svg>