<svg xmlns="http://www.w3.org/2000/svg" width="100" height="100" viewBox="0 0 100 100" fill="none"><g clip-path="url(#clip0_1777_1759)"><path d="M55.4377 60.9216H34.2566C33.523 60.9216 32.9277 60.3262 32.9277 59.5928C32.9277 58.8594 33.5232 58.2639 34.2566 58.2639H55.4377C56.1711 58.2639 56.7666 58.8594 56.7666 59.5928C56.7666 60.3262 56.1711 60.9216 55.4377 60.9216Z" fill="#0F0F0F" stroke="#FFFDFC" stroke-width="0.5"></path><path d="M47.8359 97.6064V59.5928C47.8359 58.8594 48.4314 58.2639 49.1648 58.2639C49.8974 58.2639 50.4937 58.8593 50.4937 59.5928V97.6064C50.4937 98.3397 49.8973 98.9353 49.1648 98.9353C48.4314 98.9353 47.8359 98.34 47.8359 97.6064Z" fill="#0F0F0F" stroke="#FFFDFC" stroke-width="0.5"></path><path d="M2.88672 11.9515C2.88672 5.9433 7.76535 1.0647 13.7725 1.0647C19.7808 1.0647 24.6594 5.94316 24.6594 11.9515C24.6594 17.9597 19.7808 22.8372 13.7725 22.8372C7.76532 22.8372 2.88672 17.9596 2.88672 11.9515ZM22.0015 11.9515C22.0015 7.40934 18.3148 3.72259 13.7725 3.72259C9.23134 3.72259 5.54461 7.40919 5.54461 11.9515C5.54461 16.4927 9.2312 20.1793 13.7725 20.1793C18.3147 20.1793 22.0015 16.4928 22.0015 11.9515Z" fill="#0F0F0F" stroke="#FFFDFC" stroke-width="0.5"></path><path d="M75.3418 11.9515C75.3418 5.94332 80.2204 1.0647 86.2287 1.0647C92.2359 1.0647 97.1145 5.94314 97.1145 11.9515C97.1145 17.9597 92.2359 22.8372 86.2287 22.8372C80.2204 22.8372 75.3418 17.9596 75.3418 11.9515ZM94.4566 11.9515C94.4566 7.40936 90.77 3.72259 86.2287 3.72259C81.6864 3.72259 77.9997 7.40917 77.9997 11.9515C77.9997 16.4928 81.6865 20.1793 86.2287 20.1793C90.77 20.1793 94.4566 16.4927 94.4566 11.9515Z" fill="#0F0F0F" stroke="#FFFDFC" stroke-width="0.5"></path><path d="M22.6896 45.6146L22.6988 45.6331C22.9153 46.0697 23.3605 46.3621 23.8655 46.3708L24.404 46.2663L38.921 40.4635L38.921 40.4635C41.287 39.5187 43.9746 40.6705 44.9207 43.0366L44.9207 43.0366C45.8655 45.4017 44.7127 48.0893 42.3477 49.0351L42.3476 49.0352L23.1467 56.7099C23.1467 56.7099 23.1467 56.7099 23.1467 56.7099C21.2068 57.4855 19.01 56.8579 17.7667 55.2284C17.4212 54.7756 16.8248 54.5931 16.2844 54.7756C15.7451 54.958 15.3818 55.4649 15.3818 56.0346V63.964C15.3818 64.6391 15.8876 65.2062 16.5576 65.2842L29.3374 66.76C32.4836 67.1229 34.8587 69.7876 34.8587 72.9558V97.6063C34.8587 98.3399 35.4541 98.9352 36.1876 98.9352C36.9211 98.9352 37.5164 98.3398 37.5164 97.6063V72.9558C37.5164 68.4375 34.1296 64.6379 29.642 64.1199L29.6707 63.8716L29.642 64.1199L18.2608 62.8053L18.0395 62.7797V62.5569V59.26V58.87L18.3939 59.0328C20.1548 59.842 22.2225 59.9416 24.1326 59.1784L43.3347 51.5037C43.3347 51.5037 43.3347 51.5037 43.3347 51.5037C47.0613 50.0129 48.8779 45.7773 47.3881 42.0496C45.8983 38.322 41.6627 36.5055 37.9352 37.9953L24.6341 43.3121L24.438 43.3905L24.3279 43.2103L16.6869 30.7041L16.6869 30.7041C15.6441 28.9968 13.944 27.7951 11.9875 27.3806C11.9567 27.3744 11.9262 27.368 11.8966 27.3617L11.8932 27.361C11.8619 27.3544 11.8317 27.348 11.8015 27.3419L11.799 27.3414C9.74842 26.9079 7.61035 27.3801 5.93329 28.6368L22.6896 45.6146ZM22.6896 45.6146L22.6774 45.5978M22.6896 45.6146L22.6774 45.5978M22.6774 45.5978C22.6496 45.5592 22.6216 45.5165 22.5907 45.4679C21.6434 43.9167 16.8056 35.9976 14.4182 32.0898L14.4181 32.0897C13.756 31.007 12.6777 30.2435 11.4355 29.9808L11.435 29.9806L11.2492 29.9418C11.2491 29.9418 11.2491 29.9417 11.249 29.9417C9.94715 29.6669 8.59161 29.9663 7.52663 30.7642C6.46244 31.5612 5.79476 32.7798 5.69351 34.1053L5.69351 34.1053M22.6774 45.5978L5.69351 34.1053M0.00429309 70.5863C0.253573 70.6053 0.25358 70.6052 0.253595 70.605L0.253658 70.6041L0.253913 70.6008L0.254926 70.5875L0.258943 70.5347L0.274712 70.3273L0.335396 69.5293L0.559025 66.5887L1.30065 56.836C1.88222 49.1878 2.57985 40.0126 3.04408 33.9041L2.7948 33.8852L3.04408 33.9041C3.20291 31.814 4.25609 29.8948 5.9332 28.6368L0.00429309 70.5863ZM0.00429309 70.5863L0.253573 70.6053L0.253449 70.6069C0.250911 70.6375 0.25 70.6701 0.25 70.7063C0.25 75.2195 3.62974 79.0158 8.11111 79.5401L8.11409 79.5404L19.5088 81.012L19.7267 81.0401V81.2599V97.6062C19.7267 98.3397 20.3222 98.935 21.0556 98.935C21.789 98.935 22.3845 98.3396 22.3845 97.6062V79.8716C22.3845 79.2027 21.8884 78.6391 21.2254 78.5532L8.42887 76.9021C8.42828 76.902 8.4277 76.902 8.42711 76.9019C5.30381 76.5404 2.94146 73.911 2.90758 70.7733L2.90755 70.7706C2.90771 70.7621 2.90818 70.753 2.90824 70.7522L2.90837 70.7504L2.90877 70.745L2.91029 70.7248L2.91627 70.6458L2.93956 70.3387L3.02796 69.1746L3.34347 65.0221L4.30089 52.4253L5.25832 39.8301L5.57383 35.6796L5.66223 34.5168L5.68552 34.2104L5.69149 34.1319L5.693 34.112L5.69338 34.107L5.69347 34.1058C5.6935 34.1055 5.69351 34.1053 5.94279 34.1243M0.00429309 70.5863L5.94279 34.1243M5.94279 34.1243L5.69351 34.1053M5.94279 34.1243L5.69351 34.1053" fill="#0F0F0F" stroke="#FFFDFC" stroke-width="0.5"></path><path d="M10.152 47.9103L10.1519 47.9102C9.76948 47.2852 9.9675 46.4664 10.5934 46.0833C11.2186 45.7018 12.0375 45.8992 12.4202 46.5247C12.4202 46.5247 12.4203 46.5247 12.4203 46.5247L17.4938 54.8309L17.4938 54.8309C18.668 56.7518 21.0563 57.5454 23.1463 56.7095C23.8264 56.4377 24.601 56.7699 24.8729 57.4512L24.8731 57.4515C25.1457 58.1314 24.8136 58.9059 24.1323 59.1779L24.1322 59.1779C20.838 60.4947 17.0747 59.243 15.2257 56.2166L10.152 47.9103ZM24.225 59.4101C25.0344 59.0869 25.4292 58.1669 25.1051 57.3585L15.0124 56.3469C16.925 59.4774 20.8176 60.7721 24.225 59.4101Z" fill="#0F0F0F" stroke="#FFFDFC" stroke-width="0.5"></path><path d="M74.1492 45.7035L74.0323 45.72L58.7438 47.8821C54.769 48.4438 51.9989 52.1277 52.5607 56.1027C53.1224 60.0764 56.8063 62.8476 60.7813 62.2858L79.5844 59.6258L79.5846 59.6258C80.292 59.526 80.9716 59.3245 81.6054 59.0325L81.96 58.8691V59.2596V62.5563V62.7791L81.7387 62.8047L70.3576 64.1194L70.3289 63.871L70.3576 64.1194C65.87 64.6375 62.4831 68.4369 62.4831 72.9552V97.6057C62.4831 98.3393 63.0786 98.9346 63.812 98.9346C64.5454 98.9346 65.1409 98.3392 65.1409 97.6057V72.9552C65.1409 69.7872 67.516 67.1224 70.6622 66.7594L83.4363 65.2838L83.4363 65.2834C84.1013 65.2108 84.6176 64.6474 84.6176 63.9635V56.033C84.6176 55.4635 84.2544 54.9576 83.7149 54.7752L83.7145 54.775C83.1756 54.5918 82.5793 54.774 82.2327 55.2269C81.5015 56.1841 80.4187 56.8239 79.2121 56.9943L79.2121 56.9943M74.1492 45.7035L79.1771 56.7468L79.2121 56.9943M74.1492 45.7035L74.2107 45.6028M74.1492 45.7035L74.2107 45.6028M79.2121 56.9943L60.4089 59.6532L79.2121 56.9943ZM74.8366 48.2902L76.1241 47.568L84.6331 33.6395L84.6332 33.6395C85.7746 31.7722 87.865 30.7 90.0481 30.8648C90.0482 30.8648 90.0484 30.8648 90.0485 30.8648L90.1353 30.871L90.1359 30.8711C93.0766 31.0933 95.3894 33.4753 95.5236 36.4205L97.0909 70.7279L97.0915 70.7407H97.0912C97.0736 73.8924 94.705 76.5384 91.57 76.9014L91.5699 76.9014L79.0362 78.3488L79.036 78.3488C78.3727 78.4249 77.8695 78.982 77.8606 79.6501V79.6502L77.6143 97.5869C77.6143 97.587 77.6143 97.587 77.6143 97.5871C77.6046 98.3207 78.1921 98.9241 78.9248 98.9346C79.6582 98.9442 80.2615 98.357 80.2722 97.6233C80.2722 97.6232 80.2722 97.6232 80.2722 97.6231L80.5222 97.6267L74.8366 48.2902ZM74.8366 48.2902L59.1157 50.5129L59.1156 50.5129C56.5938 50.8702 54.8355 53.207 55.1926 55.7291L74.8366 48.2902ZM74.2107 45.6028L82.3651 32.2538C82.3651 32.2538 82.3651 32.2538 82.3651 32.2538L74.2107 45.6028ZM98.1787 36.2992L98.4285 36.2878L98.1787 36.2992C98.1787 36.2992 98.1787 36.2992 98.1787 36.2992ZM90.3367 28.2212L90.3548 27.9719L90.2486 28.2138L90.2675 27.9645L90.2487 28.2138C90.2602 28.2146 90.2721 28.2157 90.2865 28.217L90.2882 28.2172C90.3026 28.2185 90.3194 28.22 90.3367 28.2212ZM55.1926 55.7292C55.5488 58.2522 57.8859 60.0104 60.4089 59.6532L55.1926 55.7292Z" fill="#0F0F0F" stroke="#FFFDFC" stroke-width="0.5"></path><path d="M64.9077 5.30146H64.6641V5.51286C64.6642 5.52572 64.6643 5.53858 64.6643 5.55146H64.9141H64.9143C64.9143 5.53823 64.9142 5.52501 64.9141 5.5118C64.9135 5.4415 64.9114 5.37137 64.9077 5.30146ZM63.5268 21.5988L63.35 21.4221L63.35 21.4221L63.5268 21.5988ZM36.32 24.462V25.0116L36.7343 24.6505L40.7132 21.1821C40.7132 21.182 40.7133 21.182 40.7133 21.182C41.531 20.47 42.5778 20.0783 43.6617 20.0783H60.1774C60.6622 20.0783 61.1281 19.8859 61.4709 19.5419C61.8138 19.1993 62.0064 18.7346 62.0064 18.2494V5.55146C62.0064 5.06632 61.8137 4.6018 61.4713 4.25927C61.1283 3.91515 60.6625 3.72259 60.1774 3.72259H38.1489C37.1382 3.72259 36.32 4.54199 36.32 5.55146V24.462Z" fill="#0F0F0F" stroke="#FFFDFC" stroke-width="0.5"></path><path d="M56.437 10.3457H42.1296C41.3961 10.3457 40.8008 9.7503 40.8008 9.01685C40.8008 8.28343 41.3962 7.68799 42.1296 7.68799H56.437C57.1704 7.68799 57.7659 8.28343 57.7659 9.01685C57.7659 9.75029 57.1706 10.3457 56.437 10.3457Z" fill="#0F0F0F" stroke="#FFFDFC" stroke-width="0.5"></path><path d="M40.8008 14.7745V14.7744C40.8008 14.041 41.3962 13.4456 42.1296 13.4456H49.1644C49.8969 13.4456 50.4932 14.041 50.4932 14.7744C50.4932 15.5077 49.8969 16.1033 49.1644 16.1033H42.1296C41.396 16.1033 40.8006 15.5078 40.8008 14.7745Z" fill="#0F0F0F" stroke="#FFFDFC" stroke-width="0.5"></path><path d="M79.5845 59.6266L79.5846 59.6266C81.7368 59.3223 83.6398 58.0716 84.7736 56.2175C84.7736 56.2175 84.7736 56.2175 84.7736 56.2174L89.8472 47.9112L89.8473 47.9111C90.2297 47.286 90.0316 46.4672 89.4058 46.0843C88.7804 45.7027 87.9617 45.9003 87.579 46.5258L82.5055 54.8319L82.5055 54.832C81.7865 56.0084 80.5778 56.8019 79.2125 56.9954L79.2123 56.9955L74.4682 57.666C73.7416 57.7688 73.2348 58.4424 73.3375 59.1686L79.5845 59.6266ZM79.5845 59.6266L74.8404 60.2981M79.5845 59.6266L74.8404 60.2981M74.8404 60.2981C74.8404 60.2981 74.8403 60.2981 74.8403 60.2981M74.8404 60.2981L74.8403 60.2981M74.8403 60.2981C74.1138 60.4008 73.4403 59.8939 73.3375 59.1687L74.8403 60.2981Z" fill="#0F0F0F" stroke="#FFFDFC" stroke-width="0.5"></path></g><defs><clipPath id="clip0_1777_1759"><rect width="100" height="100" fill="white"></rect></clipPath></defs></svg>