<svg xmlns="http://www.w3.org/2000/svg" width="48" height="48" viewBox="0 0 48 48" fill="none"><rect x="0.5" y="0.5" width="47" height="47" rx="23.5" stroke="white" stroke-opacity="0.08"></rect><g clip-path="url(#clip0_1063_1085)"><path d="M21.9341 26.5451L21.6165 31.0123C22.0709 31.0123 22.2677 30.8171 22.5037 30.5827L24.6341 28.5467L29.0485 31.7795C29.8581 32.2307 30.4285 31.9931 30.6469 31.0347L33.5445 17.4571L33.5453 17.4563C33.8021 16.2595 33.1125 15.7915 32.3237 16.0851L15.2917 22.6059C14.1293 23.0571 14.1469 23.7051 15.0941 23.9987L19.4485 25.3531L29.5629 19.0243C30.0389 18.7091 30.4717 18.8835 30.1157 19.1987L21.9341 26.5451Z" fill="white"></path></g><defs><clipPath id="clip0_1063_1085"><rect width="19.2" height="19.2" fill="white" transform="translate(14.4004 14.4004)"></rect></clipPath></defs></svg>