<svg xmlns="http://www.w3.org/2000/svg" width="32" height="32" viewBox="0 0 32 32" fill="none"><rect x="0.5" y="0.5" width="31" height="31" rx="15.5" stroke="white" stroke-opacity="0.12"></rect><g clip-path="url(#clip0_897_810)"><path d="M14.6221 17.6981L14.4104 20.6762C14.7133 20.6762 14.8445 20.5461 15.0018 20.3898L16.4221 19.0325L19.365 21.1877C19.9048 21.4885 20.285 21.3301 20.4306 20.6911L22.3624 11.6394L22.3629 11.6389C22.5341 10.841 22.0744 10.529 21.5485 10.7247L10.1938 15.0719C9.4189 15.3727 9.43064 15.8047 10.0621 16.0005L12.965 16.9034L19.708 12.6842C20.0253 12.4741 20.3138 12.5903 20.0765 12.8005L14.6221 17.6981Z" fill="white"></path></g><defs><clipPath id="clip0_897_810"><rect width="12.8" height="12.8" fill="white" transform="translate(9.59961 9.60156)"></rect></clipPath></defs></svg>