<svg xmlns="http://www.w3.org/2000/svg" width="24" height="24" viewBox="0 0 24 24" fill="none"><path d="M24 23.9998V15.2098C24 10.8898 23.07 7.58984 18.03 7.58984C15.6 7.58984 13.98 8.90984 13.32 10.1698H13.26V7.97984H8.48999V23.9998H13.47V16.0498C13.47 13.9498 13.86 11.9398 16.44 11.9398C18.99 11.9398 19.02 14.3098 19.02 16.1698V23.9698H24V23.9998Z" fill="white"></path><path d="M0.389893 7.98047H5.36989V24.0005H0.389893V7.98047Z" fill="white"></path><path d="M2.88 0C1.29 0 0 1.29 0 2.88C0 4.47 1.29 5.79 2.88 5.79C4.47 5.79 5.76 4.47 5.76 2.88C5.76 1.29 4.47 0 2.88 0Z" fill="white"></path></svg>